<?xml version="1.0" encoding="UTF-8" standalone="no" ?>
<COLLADA xmlns="http://www.collada.org/2005/11/COLLADASchema" version="1.4.1">
    <asset>
        <contributor>
            <author>mac T.</author>
            <authoring_tool>SketchUp 18.0.16975</authoring_tool>
        </contributor>
        <created>2020-01-16T21:22:13Z</created>
        <modified>2020-01-16T21:22:13Z</modified>
        <unit meter="0.0254" name="inch" />
        <up_axis>Z_UP</up_axis>
    </asset>
    <library_cameras>
        <camera id="ID1" name="skp_camera_Last_Saved_SketchUp_View">
            <optics>
                <technique_common>
                    <perspective>
                        <yfov>35</yfov>
                        <aspect_ratio>0</aspect_ratio>
                        <znear>1</znear>
                        <zfar>1000</zfar>
                    </perspective>
                </technique_common>
            </optics>
        </camera>
    </library_cameras>
    <library_visual_scenes>
        <visual_scene id="ID2">
            <node name="SketchUp">
                <instance_geometry url="#ID3">
                    <bind_material>
                        <technique_common>
                            <instance_material symbol="Material2" target="#ID4">
                                <bind_vertex_input semantic="UVSET0" input_semantic="TEXCOORD" input_set="0" />
                            </instance_material>
                            <instance_material symbol="Material3" target="#ID11">
                                <bind_vertex_input semantic="UVSET0" input_semantic="TEXCOORD" input_set="0" />
                            </instance_material>
                            <instance_material symbol="Material4" target="#ID12">
                                <bind_vertex_input semantic="UVSET0" input_semantic="TEXCOORD" input_set="0" />
                            </instance_material>
                            <instance_material symbol="Material5" target="#ID14">
                                <bind_vertex_input semantic="UVSET0" input_semantic="TEXCOORD" input_set="0" />
                            </instance_material>
                        </technique_common>
                    </bind_material>
                </instance_geometry>
                <instance_geometry url="#ID19">
                    <bind_material>
                        <technique_common>
                            <instance_material symbol="Material2" target="#ID11">
                                <bind_vertex_input semantic="UVSET0" input_semantic="TEXCOORD" input_set="0" />
                            </instance_material>
                            <instance_material symbol="Material3" target="#ID21">
                                <bind_vertex_input semantic="UVSET0" input_semantic="TEXCOORD" input_set="0" />
                            </instance_material>
                            <instance_material symbol="Material4" target="#ID12">
                                <bind_vertex_input semantic="UVSET0" input_semantic="TEXCOORD" input_set="0" />
                            </instance_material>
                            <instance_material symbol="Material5" target="#ID14">
                                <bind_vertex_input semantic="UVSET0" input_semantic="TEXCOORD" input_set="0" />
                            </instance_material>
                        </technique_common>
                    </bind_material>
                </instance_geometry>
                <instance_geometry url="#ID29">
                    <bind_material>
                        <technique_common>
                            <instance_material symbol="Material2" target="#ID11">
                                <bind_vertex_input semantic="UVSET0" input_semantic="TEXCOORD" input_set="0" />
                            </instance_material>
                            <instance_material symbol="Material3" target="#ID21">
                                <bind_vertex_input semantic="UVSET0" input_semantic="TEXCOORD" input_set="0" />
                            </instance_material>
                            <instance_material symbol="Material4" target="#ID30">
                                <bind_vertex_input semantic="UVSET0" input_semantic="TEXCOORD" input_set="0" />
                            </instance_material>
                            <instance_material symbol="Material5" target="#ID12">
                                <bind_vertex_input semantic="UVSET0" input_semantic="TEXCOORD" input_set="0" />
                            </instance_material>
                        </technique_common>
                    </bind_material>
                </instance_geometry>
                <instance_geometry url="#ID39">
                    <bind_material>
                        <technique_common>
                            <instance_material symbol="Material2" target="#ID11">
                                <bind_vertex_input semantic="UVSET0" input_semantic="TEXCOORD" input_set="0" />
                            </instance_material>
                            <instance_material symbol="Material3" target="#ID40">
                                <bind_vertex_input semantic="UVSET0" input_semantic="TEXCOORD" input_set="0" />
                            </instance_material>
                            <instance_material symbol="Material4" target="#ID12">
                                <bind_vertex_input semantic="UVSET0" input_semantic="TEXCOORD" input_set="0" />
                            </instance_material>
                        </technique_common>
                    </bind_material>
                </instance_geometry>
                <instance_geometry url="#ID49">
                    <bind_material>
                        <technique_common>
                            <instance_material symbol="Material2" target="#ID11">
                                <bind_vertex_input semantic="UVSET0" input_semantic="TEXCOORD" input_set="0" />
                            </instance_material>
                            <instance_material symbol="Material3" target="#ID50">
                                <bind_vertex_input semantic="UVSET0" input_semantic="TEXCOORD" input_set="0" />
                            </instance_material>
                            <instance_material symbol="Material4" target="#ID12">
                                <bind_vertex_input semantic="UVSET0" input_semantic="TEXCOORD" input_set="0" />
                            </instance_material>
                        </technique_common>
                    </bind_material>
                </instance_geometry>
                <instance_geometry url="#ID59">
                    <bind_material>
                        <technique_common>
                            <instance_material symbol="Material2" target="#ID11">
                                <bind_vertex_input semantic="UVSET0" input_semantic="TEXCOORD" input_set="0" />
                            </instance_material>
                            <instance_material symbol="Material3" target="#ID30">
                                <bind_vertex_input semantic="UVSET0" input_semantic="TEXCOORD" input_set="0" />
                            </instance_material>
                            <instance_material symbol="Material4" target="#ID12">
                                <bind_vertex_input semantic="UVSET0" input_semantic="TEXCOORD" input_set="0" />
                            </instance_material>
                        </technique_common>
                    </bind_material>
                </instance_geometry>
                <instance_geometry url="#ID67">
                    <bind_material>
                        <technique_common>
                            <instance_material symbol="Material2" target="#ID11">
                                <bind_vertex_input semantic="UVSET0" input_semantic="TEXCOORD" input_set="0" />
                            </instance_material>
                            <instance_material symbol="Material3" target="#ID21">
                                <bind_vertex_input semantic="UVSET0" input_semantic="TEXCOORD" input_set="0" />
                            </instance_material>
                            <instance_material symbol="Material4" target="#ID12">
                                <bind_vertex_input semantic="UVSET0" input_semantic="TEXCOORD" input_set="0" />
                            </instance_material>
                        </technique_common>
                    </bind_material>
                </instance_geometry>
                <instance_geometry url="#ID75">
                    <bind_material>
                        <technique_common>
                            <instance_material symbol="Material2" target="#ID12">
                                <bind_vertex_input semantic="UVSET0" input_semantic="TEXCOORD" input_set="0" />
                            </instance_material>
                        </technique_common>
                    </bind_material>
                </instance_geometry>
                <instance_geometry url="#ID79">
                    <bind_material>
                        <technique_common>
                            <instance_material symbol="Material2" target="#ID12">
                                <bind_vertex_input semantic="UVSET0" input_semantic="TEXCOORD" input_set="0" />
                            </instance_material>
                        </technique_common>
                    </bind_material>
                </instance_geometry>
                <instance_geometry url="#ID83">
                    <bind_material>
                        <technique_common>
                            <instance_material symbol="Material2" target="#ID12">
                                <bind_vertex_input semantic="UVSET0" input_semantic="TEXCOORD" input_set="0" />
                            </instance_material>
                        </technique_common>
                    </bind_material>
                </instance_geometry>
                <instance_geometry url="#ID87">
                    <bind_material>
                        <technique_common>
                            <instance_material symbol="Material2" target="#ID12">
                                <bind_vertex_input semantic="UVSET0" input_semantic="TEXCOORD" input_set="0" />
                            </instance_material>
                        </technique_common>
                    </bind_material>
                </instance_geometry>
                <instance_geometry url="#ID91">
                    <bind_material>
                        <technique_common>
                            <instance_material symbol="Material2" target="#ID12">
                                <bind_vertex_input semantic="UVSET0" input_semantic="TEXCOORD" input_set="0" />
                            </instance_material>
                        </technique_common>
                    </bind_material>
                </instance_geometry>
                <instance_geometry url="#ID95">
                    <bind_material>
                        <technique_common>
                            <instance_material symbol="Material2" target="#ID12">
                                <bind_vertex_input semantic="UVSET0" input_semantic="TEXCOORD" input_set="0" />
                            </instance_material>
                        </technique_common>
                    </bind_material>
                </instance_geometry>
                <instance_geometry url="#ID99">
                    <bind_material>
                        <technique_common>
                            <instance_material symbol="Material2" target="#ID12">
                                <bind_vertex_input semantic="UVSET0" input_semantic="TEXCOORD" input_set="0" />
                            </instance_material>
                        </technique_common>
                    </bind_material>
                </instance_geometry>
                <instance_geometry url="#ID103">
                    <bind_material>
                        <technique_common>
                            <instance_material symbol="Material2" target="#ID12">
                                <bind_vertex_input semantic="UVSET0" input_semantic="TEXCOORD" input_set="0" />
                            </instance_material>
                        </technique_common>
                    </bind_material>
                </instance_geometry>
                <instance_geometry url="#ID107">
                    <bind_material>
                        <technique_common>
                            <instance_material symbol="Material2" target="#ID12">
                                <bind_vertex_input semantic="UVSET0" input_semantic="TEXCOORD" input_set="0" />
                            </instance_material>
                        </technique_common>
                    </bind_material>
                </instance_geometry>
                <node name="skp_camera_Last_Saved_SketchUp_View">
                    <matrix>0.9762458 0.1438877 -0.1619892 70.18006 -0.2166661 0.6483238 -0.729885 -324.6429 -2.775558e-17 0.7476447 0.6640989 353.1484 0 0 0 1</matrix>
                    <instance_camera url="#ID1" />
                </node>
            </node>
        </visual_scene>
    </library_visual_scenes>
    <library_geometries>
        <geometry id="ID3">
            <mesh>
                <source id="ID6">
                    <float_array id="ID16" count="993">164.9544 270.7287 3.768525 177.0594 241.0232 10.90551 177.0594 241.0232 3.768525 164.9544 270.7287 10.90551 164.9544 270.7287 10.90551 164.9544 270.7287 3.768525 177.0594 241.0232 10.90551 177.0594 241.0232 3.768525 177.0594 241.0232 3.768525 177.0594 241.0232 10.90551 164.9544 270.7287 3.768525 164.9544 270.7287 10.90551 177.0594 241.0232 3.768525 177.0594 151.1114 10.90551 177.0594 151.1114 3.768525 177.0594 241.0232 10.90551 177.0594 241.0232 10.90551 177.0594 241.0232 3.768525 177.0594 151.1114 10.90551 177.0594 151.1114 3.768525 177.0594 151.1114 3.768525 177.0594 151.1114 10.90551 177.0594 241.0232 3.768525 169.5227 231.35 3.149606 164.9544 270.7287 3.768525 164.9544 270.7287 3.768525 169.5227 231.35 3.149606 177.0594 241.0232 3.768525 169.5227 231.35 3.149606 139.6184 290.402 10.90551 139.6184 290.402 3.768525 139.6184 290.402 10.90551 139.6184 290.402 3.768525 139.6184 290.402 3.768525 139.6184 290.402 10.90551 87.32226 286.4104 10.90551 90.28018 280.976 10.90551 107.8401 294.7715 10.90551 90.22975 280.9291 10.90551 103.8967 284.1054 10.90551 117.5133 287.2347 10.90551 139.6184 290.402 10.90551 144.2272 279.0384 10.90551 164.9544 270.7287 10.90551 163.264 258.5831 10.90551 169.5227 231.35 10.90551 177.0594 241.0232 10.90551 169.6976 208.3101 10.90551 169.8212 192.0294 10.90551 169.9448 175.7486 10.90551 170.0533 161.4624 10.90551 170.1617 147.1763 10.90551 177.0594 151.1114 10.90551 177.0594 151.1114 10.90551 170.1617 147.1763 10.90551 177.0594 241.0232 10.90551 170.0533 161.4624 10.90551 169.9448 175.7486 10.90551 169.8212 192.0294 10.90551 169.6976 208.3101 10.90551 169.5227 231.35 10.90551 164.9544 270.7287 10.90551 163.264 258.5831 10.90551 144.2272 279.0384 10.90551 139.6184 290.402 10.90551 117.5133 287.2347 10.90551 107.8401 294.7715 10.90551 103.8967 284.1054 10.90551 90.28018 280.976 10.90551 90.22975 280.9291 10.90551 87.32226 286.4104 10.90551 169.5227 231.35 10.90551 163.264 258.5831 10.90551 169.6976 208.3101 10.90551 169.8212 192.0294 10.90551 169.9448 175.7486 10.90551 170.0533 161.4624 10.90551 170.1617 147.1763 10.90551 107.8401 294.7715 10.90551 87.32226 286.4104 10.90551 90.22975 280.9291 10.90551 90.28018 280.976 10.90551 103.8967 284.1054 10.90551 117.5133 287.2347 10.90551 144.2272 279.0384 10.90551 177.0594 151.1114 3.768525 169.5227 231.35 3.149606 177.0594 241.0232 3.768525 177.0594 241.0232 3.768525 169.5227 231.35 3.149606 177.0594 151.1114 3.768525 169.5227 231.35 3.149606 163.264 258.5831 4.187865 164.9544 270.7287 3.768525 164.9544 270.7287 3.768525 163.264 258.5831 4.187865 169.5227 231.35 3.149606 163.264 258.5831 4.187865 164.9544 270.7287 3.768525 163.264 258.5831 4.187865 139.6184 290.402 3.768525 139.6184 290.402 3.768525 163.264 258.5831 4.187865 164.9544 270.7287 3.768525 107.8401 294.7715 10.90551 107.8401 294.7715 3.768525 107.8401 294.7715 10.90551 107.8401 294.7715 3.768525 107.8401 294.7715 3.768525 78.1346 282.6664 10.90551 78.1346 282.6664 3.768525 87.32226 286.4104 10.90551 87.32226 286.4104 10.90551 78.1346 282.6664 10.90551 78.1346 282.6664 3.768525 78.1346 282.6664 3.768525 78.1346 282.6664 10.90551 66.19687 195.8466 10.90551 58.46136 257.3304 10.90551 54.09185 225.5522 10.90551 61.6286 235.2253 10.90551 67.88731 207.9922 10.90551 93.69512 175.8761 10.90551 86.92407 187.537 10.90551 103.8967 175.7486 10.90551 149.4685 135.3708 10.90551 118.5864 165.5459 10.90551 133.276 155.3433 10.90551 144.8211 147.3246 10.90551 156.3663 139.3059 10.90551 69.82496 261.9392 10.90551 78.1346 282.6664 10.90551 80.02736 271.4342 10.90551 80.02736 271.4342 10.90551 78.1346 282.6664 10.90551 69.82496 261.9392 10.90551 61.6286 235.2253 10.90551 58.46136 257.3304 10.90551 156.3663 139.3059 10.90551 149.4685 135.3708 10.90551 144.8211 147.3246 10.90551 133.276 155.3433 10.90551 118.5864 165.5459 10.90551 103.8967 175.7486 10.90551 93.69512 175.8761 10.90551 86.92407 187.537 10.90551 67.88731 207.9922 10.90551 66.19687 195.8466 10.90551 54.09185 225.5522 10.90551 149.4685 135.3708 10.90551 156.3663 139.3059 10.90551 144.8211 147.3246 10.90551 133.276 155.3433 10.90551 118.5864 165.5459 10.90551 103.8967 175.7486 10.90551 86.92407 187.537 10.90551 67.88731 207.9922 10.90551 61.6286 235.2253 10.90551 69.82496 261.9392 10.90551 80.02736 271.4342 10.90551 58.46136 257.3304 10.90551 54.09185 225.5522 10.90551 66.19687 195.8466 10.90551 93.69512 175.8761 10.90551 177.0594 151.1114 3.768525 169.6976 208.3101 3.319016 169.5227 231.35 3.149606 169.8212 192.0294 3.438726 169.9448 175.7486 3.558436 170.0533 161.4624 3.663481 170.1617 147.1763 3.768525 170.1617 147.1763 3.768525 177.0594 151.1114 3.768525 170.0533 161.4624 3.663481 169.9448 175.7486 3.558436 169.8212 192.0294 3.438726 169.6976 208.3101 3.319016 169.5227 231.35 3.149606 170.1617 147.1763 3.768525 170.0533 161.4624 3.663481 169.9448 175.7486 3.558436 169.8212 192.0294 3.438726 169.6976 208.3101 3.319016 163.264 258.5831 4.187865 144.2272 279.0384 3.149606 139.6184 290.402 3.768525 139.6184 290.402 3.768525 144.2272 279.0384 3.149606 163.264 258.5831 4.187865 144.2272 279.0384 3.149606 144.2272 279.0384 3.149606 107.8401 294.7715 3.768525 139.6184 290.402 3.768525 139.6184 290.402 3.768525 107.8401 294.7715 3.768525 144.2272 279.0384 3.149606 117.5133 287.2347 3.149606 78.1346 282.6664 3.768525 107.8401 294.7715 3.768525 107.8401 294.7715 3.768525 78.1346 282.6664 3.768525 117.5133 287.2347 3.149606 117.5133 287.2347 3.149606 58.46136 257.3304 3.768525 58.46136 257.3304 10.90551 58.46136 257.3304 3.768525 58.46136 257.3304 10.90551 58.46136 257.3304 3.768525 54.09185 225.5522 3.768525 54.09185 225.5522 10.90551 54.09185 225.5522 3.768525 54.09185 225.5522 10.90551 54.09185 225.5522 3.768525 66.19687 195.8466 3.768525 66.19687 195.8466 10.90551 66.19687 195.8466 3.768525 66.19687 195.8466 10.90551 66.19687 195.8466 3.768525 93.69512 175.8761 10.90551 66.19687 195.8466 3.768525 93.69512 175.8761 3.768525 66.19687 195.8466 10.90551 66.19687 195.8466 10.90551 93.69512 175.8761 10.90551 66.19687 195.8466 3.768525 93.69512 175.8761 3.768525 93.69512 175.8761 3.768525 149.4685 135.3708 10.90551 93.69512 175.8761 3.768525 149.4685 135.3708 3.768525 93.69512 175.8761 10.90551 93.69512 175.8761 10.90551 149.4685 135.3708 10.90551 93.69512 175.8761 3.768525 149.4685 135.3708 3.768525 149.4685 135.3708 3.768525 144.2272 279.0384 3.149606 117.5133 287.2347 3.149606 107.8401 294.7715 3.768525 107.8401 294.7715 3.768525 117.5133 287.2347 3.149606 144.2272 279.0384 3.149606 78.1346 282.6664 3.768525 103.8715 284.0819 3.668736 90.22975 280.9291 4.187865 117.5133 287.2347 3.149606 117.5133 287.2347 3.149606 78.1346 282.6664 3.768525 103.8715 284.0819 3.668736 90.22975 280.9291 4.187865 103.8715 284.0819 3.668736 90.22975 280.9291 4.187865 90.22975 280.9291 4.187865 58.46136 257.3304 3.768525 78.1346 282.6664 3.768525 78.1346 282.6664 3.768525 58.46136 257.3304 3.768525 90.22975 280.9291 4.187865 69.82496 261.9392 4.187865 54.09185 225.5522 3.768525 58.46136 257.3304 3.768525 58.46136 257.3304 3.768525 54.09185 225.5522 3.768525 69.82496 261.9392 4.187865 69.82496 261.9392 4.187865 66.19687 195.8466 3.768525 54.09185 225.5522 3.768525 61.6286 235.2253 4.187865 61.6286 235.2253 4.187865 54.09185 225.5522 3.768525 66.19687 195.8466 3.768525 61.6286 235.2253 4.187865 93.69512 175.8761 3.768525 66.19687 195.8466 3.768525 67.88731 207.9922 4.187865 67.88731 207.9922 4.187865 66.19687 195.8466 3.768525 93.69512 175.8761 3.768525 67.88731 207.9922 4.187865 116.6162 162.7718 3.98879 93.69512 175.8761 3.768525 86.92407 187.537 4.187865 149.4685 135.3708 3.768525 149.4685 135.3708 3.768525 116.6162 162.7718 3.98879 93.69512 175.8761 3.768525 86.92407 187.537 4.187865 86.92407 187.537 4.187865 116.6162 162.7718 3.98879 58.46136 257.3304 3.768525 80.02736 271.4342 4.187865 69.82496 261.9392 4.187865 90.22975 280.9291 4.187865 90.22975 280.9291 4.187865 58.46136 257.3304 3.768525 80.02736 271.4342 4.187865 69.82496 261.9392 4.187865 80.02736 271.4342 4.187865 69.82496 261.9392 4.187865 61.6286 235.2253 4.187865 54.09185 225.5522 3.768525 54.09185 225.5522 3.768525 61.6286 235.2253 4.187865 69.82496 261.9392 4.187865 67.88731 207.9922 4.187865 66.19687 195.8466 3.768525 61.6286 235.2253 4.187865 61.6286 235.2253 4.187865 66.19687 195.8466 3.768525 67.88731 207.9922 4.187865 93.69512 175.8761 3.768525 67.88731 207.9922 4.187865 86.92407 187.537 4.187865 86.92407 187.537 4.187865 67.88731 207.9922 4.187865 93.69512 175.8761 3.768525 96.57556 180.9251 4.13002 116.6162 162.7718 3.98879 86.92407 187.537 4.187865 132.504 156.3119 3.914686 149.4685 135.3708 3.768525 156.891 139.6053 3.768525 156.891 139.6053 3.768525 132.504 156.3119 3.914686 149.4685 135.3708 3.768525 116.6162 162.7718 3.98879 96.57556 180.9251 4.13002 86.92407 187.537 4.187865 96.57556 180.9251 4.13002 132.504 156.3119 3.914686 156.891 139.6053 3.768525</float_array>
                    <technique_common>
                        <accessor count="331" source="#ID16" stride="3">
                            <param name="X" type="float" />
                            <param name="Y" type="float" />
                            <param name="Z" type="float" />
                        </accessor>
                    </technique_common>
                </source>
                <source id="ID7">
                    <float_array id="ID17" count="993">0.7968366 0.6041948 0 0.9260622 0.3773709 0 0.9260622 0.3773709 0 0.7968366 0.6041948 0 -0.7968366 -0.6041948 -0 -0.7968366 -0.6041948 -0 -0.9260622 -0.3773709 -0 -0.9260622 -0.3773709 -0 0 0 0 0 0 0 0 0 0 0 0 0 1 -0 -0 1 -0 -0 1 -0 -0 1 -0 -0 -1 0 0 -1 0 0 -1 0 0 -1 0 0 0 0 0 0 0 0 0.05382835 0.02193508 -0.9983093 0.05382835 0.02193508 -0.9983093 0.05382835 0.02193508 -0.9983093 -0.05382835 -0.02193508 0.9983093 -0.05382835 -0.02193508 0.9983093 -0.05382835 -0.02193508 0.9983093 0 0 0 0.3879834 0.9216664 0 0.3879834 0.9216664 0 -0.3879834 -0.9216664 -0 -0.3879834 -0.9216664 -0 0 0 0 0 0 0 -0 -0 1 -0 -0 1 -0 -0 1 -0 -0 1 -0 -0 1 -0 -0 1 -0 -0 1 -0 -0 1 -0 -0 1 -0 -0 1 -0 -0 1 -0 -0 1 -0 -0 1 -0 -0 1 -0 -0 1 -0 -0 1 -0 -0 1 -0 -0 1 0 0 -1 0 0 -1 0 0 -1 0 0 -1 0 0 -1 0 0 -1 0 0 -1 0 0 -1 0 0 -1 0 0 -1 0 0 -1 0 0 -1 0 0 -1 0 0 -1 0 0 -1 0 0 -1 0 0 -1 0 0 -1 0 0 0 0 0 0 0 0 0 0 0 0 0 0 0 0 0 0 0 0 0 0 0 0 0 0 0 0 0 0 0 0 0 0 0 0 0 0 0 0 0 0 0.08184462 7.402362e-19 -0.9966451 0.08184462 7.402362e-19 -0.9966451 0.08184462 7.402362e-19 -0.9966451 -0.08184462 -7.402362e-19 0.9966451 -0.08184462 -7.402362e-19 0.9966451 -0.08184462 -7.402362e-19 0.9966451 -0.1931724 -0.006988993 -0.9811399 -0.1931724 -0.006988993 -0.9811399 -0.1931724 -0.006988993 -0.9811399 0.1931724 0.006988993 0.9811399 0.1931724 0.006988993 0.9811399 0.1931724 0.006988993 0.9811399 0 0 0 -0.0241757 -0.03113449 -0.9992228 -0.0241757 -0.03113449 -0.9992228 -0.0241757 -0.03113449 -0.9992228 0.0241757 0.03113449 0.9992228 0.0241757 0.03113449 0.9992228 0.0241757 0.03113449 0.9992228 -0.1248297 0.9921782 0 -0.1248297 0.9921782 0 0.1248297 -0.9921782 -0 0.1248297 -0.9921782 -0 0 0 0 -0.6041948 0.7968366 0 -0.6041948 0.7968366 0 -0.3773709 0.9260622 0 0.3773709 -0.9260622 -0 0.6041948 -0.7968366 -0 0.6041948 -0.7968366 -0 0 0 0 0 0 0 -0 -0 1 -0 -0 1 -0 -0 1 -0 -0 1 -0 -0 1 -0 -0 1 -0 -0 1 -0 -0 1 -0 -0 1 -0 -0 1 -0 -0 1 -0 -0 1 -0 -0 1 -0 -0 1 -0 -0 1 -0 -0 1 0 0 -1 0 0 -1 0 0 -1 0 0 -1 0 0 -1 0 0 -1 0 0 -1 0 0 -1 0 0 -1 0 0 -1 0 0 -1 0 0 -1 0 0 -1 0 0 -1 0 0 -1 0 0 -1 0 0 0 0 0 0 0 0 0 0 0 0 0 0 0 0 0 0 0 0 0 0 0 0 0 0 0 0 0 0 0 0 0 0 0 0 0 0 0 0 0 0 0 0 0 0.004176584 -0.007320906 -0.9999645 0.004176584 -0.007320906 -0.9999645 0.004176584 -0.007320906 -0.9999645 0.004176584 -0.007320906 -0.9999645 0.004176584 -0.007320906 -0.9999645 0.004176584 -0.007320906 -0.9999645 0.004176584 -0.007320906 -0.9999645 -0.004176584 0.007320906 0.9999645 -0.004176584 0.007320906 0.9999645 -0.004176584 0.007320906 0.9999645 -0.004176584 0.007320906 0.9999645 -0.004176584 0.007320906 0.9999645 -0.004176584 0.007320906 0.9999645 -0.004176584 0.007320906 0.9999645 0 0 0 0 0 0 0 0 0 0 0 0 0 0 0 0.1947708 0.1319313 -0.9719354 0.1947708 0.1319313 -0.9719354 0.1947708 0.1319313 -0.9719354 -0.1947708 -0.1319313 0.9719354 -0.1947708 -0.1319313 0.9719354 -0.1947708 -0.1319313 0.9719354 0 0 0 0.007917835 0.05758426 -0.9983093 0.007917835 0.05758426 -0.9983093 0.007917835 0.05758426 -0.9983093 -0.007917835 -0.05758426 0.9983093 -0.007917835 -0.05758426 0.9983093 -0.007917835 -0.05758426 0.9983093 -0.02193508 0.05382835 -0.9983093 -0.02193508 0.05382835 -0.9983093 -0.02193508 0.05382835 -0.9983093 0.02193508 -0.05382835 0.9983093 0.02193508 -0.05382835 0.9983093 0.02193508 -0.05382835 0.9983093 0 0 0 -0.9216664 0.3879834 0 -0.9216664 0.3879834 0 0.9216664 -0.3879834 -0 0.9216664 -0.3879834 -0 0 0 0 -0.9921782 -0.1248297 0 -0.9921782 -0.1248297 0 0.9921782 0.1248297 -0 0.9921782 0.1248297 -0 0 0 0 -0.9260622 -0.3773709 -0 -0.9260622 -0.3773709 -0 0.9260622 0.3773709 0 0.9260622 0.3773709 0 0 0 0 -0.5876292 -0.8091304 -0 -0.5876292 -0.8091304 -0 -0.5876292 -0.8091304 -0 -0.5876292 -0.8091304 -0 0.5876292 0.8091304 0 0.5876292 0.8091304 0 0.5876292 0.8091304 0 0.5876292 0.8091304 0 0 0 0 -0.5876292 -0.8091304 0 -0.5876292 -0.8091304 0 -0.5876292 -0.8091304 0 -0.5876292 -0.8091304 0 0.5876292 0.8091304 -0 0.5876292 0.8091304 -0 0.5876292 0.8091304 -0 0.5876292 0.8091304 -0 0 0 0 0.04115239 0.1341256 -0.9901095 0.04115239 0.1341256 -0.9901095 0.04115239 0.1341256 -0.9901095 -0.04115239 -0.1341256 0.9901095 -0.04115239 -0.1341256 0.9901095 -0.04115239 -0.1341256 0.9901095 0.006670648 -0.1904994 -0.9816647 0.006670648 -0.1904994 -0.9816647 0.006670648 -0.1904994 -0.9816647 0.006670648 -0.1904994 -0.9816647 -0.006670648 0.1904994 0.9816647 -0.006670648 0.1904994 0.9816647 -0.006670648 0.1904994 0.9816647 -0.006670648 0.1904994 0.9816647 0 0 0 0 0 0 0.03116683 -0.02420081 -0.9992212 0.03116683 -0.02420081 -0.9992212 0.03116683 -0.02420081 -0.9992212 -0.03116683 0.02420081 0.9992212 -0.03116683 0.02420081 0.9992212 -0.03116683 0.02420081 0.9992212 0.03905111 -0.005369527 -0.9992228 0.03905111 -0.005369527 -0.9992228 0.03905111 -0.005369527 -0.9992228 -0.03905111 0.005369527 0.9992228 -0.03905111 0.005369527 0.9992228 -0.03905111 0.005369527 0.9992228 0 0 0 0.03650401 0.01487541 -0.9992228 0.03650401 0.01487541 -0.9992228 0.03650401 0.01487541 -0.9992228 -0.03650401 -0.01487541 0.9992228 -0.03650401 -0.01487541 0.9992228 -0.03650401 -0.01487541 0.9992228 0 0 0 0.02275558 0.03133308 -0.9992499 0.02275558 0.03133308 -0.9992499 0.02275558 0.03133308 -0.9992499 -0.02275558 -0.03133308 0.9992499 -0.02275558 -0.03133308 0.9992499 -0.02275558 -0.03133308 0.9992499 0 0 0 0.04502881 0.06200199 -0.9970598 0.04502881 0.06200199 -0.9970598 0.04502881 0.06200199 -0.9970598 0.04502881 0.06200199 -0.9970598 -0.04502881 -0.06200199 0.9970598 -0.04502881 -0.06200199 0.9970598 -0.04502881 -0.06200199 0.9970598 -0.04502881 -0.06200199 0.9970598 0 0 0 0 0 0 0.06510641 -0.0699576 -0.9954231 0.06510641 -0.0699576 -0.9954231 0.06510641 -0.0699576 -0.9954231 0.06510641 -0.0699576 -0.9954231 -0.06510641 0.0699576 0.9954231 -0.06510641 0.0699576 0.9954231 -0.06510641 0.0699576 0.9954231 -0.06510641 0.0699576 0.9954231 0 0 0 0.09136261 -0.02803185 -0.9954231 0.09136261 -0.02803185 -0.9954231 0.09136261 -0.02803185 -0.9954231 -0.09136261 0.02803185 0.9954231 -0.09136261 0.02803185 0.9954231 -0.09136261 0.02803185 0.9954231 0.09313827 0.02140501 -0.9954231 0.09313827 0.02140501 -0.9954231 0.09313827 0.02140501 -0.9954231 -0.09313827 -0.02140501 0.9954231 -0.09313827 -0.02140501 0.9954231 -0.09313827 -0.02140501 0.9954231 0.101751 0.09469509 -0.9902927 0.101751 0.09469509 -0.9902927 0.101751 0.09469509 -0.9902927 -0.101751 -0.09469509 0.9902927 -0.101751 -0.09469509 0.9902927 -0.101751 -0.09469509 0.9902927 -0.002723233 0.004773405 -0.9999849 -0.002723233 0.004773405 -0.9999849 -0.002723233 0.004773405 -0.9999849 -0.002723233 0.004773405 -0.9999849 -0.002723233 0.004773405 -0.9999849 -0.002723233 0.004773405 -0.9999849 0.002723233 -0.004773405 0.9999849 0.002723233 -0.004773405 0.9999849 0.002723233 -0.004773405 0.9999849 0.002723233 -0.004773405 0.9999849 0.002723233 -0.004773405 0.9999849 0.002723233 -0.004773405 0.9999849 0 0 0 0 0 0 0 0 0</float_array>
                    <technique_common>
                        <accessor count="331" source="#ID17" stride="3">
                            <param name="X" type="float" />
                            <param name="Y" type="float" />
                            <param name="Z" type="float" />
                        </accessor>
                    </technique_common>
                </source>
                <source id="ID8">
                    <Name_array id="ID18" count="0" />
                    <technique_common>
                        <accessor count="0" source="#ID18" stride="1">
                            <param name="skp_material" type="Name" />
                        </accessor>
                    </technique_common>
                </source>
                <vertices id="ID9">
                    <input semantic="POSITION" source="#ID6" />
                    <input semantic="NORMAL" source="#ID7" />
                </vertices>
                <triangles count="83" material="Material2">
                    <input offset="0" semantic="VERTEX" source="#ID9" />
                    <p>0 1 2 1 0 3 12 13 14 13 12 15 22 23 24 29 0 30 0 29 3 35 36 37 36 35 38 37 36 39 37 39 40 37 40 41 41 40 42 41 42 43 43 42 44 43 44 45 43 45 46 46 45 47 46 47 48 46 48 49 46 49 50 46 50 51 46 51 52 85 86 87 91 92 93 98 99 100 104 30 105 30 104 29 109 105 110 105 109 104 104 109 111 117 118 119 118 117 120 120 117 121 121 117 122 121 122 123 123 122 124 124 122 125 124 125 126 126 125 127 127 125 128 128 125 129 118 130 131 130 118 120 131 130 132 131 132 35 35 132 38 164 165 166 165 164 167 167 164 168 168 164 169 169 164 170 183 184 185 190 191 192 196 197 198 109 203 204 203 109 110 204 208 209 208 204 203 209 213 214 213 209 208 218 219 220 219 218 221 227 228 229 228 227 230 236 237 238 242 243 244 243 242 245 252 253 254 258 259 260 265 266 267 272 273 274 279 280 281 280 279 282 289 290 291 290 289 292 298 299 300 304 305 306 310 311 312 316 317 318 317 316 319 317 319 320 320 319 321</p>
                </triangles>
                <triangles count="83" material="Material3">
                    <input offset="0" semantic="VERTEX" source="#ID9" />
                    <p>4 5 6 7 6 5 16 17 18 19 18 17 25 26 27 4 31 5 32 5 31 53 54 55 54 56 55 56 57 55 57 58 55 58 59 55 59 60 55 55 60 61 60 62 61 62 63 61 61 63 64 63 65 64 64 65 66 65 67 66 67 68 66 69 70 68 66 68 70 88 89 90 94 95 96 101 102 103 31 106 32 107 32 106 112 113 106 106 113 107 114 107 113 69 133 70 70 133 134 133 135 134 136 137 135 134 135 137 138 139 140 140 139 141 141 139 142 142 139 143 139 144 143 143 144 145 145 144 146 144 147 146 146 147 136 136 147 137 148 137 147 171 172 173 173 172 174 174 172 175 175 172 176 177 176 172 186 187 188 193 194 195 199 200 201 114 113 205 206 205 113 205 206 210 211 210 206 210 211 215 216 215 211 222 223 224 225 224 223 231 232 233 234 233 232 239 240 241 246 247 248 249 248 247 255 256 257 261 262 263 268 269 270 275 276 277 283 284 285 286 285 284 293 294 295 296 295 294 301 302 303 307 308 309 313 314 315 322 323 324 324 323 325 323 326 325 327 325 326</p>
                </triangles>
                
                
            </mesh>
        </geometry>
        <geometry id="ID19">
            <mesh>
                <source id="ID22">
                    <float_array id="ID26" count="675">177.0594 151.1114 10.90551 170.1617 147.1763 3.768525 177.0594 151.1114 3.768525 170.1617 147.1763 10.90551 170.1617 147.1763 10.90551 177.0594 151.1114 10.90551 170.1617 147.1763 3.768525 177.0594 151.1114 3.768525 170.1617 147.1763 10.90551 177.0594 151.1114 10.90551 170.1617 147.1763 3.768525 177.0594 151.1114 3.768525 170.0533 161.4624 3.663481 170.1617 147.1763 10.90551 170.1617 147.1763 3.768525 170.0533 161.4624 10.90551 170.0533 161.4624 10.90551 170.0533 161.4624 3.663481 170.1617 147.1763 10.90551 170.1617 147.1763 3.768525 170.0533 161.4624 3.663481 170.0533 161.4624 10.90551 169.9448 175.7486 3.558436 170.0533 161.4624 10.90551 170.0533 161.4624 3.663481 169.9448 175.7486 10.90551 169.9448 175.7486 10.90551 169.9448 175.7486 3.558436 170.0533 161.4624 10.90551 170.0533 161.4624 3.663481 169.9448 175.7486 10.90551 169.9448 175.7486 3.558436 169.8212 192.0294 3.438726 169.9448 175.7486 10.90551 169.9448 175.7486 3.558436 169.8212 192.0294 10.90551 169.8212 192.0294 10.90551 169.8212 192.0294 3.438726 169.9448 175.7486 10.90551 169.9448 175.7486 3.558436 169.8212 192.0294 10.90551 169.8212 192.0294 3.438726 169.6976 208.3101 3.319016 169.8212 192.0294 10.90551 169.8212 192.0294 3.438726 169.6976 208.3101 10.90551 169.6976 208.3101 10.90551 169.6976 208.3101 3.319016 169.8212 192.0294 10.90551 169.8212 192.0294 3.438726 169.6976 208.3101 10.90551 169.6976 208.3101 3.319016 169.5227 231.35 3.149606 169.6976 208.3101 10.90551 169.6976 208.3101 3.319016 169.5227 231.35 10.90551 169.5227 231.35 10.90551 169.5227 231.35 3.149606 169.6976 208.3101 10.90551 169.6976 208.3101 3.319016 169.5227 231.35 10.90551 169.5227 231.35 3.149606 163.264 258.5831 4.187865 169.5227 231.35 10.90551 169.5227 231.35 3.149606 163.264 258.5831 10.90551 163.264 258.5831 10.90551 163.264 258.5831 4.187865 169.5227 231.35 10.90551 169.5227 231.35 3.149606 163.264 258.5831 4.187865 163.264 258.5831 10.90551 144.2272 279.0384 3.149606 163.264 258.5831 10.90551 163.264 258.5831 4.187865 144.2272 279.0384 10.90551 144.2272 279.0384 10.90551 144.2272 279.0384 3.149606 163.264 258.5831 10.90551 163.264 258.5831 4.187865 144.2272 279.0384 3.149606 144.2272 279.0384 10.90551 117.5133 287.2347 10.90551 144.2272 279.0384 3.149606 117.5133 287.2347 3.149606 144.2272 279.0384 10.90551 144.2272 279.0384 10.90551 117.5133 287.2347 10.90551 144.2272 279.0384 3.149606 117.5133 287.2347 3.149606 117.5133 287.2347 3.149606 117.5133 287.2347 10.90551 103.8715 284.0819 3.668736 117.5133 287.2347 10.90551 117.5133 287.2347 3.149606 90.22975 280.9291 4.187865 100.2057 283.2347 6.6441 100.2057 283.2347 6.6441 90.22975 280.9291 4.187865 117.5133 287.2347 10.90551 103.8715 284.0819 3.668736 117.5133 287.2347 3.149606 100.2057 283.2347 6.6441 103.8715 284.0819 3.668736 90.22975 280.9291 4.187865 90.28018 280.976 10.90551 117.5133 287.2347 10.90551 100.2057 283.2347 6.6441 103.8967 284.1054 10.90551 103.8967 284.1054 10.90551 90.28018 280.976 10.90551 117.5133 287.2347 10.90551 100.2057 283.2347 6.6441 90.28018 280.976 10.90551 103.8967 284.1054 10.90551 90.22975 280.9291 7.546689 100.2057 283.2347 6.6441 90.22975 280.9291 4.187865 90.22975 280.9291 4.187865 100.2057 283.2347 6.6441 90.22975 280.9291 7.546689 90.22975 280.9291 7.546689 90.28018 280.976 10.90551 90.22975 280.9291 7.546689 100.2057 283.2347 6.6441 100.2057 283.2347 6.6441 90.22975 280.9291 7.546689 90.28018 280.976 10.90551 90.22975 280.9291 7.546689 80.02736 271.4342 4.187865 90.22975 280.9291 4.187865 69.82496 261.9392 4.187865 69.82496 261.9392 10.90551 90.22975 280.9291 10.90551 80.02736 271.4342 10.90551 80.02736 271.4342 10.90551 90.22975 280.9291 10.90551 69.82496 261.9392 10.90551 90.22975 280.9291 7.546689 69.82496 261.9392 4.187865 80.02736 271.4342 4.187865 90.22975 280.9291 4.187865 69.82496 261.9392 4.187865 80.02736 271.4342 4.187865 90.22975 280.9291 10.90551 80.02736 271.4342 10.90551 69.82496 261.9392 10.90551 90.22975 280.9291 10.90551 90.22975 280.9291 7.546689 90.28018 280.976 10.90551 90.28018 280.976 10.90551 90.22975 280.9291 7.546689 90.22975 280.9291 10.90551 69.82496 261.9392 4.187865 61.6286 235.2253 10.90551 61.6286 235.2253 4.187865 69.82496 261.9392 10.90551 69.82496 261.9392 10.90551 69.82496 261.9392 4.187865 61.6286 235.2253 10.90551 61.6286 235.2253 4.187865 61.6286 235.2253 4.187865 61.6286 235.2253 10.90551 61.6286 235.2253 4.187865 67.88731 207.9922 10.90551 67.88731 207.9922 4.187865 61.6286 235.2253 10.90551 61.6286 235.2253 10.90551 61.6286 235.2253 4.187865 67.88731 207.9922 10.90551 67.88731 207.9922 4.187865 67.88731 207.9922 4.187865 67.88731 207.9922 10.90551 67.88731 207.9922 4.187865 86.92407 187.537 10.90551 86.92407 187.537 4.187865 67.88731 207.9922 10.90551 67.88731 207.9922 10.90551 67.88731 207.9922 4.187865 86.92407 187.537 10.90551 86.92407 187.537 4.187865 86.92407 187.537 4.187865 86.92407 187.537 10.90551 86.92407 187.537 10.90551 132.504 156.3119 3.914686 156.891 139.6053 3.768525 96.57556 180.9251 4.13002 86.92407 187.537 4.187865 86.92407 187.537 4.187865 86.92407 187.537 10.90551 96.57556 180.9251 4.13002 132.504 156.3119 3.914686 156.891 139.6053 3.768525 156.891 139.6053 3.768525 96.57556 180.9251 4.13002 132.504 156.3119 3.914686 156.3663 139.3059 10.90551 86.92407 187.537 10.90551 156.891 139.6053 3.768525 144.8211 147.3246 10.90551 133.276 155.3433 10.90551 118.5864 165.5459 10.90551 103.8967 175.7486 10.90551 103.8967 175.7486 10.90551 118.5864 165.5459 10.90551 86.92407 187.537 10.90551 133.276 155.3433 10.90551 144.8211 147.3246 10.90551 156.3663 139.3059 10.90551 156.891 139.6053 3.768525 156.3663 139.3059 10.90551 144.8211 147.3246 10.90551 133.276 155.3433 10.90551 118.5864 165.5459 10.90551 103.8967 175.7486 10.90551 156.3663 139.3059 10.90551 149.4685 135.3708 3.768525 156.891 139.6053 3.768525 149.4685 135.3708 10.90551 149.4685 135.3708 10.90551 156.3663 139.3059 10.90551 149.4685 135.3708 3.768525 156.891 139.6053 3.768525 149.4685 135.3708 3.768525 149.4685 135.3708 10.90551</float_array>
                    <technique_common>
                        <accessor count="225" source="#ID26" stride="3">
                            <param name="X" type="float" />
                            <param name="Y" type="float" />
                            <param name="Z" type="float" />
                        </accessor>
                    </technique_common>
                </source>
                <source id="ID23">
                    <float_array id="ID27" count="675">0.4955315 -0.86859 0 0.4955315 -0.86859 0 0.4955315 -0.86859 0 0.4955315 -0.86859 0 -0.4955315 0.86859 -0 -0.4955315 0.86859 -0 -0.4955315 0.86859 -0 -0.4955315 0.86859 -0 0 0 0 0 0 0 0 0 0 0 0 0 0.9999712 0.0075915 1.473234e-19 0.9999712 0.0075915 1.473234e-19 0.9999712 0.0075915 1.473234e-19 0.9999712 0.0075915 1.473234e-19 -0.9999712 -0.0075915 -1.473234e-19 -0.9999712 -0.0075915 -1.473234e-19 -0.9999712 -0.0075915 -1.473234e-19 -0.9999712 -0.0075915 -1.473234e-19 0 0 0 0 0 0 0.9999712 0.0075915 1.961727e-15 0.9999712 0.0075915 1.961727e-15 0.9999712 0.0075915 1.961727e-15 0.9999712 0.0075915 1.961727e-15 -0.9999712 -0.0075915 -1.961727e-15 -0.9999712 -0.0075915 -1.961727e-15 -0.9999712 -0.0075915 -1.961727e-15 -0.9999712 -0.0075915 -1.961727e-15 0 0 0 0 0 0 0.9999712 0.0075915 1.902555e-15 0.9999712 0.0075915 1.902555e-15 0.9999712 0.0075915 1.902555e-15 0.9999712 0.0075915 1.902555e-15 -0.9999712 -0.0075915 -1.902555e-15 -0.9999712 -0.0075915 -1.902555e-15 -0.9999712 -0.0075915 -1.902555e-15 -0.9999712 -0.0075915 -1.902555e-15 0 0 0 0 0 0 0.9999712 0.0075915 -1.774313e-19 0.9999712 0.0075915 -1.774313e-19 0.9999712 0.0075915 -1.774313e-19 0.9999712 0.0075915 -1.774313e-19 -0.9999712 -0.0075915 1.774313e-19 -0.9999712 -0.0075915 1.774313e-19 -0.9999712 -0.0075915 1.774313e-19 -0.9999712 -0.0075915 1.774313e-19 0 0 0 0 0 0 0.9999712 0.0075915 5.685612e-20 0.9999712 0.0075915 5.685612e-20 0.9999712 0.0075915 5.685612e-20 0.9999712 0.0075915 5.685612e-20 -0.9999712 -0.0075915 -5.685612e-20 -0.9999712 -0.0075915 -5.685612e-20 -0.9999712 -0.0075915 -5.685612e-20 -0.9999712 -0.0075915 -5.685612e-20 0 0 0 0 0 0 0.9745936 0.2239808 -1.135219e-17 0.9745936 0.2239808 -1.135219e-17 0.9745936 0.2239808 -1.135219e-17 0.9745936 0.2239808 -1.135219e-17 -0.9745936 -0.2239808 1.135219e-17 -0.9745936 -0.2239808 1.135219e-17 -0.9745936 -0.2239808 1.135219e-17 -0.9745936 -0.2239808 1.135219e-17 0 0 0 0 0 0 0.7320324 0.6812698 3.022754e-17 0.7320324 0.6812698 3.022754e-17 0.7320324 0.6812698 3.022754e-17 0.7320324 0.6812698 3.022754e-17 -0.7320324 -0.6812698 -3.022754e-17 -0.7320324 -0.6812698 -3.022754e-17 -0.7320324 -0.6812698 -3.022754e-17 -0.7320324 -0.6812698 -3.022754e-17 0 0 0 0 0 0 0.2933237 0.9560132 -6.154639e-32 0.2933237 0.9560132 -6.154639e-32 0.2933237 0.9560132 -6.154639e-32 0.2933237 0.9560132 -6.154639e-32 -0.2933237 -0.9560132 6.154639e-32 -0.2933237 -0.9560132 6.154639e-32 -0.2933237 -0.9560132 6.154639e-32 -0.2933237 -0.9560132 6.154639e-32 0 0 0 0 0 0 -0.2251795 0.9743173 -5.936835e-17 -0.2251795 0.9743173 -5.936835e-17 -0.2251795 0.9743173 -5.936835e-17 -0.2251795 0.9743173 -5.936835e-17 -0.2251795 0.9743173 -5.936835e-17 0.2251795 -0.9743173 5.936835e-17 0.2251795 -0.9743173 5.936835e-17 0.2251795 -0.9743173 5.936835e-17 0.2251795 -0.9743173 5.936835e-17 0.2251795 -0.9743173 5.936835e-17 0 0 0 0 0 0 0 0 0 -0.2239778 0.9745807 -0.005128011 -0.2239778 0.9745807 -0.005128011 -0.2239778 0.9745807 -0.005128011 -0.2239778 0.9745807 -0.005128011 0.2239778 -0.9745807 0.005128011 0.2239778 -0.9745807 0.005128011 0.2239778 -0.9745807 0.005128011 0.2239778 -0.9745807 0.005128011 0 0 0 0 0 0 -0.2251795 0.9743173 3.699646e-17 -0.2251795 0.9743173 3.699646e-17 -0.2251795 0.9743173 3.699646e-17 0.2251795 -0.9743173 -3.699646e-17 0.2251795 -0.9743173 -3.699646e-17 0.2251795 -0.9743173 -3.699646e-17 0 0 0 0.2260453 -0.9740632 0.01021774 0.2260453 -0.9740632 0.01021774 0.2260453 -0.9740632 0.01021774 -0.2260453 0.9740632 -0.01021774 -0.2260453 0.9740632 -0.01021774 -0.2260453 0.9740632 -0.01021774 0.6812698 -0.7320324 2.68173e-16 0.6812698 -0.7320324 2.68173e-16 0.6812698 -0.7320324 2.68173e-16 0.6812698 -0.7320324 2.68173e-16 0.6812698 -0.7320324 2.68173e-16 0.6812698 -0.7320324 2.68173e-16 0.6812698 -0.7320324 2.68173e-16 -0.6812698 0.7320324 -2.68173e-16 -0.6812698 0.7320324 -2.68173e-16 -0.6812698 0.7320324 -2.68173e-16 -0.6812698 0.7320324 -2.68173e-16 -0.6812698 0.7320324 -2.68173e-16 -0.6812698 0.7320324 -2.68173e-16 -0.6812698 0.7320324 -2.68173e-16 0 0 0 0 0 0 0 0 0 0 0 0 0 0 0 0.6812698 -0.7320324 -1.037131e-18 0.6812698 -0.7320324 -1.037131e-18 0.6812698 -0.7320324 -1.037131e-18 -0.6812698 0.7320324 1.037131e-18 -0.6812698 0.7320324 1.037131e-18 -0.6812698 0.7320324 1.037131e-18 0.9560132 -0.2933237 -0 0.9560132 -0.2933237 -0 0.9560132 -0.2933237 -0 0.9560132 -0.2933237 -0 -0.9560132 0.2933237 0 -0.9560132 0.2933237 0 -0.9560132 0.2933237 0 -0.9560132 0.2933237 0 0 0 0 0 0 0 0.9745936 0.2239808 -3.526685e-17 0.9745936 0.2239808 -3.526685e-17 0.9745936 0.2239808 -3.526685e-17 0.9745936 0.2239808 -3.526685e-17 -0.9745936 -0.2239808 3.526685e-17 -0.9745936 -0.2239808 3.526685e-17 -0.9745936 -0.2239808 3.526685e-17 -0.9745936 -0.2239808 3.526685e-17 0 0 0 0 0 0 0.7320324 0.6812698 -0 0.7320324 0.6812698 -0 0.7320324 0.6812698 -0 0.7320324 0.6812698 -0 -0.7320324 -0.6812698 0 -0.7320324 -0.6812698 0 -0.7320324 -0.6812698 0 -0.7320324 -0.6812698 0 0 0 0 0 0 0 -0.5651621 -0.8249799 6.521155e-16 -0.5651621 -0.8249799 6.521155e-16 -0.5651621 -0.8249799 6.521155e-16 -0.5651621 -0.8249799 6.521155e-16 -0.5651621 -0.8249799 6.521155e-16 0.5651621 0.8249799 -6.521155e-16 0.5651621 0.8249799 -6.521155e-16 0.5651621 0.8249799 -6.521155e-16 0.5651621 0.8249799 -6.521155e-16 0.5651621 0.8249799 -6.521155e-16 0 0 0 0 0 0 0 0 0 -0.5687967 -0.818943 -0.07617489 -0.5687967 -0.818943 -0.07617489 -0.5687967 -0.818943 -0.07617489 -0.5687967 -0.818943 -0.07617489 -0.5687967 -0.818943 -0.07617489 -0.5687967 -0.818943 -0.07617489 -0.5687967 -0.818943 -0.07617489 0.5687967 0.818943 0.07617489 0.5687967 0.818943 0.07617489 0.5687967 0.818943 0.07617489 0.5687967 0.818943 0.07617489 0.5687967 0.818943 0.07617489 0.5687967 0.818943 0.07617489 0.5687967 0.818943 0.07617489 0 0 0 0 0 0 0 0 0 0 0 0 0 0 0 0.4955315 -0.86859 2.534878e-15 0.4955315 -0.86859 2.534878e-15 0.4955315 -0.86859 2.534878e-15 0.4955315 -0.86859 2.534878e-15 -0.4955315 0.86859 -2.534878e-15 -0.4955315 0.86859 -2.534878e-15 -0.4955315 0.86859 -2.534878e-15 -0.4955315 0.86859 -2.534878e-15 0 0 0 0 0 0</float_array>
                    <technique_common>
                        <accessor count="225" source="#ID27" stride="3">
                            <param name="X" type="float" />
                            <param name="Y" type="float" />
                            <param name="Z" type="float" />
                        </accessor>
                    </technique_common>
                </source>
                <source id="ID24">
                    <Name_array id="ID28" count="0" />
                    <technique_common>
                        <accessor count="0" source="#ID28" stride="1">
                            <param name="skp_material" type="Name" />
                        </accessor>
                    </technique_common>
                </source>
                <vertices id="ID25">
                    <input semantic="POSITION" source="#ID22" />
                    <input semantic="NORMAL" source="#ID23" />
                </vertices>
                <triangles count="47" material="Material3">
                    <input offset="0" semantic="VERTEX" source="#ID25" />
                    <p>0 1 2 1 0 3 12 13 14 13 12 15 22 23 24 23 22 25 32 33 34 33 32 35 42 43 44 43 42 45 52 53 54 53 52 55 62 63 64 63 62 65 72 73 74 73 72 75 82 83 84 83 82 85 92 93 94 93 92 95 93 95 96 105 106 107 106 105 108 115 116 117 122 123 124 128 129 130 129 128 131 131 128 132 132 128 133 132 133 134 147 148 149 153 154 155 154 153 156 163 164 165 164 163 166 173 174 175 174 173 176 183 184 185 184 183 186 186 183 187 196 197 198 197 196 199 197 199 200 197 200 201 197 201 202 215 216 217 216 215 218</p>
                </triangles>
                <triangles count="47" material="Material2">
                    <input offset="0" semantic="VERTEX" source="#ID25" />
                    <p>4 5 6 7 6 5 16 17 18 19 18 17 26 27 28 29 28 27 36 37 38 39 38 37 46 47 48 49 48 47 56 57 58 59 58 57 66 67 68 69 68 67 76 77 78 79 78 77 86 87 88 89 88 87 97 98 99 98 100 99 101 99 100 109 110 111 112 111 110 118 119 120 125 126 127 135 136 137 136 138 137 137 138 139 139 138 140 141 140 138 150 151 152 157 158 159 160 159 158 167 168 169 170 169 168 177 178 179 180 179 178 188 189 190 190 189 191 192 191 189 203 204 205 204 206 205 206 207 205 207 208 205 209 205 208 219 220 221 222 221 220</p>
                </triangles>
                
                
            </mesh>
        </geometry>
        <geometry id="ID29">
            <mesh>
                <source id="ID32">
                    <float_array id="ID36" count="291">149.4685 135.3708 10.90551 159.1212 134.6792 10.90551 156.3663 139.3059 10.90551 186.896 103.535 10.90551 178.1283 118.4463 10.90551 163.264 143.2411 10.90551 173.064 142.9409 10.90551 170.1617 147.1763 10.90551 177.0594 151.1114 10.90551 186.896 103.535 10.90551 178.1283 118.4463 10.90551 177.0594 151.1114 10.90551 173.064 142.9409 10.90551 170.1617 147.1763 10.90551 163.264 143.2411 10.90551 159.1212 134.6792 10.90551 156.3663 139.3059 10.90551 149.4685 135.3708 10.90551 177.0594 151.1114 10.90551 186.896 103.535 10.90551 170.1617 147.1763 10.90551 163.264 143.2411 10.90551 156.3663 139.3059 10.90551 149.4685 135.3708 10.90551 178.1283 118.4463 10.90551 173.064 142.9409 10.90551 159.1212 134.6792 10.90551 185.0637 112.3969 3.768525 186.896 103.535 10.90551 186.896 103.535 3.768525 177.0594 151.1114 10.90551 177.0594 151.1114 3.768525 177.0594 151.1114 3.768525 185.0637 112.3969 3.768525 177.0594 151.1114 10.90551 186.896 103.535 10.90551 186.896 103.535 3.768525 186.896 103.535 3.768525 185.0637 112.3969 3.768525 177.0594 151.1114 3.768525 170.1617 147.1763 10.90551 167.076 145.4159 3.768525 170.1617 147.1763 3.768525 159.1037 140.8677 3.768525 156.891 139.6053 3.768525 156.3663 139.3059 10.90551 163.264 143.2411 10.90551 163.264 143.2411 10.90551 170.1617 147.1763 10.90551 156.3663 139.3059 10.90551 156.891 139.6053 3.768525 159.1037 140.8677 3.768525 167.076 145.4159 3.768525 170.1617 147.1763 3.768525 156.891 139.6053 3.768525 159.1037 140.8677 3.768525 167.076 145.4159 3.768525 170.1617 147.1763 3.768525 186.896 103.535 10.90551 181.203 108.3774 3.768525 186.896 103.535 3.768525 149.4685 135.3708 10.90551 149.4685 135.3708 3.768525 186.896 103.535 10.90551 181.203 108.3774 3.768525 149.4685 135.3708 10.90551 149.4685 135.3708 3.768525 186.896 103.535 3.768525 149.4685 135.3708 3.768525 181.203 108.3774 3.768525 167.076 145.4159 3.768525 159.1212 134.6792 3.768525 159.1037 140.8677 3.768525 173.064 142.9409 3.768525 170.1617 147.1763 3.768525 177.0594 151.1114 3.768525 178.1283 118.4463 3.768525 185.0637 112.3969 3.768525 181.203 108.3774 3.768525 186.896 103.535 3.768525 149.4685 135.3708 3.768525 156.891 139.6053 3.768525 178.1283 118.4463 3.768525 159.1212 134.6792 3.768525 181.203 108.3774 3.768525 159.1037 140.8677 3.768525 156.891 139.6053 3.768525 149.4685 135.3708 3.768525 186.896 103.535 3.768525 185.0637 112.3969 3.768525 177.0594 151.1114 3.768525 173.064 142.9409 3.768525 170.1617 147.1763 3.768525 167.076 145.4159 3.768525 178.1283 118.4463 3.768525 173.064 142.9409 3.768525 159.1212 134.6792 3.768525</float_array>
                    <technique_common>
                        <accessor count="97" source="#ID36" stride="3">
                            <param name="X" type="float" />
                            <param name="Y" type="float" />
                            <param name="Z" type="float" />
                        </accessor>
                    </technique_common>
                </source>
                <source id="ID33">
                    <float_array id="ID37" count="291">-0 -0 1 -0 -0 1 -0 -0 1 -0 -0 1 -0 -0 1 -0 -0 1 -0 -0 1 -0 -0 1 -0 -0 1 0 0 -1 0 0 -1 0 0 -1 0 0 -1 0 0 -1 0 0 -1 0 0 -1 0 0 -1 0 0 -1 0 0 0 0 0 0 0 0 0 0 0 0 0 0 0 0 0 0 0 0 0 0 0 0 0 0 0 0.9792886 0.2024695 -2.174786e-16 0.9792886 0.2024695 -2.174786e-16 0.9792886 0.2024695 -2.174786e-16 0.9792886 0.2024695 -2.174786e-16 0.9792886 0.2024695 -2.174786e-16 -0.9792886 -0.2024695 2.174786e-16 -0.9792886 -0.2024695 2.174786e-16 -0.9792886 -0.2024695 2.174786e-16 -0.9792886 -0.2024695 2.174786e-16 -0.9792886 -0.2024695 2.174786e-16 0 0 0 0 0 0 0 0 0 0.4955315 -0.86859 2.506445e-15 0.4955315 -0.86859 2.506445e-15 0.4955315 -0.86859 2.506445e-15 0.4955315 -0.86859 2.506445e-15 0.4955315 -0.86859 2.506445e-15 0.4955315 -0.86859 2.506445e-15 0.4955315 -0.86859 2.506445e-15 -0.4955315 0.86859 -2.506445e-15 -0.4955315 0.86859 -2.506445e-15 -0.4955315 0.86859 -2.506445e-15 -0.4955315 0.86859 -2.506445e-15 -0.4955315 0.86859 -2.506445e-15 -0.4955315 0.86859 -2.506445e-15 -0.4955315 0.86859 -2.506445e-15 0 0 0 0 0 0 0 0 0 0 0 0 -0.6479142 -0.7617134 -1.796852e-16 -0.6479142 -0.7617134 -1.796852e-16 -0.6479142 -0.7617134 -1.796852e-16 -0.6479142 -0.7617134 -1.796852e-16 -0.6479142 -0.7617134 -1.796852e-16 0.6479142 0.7617134 1.796852e-16 0.6479142 0.7617134 1.796852e-16 0.6479142 0.7617134 1.796852e-16 0.6479142 0.7617134 1.796852e-16 0.6479142 0.7617134 1.796852e-16 0 0 0 0 0 0 3.031299e-17 -6.585627e-17 -1 3.031299e-17 -6.585627e-17 -1 3.031299e-17 -6.585627e-17 -1 3.031299e-17 -6.585627e-17 -1 3.031299e-17 -6.585627e-17 -1 3.031299e-17 -6.585627e-17 -1 3.031299e-17 -6.585627e-17 -1 3.031299e-17 -6.585627e-17 -1 3.031299e-17 -6.585627e-17 -1 3.031299e-17 -6.585627e-17 -1 3.031299e-17 -6.585627e-17 -1 3.031299e-17 -6.585627e-17 -1 -3.031299e-17 6.585627e-17 1 -3.031299e-17 6.585627e-17 1 -3.031299e-17 6.585627e-17 1 -3.031299e-17 6.585627e-17 1 -3.031299e-17 6.585627e-17 1 -3.031299e-17 6.585627e-17 1 -3.031299e-17 6.585627e-17 1 -3.031299e-17 6.585627e-17 1 -3.031299e-17 6.585627e-17 1 -3.031299e-17 6.585627e-17 1 -3.031299e-17 6.585627e-17 1 -3.031299e-17 6.585627e-17 1 0 0 0 0 0 0 0 0 0</float_array>
                    <technique_common>
                        <accessor count="97" source="#ID37" stride="3">
                            <param name="X" type="float" />
                            <param name="Y" type="float" />
                            <param name="Z" type="float" />
                        </accessor>
                    </technique_common>
                </source>
                <source id="ID34">
                    <Name_array id="ID38" count="0" />
                    <technique_common>
                        <accessor count="0" source="#ID38" stride="1">
                            <param name="skp_material" type="Name" />
                        </accessor>
                    </technique_common>
                </source>
                <vertices id="ID35">
                    <input semantic="POSITION" source="#ID32" />
                    <input semantic="NORMAL" source="#ID33" />
                </vertices>
                <triangles count="32" material="Material4">
                    <input offset="0" semantic="VERTEX" source="#ID35" />
                    <p>0 1 2 1 0 3 1 3 4 1 5 2 5 1 6 5 6 7 7 6 8 8 6 4 8 4 3 27 28 29 28 27 30 30 27 31 47 48 49 49 48 50 50 48 51 51 48 52 53 52 48 58 59 60 59 61 62 61 59 58 70 71 72 71 70 73 73 70 74 73 74 75 73 75 76 76 75 77 76 77 78 78 77 79 80 71 78 71 80 81 71 81 72 78 71 76</p>
                </triangles>
                <triangles count="27" material="Material2">
                    <input offset="0" semantic="VERTEX" source="#ID35" />
                    <p>9 10 11 10 12 11 11 12 13 13 12 14 12 15 14 16 14 15 10 9 15 9 17 15 16 15 17 32 33 34 34 33 35 36 35 33 63 64 65 66 65 64 67 64 63 82 83 84 85 86 83 86 87 83 84 83 87 88 89 84 84 89 82 89 90 82 82 90 91 90 92 91 92 93 91 91 93 83 85 83 93</p>
                </triangles>
                
                <triangles count="5" material="Material3">
                    <input offset="0" semantic="VERTEX" source="#ID35" />
                    <p>40 41 42 41 40 43 43 40 44 44 40 45 45 40 46</p>
                </triangles>
            </mesh>
        </geometry>
        <geometry id="ID39">
            <mesh>
                <source id="ID42">
                    <float_array id="ID46" count="108">230.7024 33.47194 2.863014 226.0672 30.79163 2.863014 228.3848 32.13178 2.145669 232.399 34.453 4.822835 224.3706 29.81057 4.822835 233.02 34.81209 7.5 223.7496 29.45148 7.5 232.399 34.453 10.17717 224.3706 29.81057 10.17717 230.7024 33.47194 12.13699 226.0672 30.79163 12.13699 228.3848 32.13178 12.85433 228.3848 32.13178 12.85433 230.7024 33.47194 12.13699 226.0672 30.79163 12.13699 224.3706 29.81057 10.17717 232.399 34.453 10.17717 223.7496 29.45148 7.5 233.02 34.81209 7.5 224.3706 29.81057 4.822835 232.399 34.453 4.822835 226.0672 30.79163 2.863014 230.7024 33.47194 2.863014 228.3848 32.13178 2.145669 230.7024 33.47194 12.13699 228.3848 32.13178 12.85433 226.0672 30.79163 12.13699 224.3706 29.81057 10.17717 223.7496 29.45148 7.5 224.3706 29.81057 4.822835 226.0672 30.79163 2.863014 228.3848 32.13178 2.145669 230.7024 33.47194 2.863014 232.399 34.453 4.822835 233.02 34.81209 7.5 232.399 34.453 10.17717</float_array>
                    <technique_common>
                        <accessor count="36" source="#ID46" stride="3">
                            <param name="X" type="float" />
                            <param name="Y" type="float" />
                            <param name="Z" type="float" />
                        </accessor>
                    </technique_common>
                </source>
                <source id="ID43">
                    <float_array id="ID47" count="108">0.5005863 -0.8656866 -7.715794e-16 0.5005863 -0.8656866 -7.715794e-16 0.5005863 -0.8656866 -7.715794e-16 0.5005863 -0.8656866 -7.715794e-16 0.5005863 -0.8656866 -7.715794e-16 0.5005863 -0.8656866 -7.715794e-16 0.5005863 -0.8656866 -7.715794e-16 0.5005863 -0.8656866 -7.715794e-16 0.5005863 -0.8656866 -7.715794e-16 0.5005863 -0.8656866 -7.715794e-16 0.5005863 -0.8656866 -7.715794e-16 0.5005863 -0.8656866 -7.715794e-16 -0.5005863 0.8656866 7.715794e-16 -0.5005863 0.8656866 7.715794e-16 -0.5005863 0.8656866 7.715794e-16 -0.5005863 0.8656866 7.715794e-16 -0.5005863 0.8656866 7.715794e-16 -0.5005863 0.8656866 7.715794e-16 -0.5005863 0.8656866 7.715794e-16 -0.5005863 0.8656866 7.715794e-16 -0.5005863 0.8656866 7.715794e-16 -0.5005863 0.8656866 7.715794e-16 -0.5005863 0.8656866 7.715794e-16 -0.5005863 0.8656866 7.715794e-16 0 0 0 0 0 0 0 0 0 0 0 0 0 0 0 0 0 0 0 0 0 0 0 0 0 0 0 0 0 0 0 0 0 0 0 0</float_array>
                    <technique_common>
                        <accessor count="36" source="#ID47" stride="3">
                            <param name="X" type="float" />
                            <param name="Y" type="float" />
                            <param name="Z" type="float" />
                        </accessor>
                    </technique_common>
                </source>
                <source id="ID44">
                    <Name_array id="ID48" count="0" />
                    <technique_common>
                        <accessor count="0" source="#ID48" stride="1">
                            <param name="skp_material" type="Name" />
                        </accessor>
                    </technique_common>
                </source>
                <vertices id="ID45">
                    <input semantic="POSITION" source="#ID42" />
                    <input semantic="NORMAL" source="#ID43" />
                </vertices>
                <triangles count="10" material="Material3">
                    <input offset="0" semantic="VERTEX" source="#ID45" />
                    <p>0 1 2 1 0 3 1 3 4 4 3 5 4 5 6 6 5 7 6 7 8 8 7 9 8 9 10 10 9 11</p>
                </triangles>
                <triangles count="10" material="Material2">
                    <input offset="0" semantic="VERTEX" source="#ID45" />
                    <p>12 13 14 14 13 15 13 16 15 15 16 17 16 18 17 17 18 19 18 20 19 19 20 21 20 22 21 23 21 22</p>
                </triangles>
                
            </mesh>
        </geometry>
        <geometry id="ID49">
            <mesh>
                <source id="ID52">
                    <float_array id="ID56" count="330">224.3706 29.81057 10.17717 179.5166 111.2937 12.13699 177.82 110.3126 10.17717 226.0672 30.79163 12.13699 226.0672 30.79163 12.13699 224.3706 29.81057 10.17717 179.5166 111.2937 12.13699 177.82 110.3126 10.17717 179.5166 111.2937 12.13699 177.82 110.3126 10.17717 224.3706 29.81057 10.17717 226.0672 30.79163 12.13699 179.5166 111.2937 2.863014 184.1518 113.974 2.863014 181.8342 112.6338 2.145669 185.8484 114.955 4.822835 177.82 110.3126 4.822835 186.4694 115.3141 7.5 177.199 109.9535 7.5 185.8484 114.955 10.17717 177.82 110.3126 10.17717 184.1518 113.974 12.13699 179.5166 111.2937 12.13699 181.8342 112.6338 12.85433 181.8342 112.6338 12.85433 179.5166 111.2937 12.13699 184.1518 113.974 12.13699 177.82 110.3126 10.17717 185.8484 114.955 10.17717 177.199 109.9535 7.5 186.4694 115.3141 7.5 177.82 110.3126 4.822835 185.8484 114.955 4.822835 179.5166 111.2937 2.863014 184.1518 113.974 2.863014 181.8342 112.6338 2.145669 181.8342 112.6338 12.85433 184.1518 113.974 12.13699 185.8484 114.955 10.17717 186.4694 115.3141 7.5 185.8484 114.955 4.822835 184.1518 113.974 2.863014 181.8342 112.6338 2.145669 179.5166 111.2937 2.863014 177.82 110.3126 4.822835 177.199 109.9535 7.5 177.199 109.9535 7.5 223.7496 29.45148 7.5 177.199 109.9535 7.5 223.7496 29.45148 7.5 223.7496 29.45148 7.5 181.8342 112.6338 12.85433 228.3848 32.13178 12.85433 228.3848 32.13178 12.85433 181.8342 112.6338 12.85433 228.3848 32.13178 12.85433 228.3848 32.13178 12.85433 184.1518 113.974 12.13699 181.8342 112.6338 12.85433 230.7024 33.47194 12.13699 230.7024 33.47194 12.13699 228.3848 32.13178 12.85433 184.1518 113.974 12.13699 181.8342 112.6338 12.85433 230.7024 33.47194 12.13699 185.8484 114.955 10.17717 232.399 34.453 10.17717 232.399 34.453 10.17717 185.8484 114.955 10.17717 232.399 34.453 10.17717 233.02 34.81209 7.5 186.4694 115.3141 7.5 186.4694 115.3141 7.5 233.02 34.81209 7.5 233.02 34.81209 7.5 185.8484 114.955 4.822835 232.399 34.453 4.822835 185.8484 114.955 4.822835 232.399 34.453 4.822835 232.399 34.453 4.822835 185.0637 112.3969 2.863014 184.1518 113.974 2.863014 230.7024 33.47194 2.863014 230.7024 33.47194 2.863014 185.0637 112.3969 2.863014 184.1518 113.974 2.863014 230.7024 33.47194 2.863014 185.0637 112.3969 2.863014 228.3848 32.13178 2.145669 181.8342 112.6338 2.145669 228.3848 32.13178 2.145669 181.8342 112.6338 2.145669 228.3848 32.13178 2.145669 181.8342 112.6338 2.145669 181.203 108.3774 2.863014 179.5166 111.2937 2.863014 226.0672 30.79163 2.863014 228.3848 32.13178 2.145669 228.3848 32.13178 2.145669 181.8342 112.6338 2.145669 226.0672 30.79163 2.863014 181.203 108.3774 2.863014 179.5166 111.2937 2.863014 226.0672 30.79163 2.863014 181.203 108.3774 2.863014 224.3706 29.81057 4.822835 177.82 110.3126 4.822835 224.3706 29.81057 4.822835 177.82 110.3126 4.822835 224.3706 29.81057 4.822835</float_array>
                    <technique_common>
                        <accessor count="110" source="#ID56" stride="3">
                            <param name="X" type="float" />
                            <param name="Y" type="float" />
                            <param name="Z" type="float" />
                        </accessor>
                    </technique_common>
                </source>
                <source id="ID53">
                    <float_array id="ID57" count="330">-0.7497066 -0.4335205 0.5 -0.4328433 -0.2502932 0.8660254 -0.7497066 -0.4335205 0.5 -0.4328433 -0.2502932 0.8660254 0.4328433 0.2502932 -0.8660254 0.7497066 0.4335205 -0.5 0.4328433 0.2502932 -0.8660254 0.7497066 0.4335205 -0.5 0 0 0 0 0 0 0 0 0 0 0 0 -0.5005863 0.8656866 7.715794e-16 -0.5005863 0.8656866 7.715794e-16 -0.5005863 0.8656866 7.715794e-16 -0.5005863 0.8656866 7.715794e-16 -0.5005863 0.8656866 7.715794e-16 -0.5005863 0.8656866 7.715794e-16 -0.5005863 0.8656866 7.715794e-16 -0.5005863 0.8656866 7.715794e-16 -0.5005863 0.8656866 7.715794e-16 -0.5005863 0.8656866 7.715794e-16 -0.5005863 0.8656866 7.715794e-16 -0.5005863 0.8656866 7.715794e-16 0.5005863 -0.8656866 -7.715794e-16 0.5005863 -0.8656866 -7.715794e-16 0.5005863 -0.8656866 -7.715794e-16 0.5005863 -0.8656866 -7.715794e-16 0.5005863 -0.8656866 -7.715794e-16 0.5005863 -0.8656866 -7.715794e-16 0.5005863 -0.8656866 -7.715794e-16 0.5005863 -0.8656866 -7.715794e-16 0.5005863 -0.8656866 -7.715794e-16 0.5005863 -0.8656866 -7.715794e-16 0.5005863 -0.8656866 -7.715794e-16 0.5005863 -0.8656866 -7.715794e-16 0 0 0 0 0 0 0 0 0 0 0 0 0 0 0 0 0 0 0 0 0 0 0 0 0 0 0 0 0 0 -0.8656866 -0.5005863 1.646376e-16 -0.8656866 -0.5005863 -1.097584e-16 0.8656866 0.5005863 -1.646376e-16 0.8656866 0.5005863 1.097584e-16 0 0 0 -0.2240562 -0.1295613 0.9659258 -0.2240562 -0.1295613 0.9659258 0.2240562 0.1295613 -0.9659258 0.2240562 0.1295613 -0.9659258 0 0 0 0.2240562 0.1295613 0.9659258 0.4328433 0.2502932 0.8660254 0.2240562 0.1295613 0.9659258 0.4328433 0.2502932 0.8660254 -0.4328433 -0.2502932 -0.8660254 -0.2240562 -0.1295613 -0.9659258 -0.4328433 -0.2502932 -0.8660254 -0.2240562 -0.1295613 -0.9659258 0 0 0 0.7497066 0.4335205 0.5 0.7497066 0.4335205 0.5 -0.7497066 -0.4335205 -0.5 -0.7497066 -0.4335205 -0.5 0 0 0 0.8656866 0.5005863 -2.012238e-16 0.8656866 0.5005863 5.487921e-17 -0.8656866 -0.5005863 -5.487921e-17 -0.8656866 -0.5005863 2.012238e-16 0 0 0 0.7497066 0.4335205 -0.5 0.7497066 0.4335205 -0.5 -0.7497066 -0.4335205 0.5 -0.7497066 -0.4335205 0.5 0 0 0 0.4328433 0.2502932 -0.8660254 0.4328433 0.2502932 -0.8660254 0.4328433 0.2502932 -0.8660254 -0.4328433 -0.2502932 0.8660254 -0.4328433 -0.2502932 0.8660254 -0.4328433 -0.2502932 0.8660254 0 0 0 0 0 0 0.2240562 0.1295613 -0.9659258 0.2240562 0.1295613 -0.9659258 -0.2240562 -0.1295613 0.9659258 -0.2240562 -0.1295613 0.9659258 0 0 0 -0.2240562 -0.1295613 -0.9659258 -0.4328433 -0.2502932 -0.8660254 -0.4328433 -0.2502932 -0.8660254 -0.4328433 -0.2502932 -0.8660254 -0.2240562 -0.1295613 -0.9659258 0.2240562 0.1295613 0.9659258 0.2240562 0.1295613 0.9659258 0.4328433 0.2502932 0.8660254 0.4328433 0.2502932 0.8660254 0.4328433 0.2502932 0.8660254 0 0 0 0 0 0 -0.7497066 -0.4335205 -0.5 -0.7497066 -0.4335205 -0.5 0.7497066 0.4335205 0.5 0.7497066 0.4335205 0.5 0 0 0</float_array>
                    <technique_common>
                        <accessor count="110" source="#ID57" stride="3">
                            <param name="X" type="float" />
                            <param name="Y" type="float" />
                            <param name="Z" type="float" />
                        </accessor>
                    </technique_common>
                </source>
                <source id="ID54">
                    <Name_array id="ID58" count="0" />
                    <technique_common>
                        <accessor count="0" source="#ID58" stride="1">
                            <param name="skp_material" type="Name" />
                        </accessor>
                    </technique_common>
                </source>
                <vertices id="ID55">
                    <input semantic="POSITION" source="#ID52" />
                    <input semantic="NORMAL" source="#ID53" />
                </vertices>
                <triangles count="38" material="Material3">
                    <input offset="0" semantic="VERTEX" source="#ID55" />
                    <p>0 1 2 1 0 3 12 13 14 13 12 15 15 12 16 15 16 17 17 16 18 17 18 19 19 18 20 19 20 21 21 20 22 21 22 23 0 46 47 46 0 2 3 51 1 51 3 52 56 57 58 57 56 59 59 65 57 65 59 66 70 65 66 65 70 71 75 70 76 70 75 71 75 80 81 80 75 82 82 75 76 81 88 89 88 81 80 88 80 82 93 94 95 94 93 96 96 93 97 95 105 106 105 95 94 105 94 96 46 105 47 105 46 106</p>
                </triangles>
                <triangles count="38" material="Material2">
                    <input offset="0" semantic="VERTEX" source="#ID55" />
                    <p>4 5 6 7 6 5 24 25 26 25 27 26 26 27 28 27 29 28 28 29 30 29 31 30 30 31 32 31 33 32 32 33 34 35 34 33 7 5 48 49 48 5 53 4 54 6 54 4 60 61 62 63 62 61 67 60 68 62 68 60 72 73 68 67 68 73 72 77 73 78 73 77 78 77 83 83 77 84 85 84 77 83 84 90 84 85 90 91 90 85 98 99 100 100 99 101 102 101 99 100 101 107 101 102 107 108 107 102 108 48 107 49 107 48</p>
                </triangles>
                
            </mesh>
        </geometry>
        <geometry id="ID59">
            <mesh>
                <source id="ID60">
                    <float_array id="ID64" count="66">173.064 142.9409 10.90551 159.1212 134.6792 3.768525 173.064 142.9409 3.768525 159.1212 134.6792 10.90551 159.1212 134.6792 10.90551 173.064 142.9409 10.90551 159.1212 134.6792 3.768525 173.064 142.9409 3.768525 159.1212 134.6792 3.768525 173.064 142.9409 3.768525 173.064 142.9409 10.90551 159.1212 134.6792 10.90551 159.1212 134.6792 10.90551 178.1283 118.4463 3.768525 159.1212 134.6792 3.768525 178.1283 118.4463 10.90551 178.1283 118.4463 10.90551 159.1212 134.6792 10.90551 178.1283 118.4463 3.768525 159.1212 134.6792 3.768525 178.1283 118.4463 3.768525 178.1283 118.4463 10.90551</float_array>
                    <technique_common>
                        <accessor count="22" source="#ID64" stride="3">
                            <param name="X" type="float" />
                            <param name="Y" type="float" />
                            <param name="Z" type="float" />
                        </accessor>
                    </technique_common>
                </source>
                <source id="ID61">
                    <float_array id="ID65" count="66">0.509769 -0.8603113 0 0.509769 -0.8603113 0 0.509769 -0.8603113 0 0.509769 -0.8603113 0 -0.509769 0.8603113 -0 -0.509769 0.8603113 -0 -0.509769 0.8603113 -0 -0.509769 0.8603113 -0 0 0 0 0 0 0 0 0 0 0 0 0 0.6494336 0.7604183 -0 0.6494336 0.7604183 -0 0.6494336 0.7604183 -0 0.6494336 0.7604183 -0 -0.6494336 -0.7604183 0 -0.6494336 -0.7604183 0 -0.6494336 -0.7604183 0 -0.6494336 -0.7604183 0 0 0 0 0 0 0</float_array>
                    <technique_common>
                        <accessor count="22" source="#ID65" stride="3">
                            <param name="X" type="float" />
                            <param name="Y" type="float" />
                            <param name="Z" type="float" />
                        </accessor>
                    </technique_common>
                </source>
                <source id="ID62">
                    <Name_array id="ID66" count="0" />
                    <technique_common>
                        <accessor count="0" source="#ID66" stride="1">
                            <param name="skp_material" type="Name" />
                        </accessor>
                    </technique_common>
                </source>
                <vertices id="ID63">
                    <input semantic="POSITION" source="#ID60" />
                    <input semantic="NORMAL" source="#ID61" />
                </vertices>
                <triangles count="4" material="Material3">
                    <input offset="0" semantic="VERTEX" source="#ID63" />
                    <p>0 1 2 1 0 3 12 13 14 13 12 15</p>
                </triangles>
                <triangles count="4" material="Material2">
                    <input offset="0" semantic="VERTEX" source="#ID63" />
                    <p>4 5 6 7 6 5 16 17 18 19 18 17</p>
                </triangles>
                
            </mesh>
        </geometry>
        <geometry id="ID67">
            <mesh>
                <source id="ID68">
                    <float_array id="ID72" count="36">173.064 142.9409 10.90551 178.1283 118.4463 3.768525 178.1283 118.4463 10.90551 173.064 142.9409 3.768525 173.064 142.9409 3.768525 173.064 142.9409 10.90551 178.1283 118.4463 3.768525 178.1283 118.4463 10.90551 178.1283 118.4463 3.768525 173.064 142.9409 3.768525 178.1283 118.4463 10.90551 173.064 142.9409 10.90551</float_array>
                    <technique_common>
                        <accessor count="12" source="#ID72" stride="3">
                            <param name="X" type="float" />
                            <param name="Y" type="float" />
                            <param name="Z" type="float" />
                        </accessor>
                    </technique_common>
                </source>
                <source id="ID69">
                    <float_array id="ID73" count="36">-0.9792886 -0.2024695 0 -0.9792886 -0.2024695 0 -0.9792886 -0.2024695 0 -0.9792886 -0.2024695 0 0.9792886 0.2024695 -0 0.9792886 0.2024695 -0 0.9792886 0.2024695 -0 0.9792886 0.2024695 -0 0 0 0 0 0 0 0 0 0 0 0 0</float_array>
                    <technique_common>
                        <accessor count="12" source="#ID73" stride="3">
                            <param name="X" type="float" />
                            <param name="Y" type="float" />
                            <param name="Z" type="float" />
                        </accessor>
                    </technique_common>
                </source>
                <source id="ID70">
                    <Name_array id="ID74" count="0" />
                    <technique_common>
                        <accessor count="0" source="#ID74" stride="1">
                            <param name="skp_material" type="Name" />
                        </accessor>
                    </technique_common>
                </source>
                <vertices id="ID71">
                    <input semantic="POSITION" source="#ID68" />
                    <input semantic="NORMAL" source="#ID69" />
                </vertices>
                <triangles count="2" material="Material3">
                    <input offset="0" semantic="VERTEX" source="#ID71" />
                    <p>0 1 2 1 0 3</p>
                </triangles>
                <triangles count="2" material="Material2">
                    <input offset="0" semantic="VERTEX" source="#ID71" />
                    <p>4 5 6 7 6 5</p>
                </triangles>
                
            </mesh>
        </geometry>
        <geometry id="ID75">
            <mesh>
                <source id="ID76">
                    <float_array id="ID78" count="6">185.0637 112.3969 3.768525 185.0637 112.3969 2.863014</float_array>
                    <technique_common>
                        <accessor count="2" source="#ID78" stride="3">
                            <param name="X" type="float" />
                            <param name="Y" type="float" />
                            <param name="Z" type="float" />
                        </accessor>
                    </technique_common>
                </source>
                <vertices id="ID77">
                    <input semantic="POSITION" source="#ID76" />
                </vertices>
                
            </mesh>
        </geometry>
        <geometry id="ID79">
            <mesh>
                <source id="ID80">
                    <float_array id="ID82" count="6">181.203 108.3774 3.768525 181.203 108.3774 2.863014</float_array>
                    <technique_common>
                        <accessor count="2" source="#ID82" stride="3">
                            <param name="X" type="float" />
                            <param name="Y" type="float" />
                            <param name="Z" type="float" />
                        </accessor>
                    </technique_common>
                </source>
                <vertices id="ID81">
                    <input semantic="POSITION" source="#ID80" />
                </vertices>
                
            </mesh>
        </geometry>
        <geometry id="ID83">
            <mesh>
                <source id="ID84">
                    <float_array id="ID86" count="225">157.3687 154.3552 10.90551 163.264 143.2411 10.90551 164.6997 158.4628 10.90551 159.2221 169.7817 10.90551 169.9448 175.7486 10.90551 163.7612 188.8969 10.90551 152.7308 183.1953 10.90551 144.3648 178.8709 10.90551 137.2628 192.2598 10.90551 146.2032 196.6839 10.90551 157.4756 202.2621 10.90551 169.6976 208.3101 10.90551 162.7032 227.7327 10.90551 153.4652 253.3855 10.90551 137.4321 244.881 10.90551 125.932 269.3339 10.90551 144.2272 279.0384 10.90551 114.086 263.0504 10.90551 125.8515 238.7383 10.90551 115.5169 233.2565 10.90551 105.2358 227.8031 10.90551 93.76593 221.7191 10.90551 77.39736 213.0366 10.90551 67.88731 207.9922 10.90551 93.16612 190.848 10.90551 107.5883 198.4979 10.90551 117.2086 182.336 10.90551 128.3264 187.8376 10.90551 136.004 174.5492 10.90551 125.1755 168.9519 10.90551 118.5864 165.5459 10.90551 118.5864 165.5459 3.996667 169.8212 192.0294 3.438726 116.6162 162.7718 3.98879 133.276 155.3433 10.90551 133.276 155.3433 3.90796 169.9448 175.7486 3.558436 157.4756 202.2621 3.461285 103.8967 175.7486 4.085373 103.8967 175.7486 10.90551 117.5133 287.2347 3.149606 69.82496 261.9392 4.187865 169.6976 208.3101 3.319016 144.2272 279.0384 3.149606 61.6286 235.2253 4.187865 96.57556 180.9251 4.13002 143.7371 161.1646 10.90551 150.0429 150.2504 10.90551 144.8211 147.3246 10.90551 144.8211 147.3246 3.838243 170.0533 161.4624 3.663481 156.3663 139.3059 10.90551 151.4732 165.4696 10.90551 118.7474 204.4171 10.90551 128.1646 209.4123 10.90551 137.617 214.4262 10.90551 148.9322 220.4281 10.90551 86.92407 187.537 10.90551 61.6286 235.2253 10.90551 79.94361 244.9402 10.90551 91.72425 251.189 10.90551 81.8331 268.3088 10.90551 93.61034 274.5558 10.90551 105.473 280.8482 10.90551 117.5133 287.2347 10.90551 103.8967 284.1054 10.90551 90.22975 280.9291 10.90551 102.8691 257.1007 10.90551 80.02736 271.4342 10.90551 69.82496 261.9392 10.90551 163.264 258.5831 10.90551 169.5227 231.35 10.90551 169.8212 192.0294 10.90551 170.1617 147.1763 10.90551 170.0533 161.4624 10.90551</float_array>
                    <technique_common>
                        <accessor count="75" source="#ID86" stride="3">
                            <param name="X" type="float" />
                            <param name="Y" type="float" />
                            <param name="Z" type="float" />
                        </accessor>
                    </technique_common>
                </source>
                <vertices id="ID85">
                    <input semantic="POSITION" source="#ID84" />
                </vertices>
                
            </mesh>
        </geometry>
        <geometry id="ID87">
            <mesh>
                <source id="ID88">
                    <float_array id="ID90" count="6">86.92407 187.537 4.187865 169.5227 231.35 3.149606</float_array>
                    <technique_common>
                        <accessor count="2" source="#ID90" stride="3">
                            <param name="X" type="float" />
                            <param name="Y" type="float" />
                            <param name="Z" type="float" />
                        </accessor>
                    </technique_common>
                </source>
                <vertices id="ID89">
                    <input semantic="POSITION" source="#ID88" />
                </vertices>
                
            </mesh>
        </geometry>
        <geometry id="ID91">
            <mesh>
                <source id="ID92">
                    <float_array id="ID94" count="6">163.264 258.5831 4.187865 67.88731 207.9922 4.187865</float_array>
                    <technique_common>
                        <accessor count="2" source="#ID94" stride="3">
                            <param name="X" type="float" />
                            <param name="Y" type="float" />
                            <param name="Z" type="float" />
                        </accessor>
                    </technique_common>
                </source>
                <vertices id="ID93">
                    <input semantic="POSITION" source="#ID92" />
                </vertices>
                
            </mesh>
        </geometry>
        <geometry id="ID95">
            <mesh>
                <source id="ID96">
                    <float_array id="ID98" count="6">167.076 145.4159 3.768525 103.8715 284.0819 3.668736</float_array>
                    <technique_common>
                        <accessor count="2" source="#ID98" stride="3">
                            <param name="X" type="float" />
                            <param name="Y" type="float" />
                            <param name="Z" type="float" />
                        </accessor>
                    </technique_common>
                </source>
                <vertices id="ID97">
                    <input semantic="POSITION" source="#ID96" />
                </vertices>
                
            </mesh>
        </geometry>
        <geometry id="ID99">
            <mesh>
                <source id="ID100">
                    <float_array id="ID102" count="6">90.22975 280.9291 4.187865 159.1037 140.8677 3.768525</float_array>
                    <technique_common>
                        <accessor count="2" source="#ID102" stride="3">
                            <param name="X" type="float" />
                            <param name="Y" type="float" />
                            <param name="Z" type="float" />
                        </accessor>
                    </technique_common>
                </source>
                <vertices id="ID101">
                    <input semantic="POSITION" source="#ID100" />
                </vertices>
                
            </mesh>
        </geometry>
        <geometry id="ID103">
            <mesh>
                <source id="ID104">
                    <float_array id="ID106" count="6">156.891 139.6053 3.768525 80.02736 271.4342 4.187865</float_array>
                    <technique_common>
                        <accessor count="2" source="#ID106" stride="3">
                            <param name="X" type="float" />
                            <param name="Y" type="float" />
                            <param name="Z" type="float" />
                        </accessor>
                    </technique_common>
                </source>
                <vertices id="ID105">
                    <input semantic="POSITION" source="#ID104" />
                </vertices>
                
            </mesh>
        </geometry>
        <geometry id="ID107">
            <mesh>
                <source id="ID108">
                    <float_array id="ID110" count="6">69.18411 261.5225 3.914686 132.504 156.3119 3.914686</float_array>
                    <technique_common>
                        <accessor count="2" source="#ID110" stride="3">
                            <param name="X" type="float" />
                            <param name="Y" type="float" />
                            <param name="Z" type="float" />
                        </accessor>
                    </technique_common>
                </source>
                <vertices id="ID109">
                    <input semantic="POSITION" source="#ID108" />
                </vertices>
                
            </mesh>
        </geometry>
    </library_geometries>
    <library_materials>
        <material id="ID4" name="Color_A04">
            <instance_effect url="#ID5" />
        </material>
        <material id="ID11" name="material">
            <instance_effect url="#ID10" />
        </material>
        <material id="ID12" name="edge_color000255">
            <instance_effect url="#ID13" />
        </material>
        <material id="ID14" name="edge_color2555050255">
            <instance_effect url="#ID15" />
        </material>
        <material id="ID21" name="material_0">
            <instance_effect url="#ID20" />
        </material>
        <material id="ID30" name="Color_M03">
            <instance_effect url="#ID31" />
        </material>
        <material id="ID40" name="Color_M00">
            <instance_effect url="#ID41" />
        </material>
        <material id="ID50" name="Color_M08">
            <instance_effect url="#ID51" />
        </material>
    </library_materials>
    <library_effects>
        <effect id="ID5">
            <profile_COMMON>
                <technique sid="COMMON">
                    <lambert>
                        <diffuse>
                            <color>1 0.1960784 0.1960784 1</color>
                        </diffuse>
                    </lambert>
                </technique>
            </profile_COMMON>
        </effect>
        <effect id="ID10">
            <profile_COMMON>
                <technique sid="COMMON">
                    <lambert>
                        <diffuse>
                            <color>0.6431373 0.6980392 0.7333333 1</color>
                        </diffuse>
                    </lambert>
                </technique>
            </profile_COMMON>
        </effect>
        <effect id="ID13">
            <profile_COMMON>
                <technique sid="COMMON">
                    <constant>
                        <transparent opaque="A_ONE">
                            <color>0 0 0 1</color>
                        </transparent>
                        <transparency>
                            <float>1</float>
                        </transparency>
                    </constant>
                </technique>
            </profile_COMMON>
        </effect>
        <effect id="ID15">
            <profile_COMMON>
                <technique sid="COMMON">
                    <constant>
                        <transparent opaque="A_ONE">
                            <color>1 0.1960784 0.1960784 1</color>
                        </transparent>
                        <transparency>
                            <float>1</float>
                        </transparency>
                    </constant>
                </technique>
            </profile_COMMON>
        </effect>
        <effect id="ID20">
            <profile_COMMON>
                <technique sid="COMMON">
                    <lambert>
                        <diffuse>
                            <color>1 1 1 1</color>
                        </diffuse>
                    </lambert>
                </technique>
            </profile_COMMON>
        </effect>
        <effect id="ID31">
            <profile_COMMON>
                <technique sid="COMMON">
                    <lambert>
                        <diffuse>
                            <color>0.6666667 0.6666667 0.6666667 1</color>
                        </diffuse>
                    </lambert>
                </technique>
            </profile_COMMON>
        </effect>
        <effect id="ID41">
            <profile_COMMON>
                <technique sid="COMMON">
                    <lambert>
                        <diffuse>
                            <color>1 1 1 1</color>
                        </diffuse>
                    </lambert>
                </technique>
            </profile_COMMON>
        </effect>
        <effect id="ID51">
            <profile_COMMON>
                <technique sid="COMMON">
                    <lambert>
                        <diffuse>
                            <color>0.1176471 0.1176471 0.1176471 1</color>
                        </diffuse>
                    </lambert>
                </technique>
            </profile_COMMON>
        </effect>
    </library_effects>
    <scene>
        <instance_visual_scene url="#ID2" />
    </scene>
</COLLADA>
