<?xml version="1.0" encoding="utf-8"?>
<COLLADA xmlns="http://www.collada.org/2005/11/COLLADASchema" version="1.4.1" xmlns:xsi="http://www.w3.org/2001/XMLSchema-instance">
  <asset>
    <contributor>
      <author>Blender User</author>
      <authoring_tool>Blender 4.5.7 LTS commit date:2026-02-16, commit time:13:34, hash:a9874eeece8d</authoring_tool>
    </contributor>
    <created>2026-03-03T10:24:05</created>
    <modified>2026-03-03T10:24:05</modified>
    <unit name="meter" meter="1"/>
    <up_axis>Z_UP</up_axis>
  </asset>
  <library_images/>
  <library_geometries>
    <geometry id="geometry_db53e1c0_764a_4eb6_a3f9_50c8215b4fcf-mesh" name="geometry_db53e1c0_764a_4eb6_a3f9_50c8215b4fcf">
      <mesh>
        <source id="geometry_db53e1c0_764a_4eb6_a3f9_50c8215b4fcf-mesh-positions">
          <float_array id="geometry_db53e1c0_764a_4eb6_a3f9_50c8215b4fcf-mesh-positions-array" count="1266">-59.99999 -12.92307 20.26574 -59.99999 -11.07691 20.26574 -59.99999 -33.23075 31.26574 -59.99999 9.230786 31.26574 -59.99999 12.92309 31.26574 -59.99999 11.07694 31.26574 -59.99999 33.23078 20.26574 -59.99999 -9.23076 20.26574 -59.99999 57.23078 31.26574 -59.99999 14.76924 31.26574 -59.99999 36.92309 20.26574 -59.99999 35.07693 20.26574 -59.99999 -35.07691 31.26574 -59.99999 -36.92306 31.26574 -59.99999 -14.76922 20.26574 -59.99999 -57.23075 20.26574 -59.99999 -58.49999 31.26574 -59.99999 -58.49999 20.57824 -59.99999 -38.76921 31.26574 -59.99999 58.50001 20.26574 -59.99999 58.50001 30.95324 -59.99999 38.76924 20.26574 -12.92306 60.00001 20.26574 -11.07691 60.00001 20.26574 -33.23076 60.00001 31.26574 9.230788 60.00001 31.26574 12.92309 60.00001 31.26574 11.07694 60.00001 31.26574 33.23078 60.00001 20.26574 -9.230758 60.00001 20.26574 57.23078 60.00001 31.26574 14.76925 60.00001 31.26574 36.92309 60.00001 20.26574 35.07693 60.00001 20.26574 -58.49999 60.00001 20.57824 -38.76922 60.00001 31.26574 -58.49999 60.00001 31.26574 -35.07691 60.00001 31.26574 -36.92306 60.00001 31.26574 -14.76922 60.00001 20.26574 -57.23075 60.00001 20.26574 58.50001 60.00001 20.26574 58.50001 60.00001 30.95324 38.76924 60.00001 20.26574 60.00001 35.07693 31.26574 60.00001 36.92309 31.26574 60.00001 14.76924 20.26574 60.00001 57.23078 20.26574 60.00001 -9.23076 31.26574 60.00001 33.23078 31.26574 60.00001 11.07694 20.26574 60.00001 12.92309 20.26574 60.00001 9.230786 20.26574 60.00001 -33.23075 20.26574 60.00001 -11.07691 31.26574 60.00001 -12.92307 31.26574 60.00001 -35.07691 20.26574 60.00001 -36.92306 20.26574 60.00001 -14.76922 31.26574 60.00001 -57.23075 31.26574 60.00001 -58.49999 20.26574 60.00001 -58.49999 30.95324 60.00001 -38.76921 20.26574 60.00001 58.50001 31.26574 60.00001 58.50001 20.57824 60.00001 38.76924 31.26574 12.92309 -59.99999 20.26574 11.07694 -59.99999 20.26574 33.23078 -59.99999 31.26574 -9.230758 -59.99999 31.26574 -12.92306 -59.99999 31.26574 -11.07691 -59.99999 31.26574 -33.23076 -59.99999 20.26574 9.230788 -59.99999 20.26574 -57.23075 -59.99999 31.26574 -14.76922 -59.99999 31.26574 -36.92306 -59.99999 20.26574 -35.07691 -59.99999 20.26574 35.07693 -59.99999 31.26574 36.92309 -59.99999 31.26574 14.76925 -59.99999 20.26574 57.23078 -59.99999 20.26574 -58.49999 -59.99999 20.26574 -58.49999 -59.99999 30.95324 -38.76922 -59.99999 20.26574 58.50001 -59.99999 31.26574 58.50001 -59.99999 20.57824 38.76924 -59.99999 31.26574 1.2113e-5 1.01966e-5 82.19823 -5.490188 -5.49019 73.83623 5.490216 -5.49019 73.83623 11.70067 -11.70064 65.9943 -11.70064 -11.70064 65.9943 -18.58236 -18.58237 58.7343 18.58239 -18.58237 58.7343 -26.08108 -26.08108 52.1135 26.08111 -26.08108 52.1135 -34.13764 -34.13764 46.18412 34.13767 -34.13764 46.18412 42.68853 -42.6885 40.99292 -42.6885 -42.6885 40.99292 -51.66622 -51.66622 36.58087 51.66625 -51.66622 36.58087 -60.99999 -60.99999 32.98274 61.00001 -60.99999 32.98274 -60.99999 61.00001 32.98274 -51.66622 51.66625 36.58087 -42.6885 42.68853 40.99292 -34.13764 34.13767 46.18412 -26.08108 26.0811 52.1135 -18.58236 18.58238 58.7343 -11.70064 11.70066 65.9943 -5.490188 5.490214 73.83623 61.00001 61.00001 32.98274 51.66625 51.66625 36.58087 42.68853 42.68853 40.99292 34.13767 34.13767 46.18412 26.08111 26.0811 52.1135 18.58239 18.58238 58.7343 11.70067 11.70066 65.9943 5.490216 5.490214 73.83623 -60.99999 61.00001 19.26574 -60.99999 -60.99999 19.26574 61.00001 61.00001 19.26574 61.00001 -60.99999 19.26574 -59.99999 -59.99999 32.26573 -50.87865 -50.87865 35.83475 60.00001 -59.99999 32.26573 50.87867 -50.87865 35.83475 42.09855 -42.09853 40.17598 -42.09853 -42.09853 40.17598 -33.72487 -33.72487 45.25719 33.72489 -33.72487 45.25719 -25.81988 -25.81988 51.04059 25.81991 -25.81988 51.04059 18.44231 -18.44228 57.48325 -18.44228 -18.44228 57.48325 -11.6469 -11.6469 64.5373 11.64692 -11.6469 64.5373 -5.484203 -5.484205 72.1503 5.484227 -5.484205 72.1503 1.2113e-5 1.01966e-5 80.26573 -5.484203 5.484225 72.1503 -11.6469 11.64692 64.5373 -18.44228 18.44231 57.48325 -25.81988 25.8199 51.04059 -33.72487 33.72489 45.25719 -42.09853 42.09855 40.17598 -50.87865 50.87867 35.83475 -59.99999 60.00001 32.26573 5.484227 5.484225 72.1503 11.64692 11.64692 64.5373 18.44231 18.44231 57.48325 25.81991 25.8199 51.04059 33.72489 33.72489 45.25719 42.09855 42.09855 40.17598 50.87867 50.87867 35.83475 60.00001 60.00001 32.26573 -58.49999 60.00001 19.26574 -58.49999 60.00001 -27.73427 -59.99999 60.00001 19.26574 -59.99999 60.00001 -27.73427 60.00001 60.00001 19.26574 60.00001 60.00001 -27.73427 58.50001 60.00001 19.26574 58.50001 60.00001 -27.73427 -59.99999 -58.49999 19.26574 -59.99999 -58.49999 -27.73427 -59.99999 -59.99999 19.26574 -59.99999 -59.99999 -27.73427 -59.99999 58.50001 19.26574 -59.99999 58.50001 -27.73427 58.50001 -59.99999 19.26574 58.50001 -59.99999 -27.73427 60.00001 -59.99999 19.26574 60.00001 -59.99999 -27.73427 -58.49999 -59.99999 19.26574 -58.49999 -59.99999 -27.73427 60.00001 -58.49999 19.26574 60.00001 -58.49999 -27.73427 58.50001 59.87502 32.26573 58.50001 59.87502 30.95324 58.50001 58.50001 32.26573 58.50001 59.87502 20.26574 58.50001 59.87502 19.26574 58.50001 58.50001 -27.73427 59.75001 58.75001 -27.73427 60.00001 58.50001 -27.73427 59.75001 59.75001 -27.73427 58.75001 59.75001 -27.73427 58.75001 58.75001 -27.73427 59.87502 58.50001 32.26573 59.87502 58.50001 31.26574 59.87502 58.50001 20.57824 59.87502 58.50001 19.26574 60.00001 58.50001 19.26574 -36.92306 59.87502 31.26574 -58.49999 59.87502 20.57824 -57.23075 59.87502 20.26574 -58.49999 59.87502 19.26574 -14.76922 59.87502 20.26574 -12.92306 59.87502 20.26574 -33.23076 59.87502 31.26574 -35.07691 59.87502 31.26574 -58.49999 59.87502 32.26573 -38.76922 59.87502 31.26574 -11.07691 59.87502 20.26574 -9.230758 59.87502 20.26574 9.230788 59.87502 31.26574 11.07694 59.87502 31.26574 12.92309 59.87502 31.26574 14.76925 59.87502 31.26574 33.23078 59.87502 20.26574 35.07693 59.87502 20.26574 36.92309 59.87502 20.26574 38.76924 59.87502 20.26574 57.23078 59.87502 31.26574 -58.49999 59.87502 31.26574 -59.87499 58.50001 32.26573 -59.87499 -58.49999 32.26573 -58.49999 -59.87499 32.26573 -58.49999 -58.49999 32.26573 58.50001 -59.87499 32.26573 59.87502 -58.49999 32.26573 58.50001 -58.49999 32.26573 -58.49999 58.50001 32.26573 59.87502 38.76924 31.26574 59.87502 9.230786 20.26574 59.87502 -58.49999 19.26574 59.87502 -33.23075 20.26574 59.87502 -35.07691 20.26574 59.87502 -14.76922 31.26574 59.87502 -11.07691 31.26574 59.87502 -9.23076 31.26574 59.87502 11.07694 20.26574 59.87502 12.92309 20.26574 59.87502 14.76924 20.26574 59.87502 33.23078 31.26574 59.87502 35.07693 31.26574 59.87502 36.92309 31.26574 59.87502 -12.92307 31.26574 59.87502 -36.92306 20.26574 59.87502 -58.49999 30.95324 59.87502 -57.23075 31.26574 59.87502 -38.76921 20.26574 59.87502 57.23078 20.26574 59.87502 -58.49999 20.26574 58.50001 -59.87499 31.26574 58.50001 -59.87499 20.57824 58.50001 -59.87499 19.26574 58.50001 -58.49999 -27.73427 58.75001 -58.74999 -27.73427 58.75001 -59.74999 -27.73427 59.75001 -59.74999 -27.73427 59.75001 -58.74999 -27.73427 38.76924 -59.87499 31.26574 -59.87499 58.50001 19.26574 -59.87499 -58.49999 19.26574 -58.49999 -59.87499 19.26574 -58.49999 58.50001 -27.73427 -59.87499 58.50001 30.95324 -59.87499 58.50001 20.26574 -58.74999 58.75001 -27.73427 -58.74999 59.75001 -27.73427 -59.74999 59.75001 -27.73427 -59.74999 58.75001 -27.73427 -59.87499 38.76924 20.26574 -58.49999 -59.87499 30.95324 -58.49999 -59.87499 20.26574 -58.49999 -58.49999 -27.73427 -59.74999 -58.74999 -27.73427 -59.74999 -59.74999 -27.73427 -58.74999 -59.74999 -27.73427 -58.74999 -58.74999 -27.73427 -59.87499 -58.49999 31.26574 -59.87499 -58.49999 20.57824 36.92309 -59.87499 31.26574 35.07693 -59.87499 31.26574 57.23078 -59.87499 20.26574 14.76925 -59.87499 20.26574 12.92309 -59.87499 20.26574 33.23078 -59.87499 31.26574 9.230788 -59.87499 20.26574 11.07694 -59.87499 20.26574 -38.76922 -59.87499 20.26574 -36.92306 -59.87499 20.26574 -35.07691 -59.87499 20.26574 -57.23075 -59.87499 31.26574 -14.76922 -59.87499 31.26574 -12.92306 -59.87499 31.26574 -33.23076 -59.87499 20.26574 -9.230758 -59.87499 31.26574 -11.07691 -59.87499 31.26574 -59.87499 -38.76921 31.26574 -59.87499 57.23078 31.26574 -59.87499 36.92309 20.26574 -59.87499 9.230786 31.26574 -59.87499 11.07694 31.26574 -59.87499 12.92309 31.26574 -59.87499 -36.92306 31.26574 -59.87499 -35.07691 31.26574 -59.87499 -57.23075 20.26574 -59.87499 -14.76922 20.26574 -59.87499 -12.92307 20.26574 -59.87499 -33.23075 31.26574 -59.87499 -9.23076 20.26574 -59.87499 -11.07691 20.26574 -59.87499 14.76924 31.26574 -59.87499 33.23078 20.26574 -59.87499 35.07693 20.26574 -59.74999 -58.74999 -57.38586 -59.74999 -59.74999 -57.38586 -58.74999 -59.74999 -57.38586 -58.74999 -58.74999 -57.38586 -59.74999 -58.74999 -59.31056 -58.74999 -58.74999 -59.31056 -59.74999 -58.74999 -85.80957 -58.74999 -58.74999 -85.80957 -58.74999 -59.74999 -59.31056 -58.74999 -59.74999 -85.80957 -59.74999 -59.74999 -59.31056 -59.74999 -59.74999 -85.80957 -58.49999 -59.99999 -87.73427 -59.99999 -59.99999 -87.73427 -58.49999 -58.49999 -87.73427 -59.99999 -58.49999 -87.73427 -59.99999 -58.49999 -85.80957 -59.99999 -59.99999 -85.80957 -58.49999 -59.99999 -85.80957 -58.49999 -58.49999 -85.80957 -58.49999 -58.49999 -59.31056 -58.49999 -59.99999 -59.31056 -59.99999 -59.99999 -59.31056 -59.99999 -58.49999 -59.31056 -59.99999 -58.49999 -57.38586 -59.99999 -59.99999 -57.38586 -58.49999 -59.99999 -57.38586 -58.49999 -58.49999 -57.38586 -59.74999 59.75001 -57.38586 -59.74999 58.75001 -57.38586 -58.74999 58.75001 -57.38586 -58.74999 59.75001 -57.38586 -59.74999 59.75001 -59.31056 -58.74999 59.75001 -59.31056 -59.74999 59.75001 -85.80957 -58.74999 59.75001 -85.80957 -58.74999 58.75001 -59.31056 -58.74999 58.75001 -85.80957 -59.74999 58.75001 -59.31056 -59.74999 58.75001 -85.80957 -58.49999 58.50001 -87.73427 -59.99999 58.50001 -87.73427 -58.49999 60.00001 -87.73427 -59.99999 60.00001 -87.73427 -59.99999 60.00001 -85.80957 -59.99999 58.50001 -85.80957 -58.49999 60.00001 -85.80957 -58.49999 58.50001 -85.80957 -58.49999 58.50001 -59.31056 -59.99999 58.50001 -59.31056 -59.99999 60.00001 -59.31056 -58.49999 60.00001 -59.31056 -59.99999 60.00001 -57.38586 -59.99999 58.50001 -57.38586 -58.49999 60.00001 -57.38586 -58.49999 58.50001 -57.38586 59.75001 -59.74999 -57.38586 59.75001 -58.74999 -57.38586 58.75001 -58.74999 -57.38586 58.75001 -59.74999 -57.38586 59.75001 -59.74999 -59.31056 58.75001 -59.74999 -59.31056 59.75001 -59.74999 -85.80957 58.75001 -59.74999 -85.80957 58.75001 -58.74999 -59.31056 58.75001 -58.74999 -85.80957 59.75001 -58.74999 -59.31056 59.75001 -58.74999 -85.80957 58.50001 -58.49999 -87.73427 60.00001 -58.49999 -87.73427 58.50001 -59.99999 -87.73427 60.00001 -59.99999 -87.73427 60.00001 -59.99999 -85.80957 60.00001 -58.49999 -85.80957 58.50001 -59.99999 -85.80957 58.50001 -58.49999 -85.80957 58.50001 -58.49999 -59.31056 60.00001 -58.49999 -59.31056 60.00001 -59.99999 -59.31056 58.50001 -59.99999 -59.31056 60.00001 -59.99999 -57.38586 60.00001 -58.49999 -57.38586 58.50001 -59.99999 -57.38586 58.50001 -58.49999 -57.38586 59.75001 58.75001 -57.38586 59.75001 59.75001 -57.38586 58.75001 59.75001 -57.38586 58.75001 58.75001 -57.38586 59.75001 58.75001 -59.31056 58.75001 58.75001 -59.31056 59.75001 58.75001 -85.80957 58.75001 58.75001 -85.80957 58.75001 59.75001 -59.31056 58.75001 59.75001 -85.80957 59.75001 59.75001 -59.31056 59.75001 59.75001 -85.80957 58.50001 60.00001 -87.73427 60.00001 60.00001 -87.73427 58.50001 58.50001 -87.73427 60.00001 58.50001 -87.73427 60.00001 58.50001 -85.80957 60.00001 60.00001 -85.80957 58.50001 60.00001 -85.80957 58.50001 58.50001 -85.80957 58.50001 58.50001 -59.31056 58.50001 60.00001 -59.31056 60.00001 60.00001 -59.31056 60.00001 58.50001 -59.31056 60.00001 58.50001 -57.38586 60.00001 60.00001 -57.38586 58.50001 60.00001 -57.38586 58.50001 58.50001 -57.38586</float_array>
          <technique_common>
            <accessor source="#geometry_db53e1c0_764a_4eb6_a3f9_50c8215b4fcf-mesh-positions-array" count="422" stride="3">
              <param name="X" type="float"/>
              <param name="Y" type="float"/>
              <param name="Z" type="float"/>
            </accessor>
          </technique_common>
        </source>
        <source id="geometry_db53e1c0_764a_4eb6_a3f9_50c8215b4fcf-mesh-normals">
          <float_array id="geometry_db53e1c0_764a_4eb6_a3f9_50c8215b4fcf-mesh-normals-array" count="756">1 0 0 0 -1 -1.20221e-5 0 -1 0 0 -1 -5.22699e-7 0 -1 5.22699e-7 -1 0 0 0 1 0 0 1 -1.20221e-5 0 1 -5.22699e-7 0 1 -5.22699e-7 0 1 5.22699e-7 0 -0.835927 0.5488408 0 -0.783936 0.6208417 0 -0.783936 0.6208418 0 -0.7257616 0.6879464 0 -0.7257613 0.6879467 0 -0.6618629 0.749625 0 -0.6618627 0.7496251 0 -0.5927431 0.8053916 0 -0.5927433 0.8053916 0 -0.5189492 0.8548051 0 -0.5189498 0.8548048 0 -0.4410601 0.8974776 0 -0.4410607 0.8974774 0 -0.3596946 0.9330701 0 -0.3596947 0.9330701 -0.3596948 0 0.93307 -0.3596943 0 0.9330703 -0.4410613 0 0.897477 -0.4410597 0 0.8974778 -0.5189496 0 0.8548049 -0.518949 0 0.8548052 -0.5927438 0 0.8053911 -0.592743 0 0.8053918 -0.6618621 0 0.7496256 -0.6618626 0 0.7496252 -0.725762 0 0.687946 -0.7257615 0 0.6879464 -0.7839362 0 0.6208414 -0.783936 0 0.6208417 -0.8359269 0 0.5488408 0 0.3596952 0.9330698 0 0.3596947 0.9330701 0 0.4410609 0.8974772 0 0.4410602 0.8974776 0 0.5189498 0.8548048 0 0.5189489 0.8548053 0 0.5927428 0.8053919 0 0.5927428 0.8053919 0 0.6618622 0.7496256 0 0.6618626 0.7496253 0 0.7257618 0.6879461 0 0.7839362 0.6208415 0 0.7839363 0.6208414 0 0.8359268 0.5488411 0.8359268 0 0.5488411 0.7839355 0 0.6208424 0.7839363 0 0.6208413 0.7257616 0 0.6879463 0.7257615 0 0.6879464 0.6618621 0 0.7496256 0.6618624 0 0.7496253 0.5927432 0 0.8053917 0.5927437 0 0.8053911 0.5189492 0 0.8548051 0.5189493 0 0.854805 0.4410597 0 0.8974778 0.4410613 0 0.8974771 0.3596949 0 0.93307 0.3596949 0 0.9330701 0 0.3643813 -0.9312499 0 0.3643816 -0.9312497 0 0.4432212 -0.8964124 0 0.4432215 -0.8964121 0 0.5187691 -0.8549146 0 0.5187696 -0.8549141 0 0.5904608 -0.8070665 0 0.5904608 -0.8070664 0 0.657768 -0.7532207 0 0.6577676 -0.753221 0 0.720188 -0.693779 0 0.720188 -0.6937791 0 0.7772554 -0.6291853 0 0.7772552 -0.6291856 0 0.8285502 -0.5599148 0.8285497 0 -0.5599156 0.7772564 0 -0.6291842 0.777255 0 -0.6291857 0.7201877 0 -0.6937793 0.7201884 0 -0.6937786 0.6577683 0 -0.7532205 0.6577672 0 -0.7532213 0.5904606 0 -0.8070665 0.5904609 0 -0.8070664 0.5187698 0 -0.8549141 0.5187687 0 -0.8549147 0.4432211 0 -0.8964123 0.4432213 0 -0.8964123 0.3643809 0 -0.93125 0.3643818 0 -0.9312497 0 -0.8285503 -0.5599148 0 -0.7772554 -0.6291853 0 -0.7772552 -0.6291854 0 -0.7201875 -0.6937795 0 -0.7201874 -0.6937796 0 -0.6577682 -0.7532204 0 -0.6577684 -0.7532203 0 -0.590461 -0.8070662 0 -0.5904607 -0.8070665 0 -0.5187691 -0.8549144 0 -0.5187696 -0.8549141 0 -0.4432209 -0.8964124 0 -0.4432212 -0.8964123 0 -0.3643816 -0.9312497 0 -0.3643815 -0.9312498 -0.3643816 0 -0.9312498 -0.3643812 0 -0.9312499 -0.4432209 0 -0.8964125 -0.4432212 0 -0.8964123 -0.5187689 0 -0.8549146 -0.5187695 0 -0.8549141 -0.5904614 0 -0.8070659 -0.5904613 0 -0.8070661 -0.6577679 0 -0.7532207 -0.6577672 0 -0.7532214 -0.7201878 0 -0.6937792 -0.7201873 0 -0.6937798 -0.7772553 0 -0.6291855 -0.7772561 0 -0.6291844 -0.8285497 0 -0.5599156 -1 -8.30668e-6 0 -1 1.10972e-5 0 -1 -5.91851e-6 0 0 0 -1 -1.52588e-5 0 -1 2.54313e-6 0 -1 1.52588e-5 0 -1 0 -1 -2.16437e-7 0 -1 -1.2022e-5 0 -1 -2.47957e-5 0 -1 7.10812e-5 0 -1 7.10812e-5 0 -1 7.10795e-5 0 -1 4.13266e-5 0 -1 -4.95915e-5 0 -1 -7.5138e-7 0 -1 -1.07447e-4 0 -1 -1.14995e-5 0 -1 1.25202e-5 0 -1 4.5083e-6 0 -1 1.14995e-5 0 -1 -8.34669e-6 0 0 1 3.41455e-6 0 1 -3.41456e-6 0 1 1.252e-5 0 1 -1.28046e-6 0 1 -1.25212e-5 0 1 -1 -5.63531e-7 0 -1 5.63535e-7 0 -1 -1.03834e-6 0 -1 6.76407e-5 0 -1 5.91856e-6 0 -2.54313e-6 0 -1 6.87896e-7 0 -1 -6.87896e-7 0 -1 0.4762914 0 -0.8792875 0.4762915 0 -0.8792874 0.4763039 0 0.8792808 0.4762685 0 0.8792999 0.4762685 0 -0.8792999 0.4763039 0 -0.8792808 -0.4762685 0 -0.8792999 -0.4763039 0 -0.8792808 -0.4762915 0 0.8792874 -0.4762914 0 0.8792875 -0.4762685 0 0.8792999 -0.4763039 0 0.8792808 1 1.6646e-5 0 0 1 3.30613e-5 0 1 -6.6122e-5 0 1 -7.51383e-7 0 1 -4.17334e-6 0 1 2.81016e-4 0 1 -1.07448e-4 0 1 4.95909e-5 0 1 -3.30607e-5 0 1 8.26513e-6 0 1 7.10813e-5 0 1 7.10794e-5 0 1 7.10812e-5 0 1 1.2022e-5 0 1 -1.65305e-5 0 1 1.65306e-4 0 1 4.95917e-5 0 1 1.14994e-5 1 3.75688e-7 0 0 0.4762831 -0.879292 0 0.4762832 -0.879292 0 0.4762832 0.879292 0 0.4762831 0.8792921 0 0.4762833 -0.8792919 0 0.4762831 -0.8792921 0 -0.4762832 -0.879292 0 -0.4762833 -0.879292 0 0.476283 -0.8792921 0 -0.476283 0.8792922 0 -0.4762831 0.879292 0 -0.4762833 0.8792919 0 -0.4762831 0.8792921 0 -0.4762833 -0.8792919 0 -0.4762831 0.879292 0 0.4762834 0.879292 0 0.4762834 0.8792919 -0.4762887 0 -0.8792889 -0.4762668 0 0.8793008 -0.4763022 0 0.8792817 -0.4763022 0 -0.8792817 -0.4762668 0 -0.8793008 0.4763022 0 -0.8792817 0.4762668 0 -0.8793008 0.4762887 0 0.8792889 0.4763022 0 0.8792817 0.4762668 0 0.8793008 0 -0.4762493 -0.8793103 0 -0.4763168 -0.8792738 0 0.4763171 0.8792737 0 0.4762516 0.8793092 0 0.4762517 -0.8793091 0 0.4763171 -0.8792737 0 -0.4763169 0.8792737 0 -0.4762516 0.8793092 0 -0.4763171 -0.8792737 0 -0.4762516 -0.8793092 0 -0.476317 0.8792738 0 -0.4762517 0.8793091 0 -0.4762514 -0.8793092 0 -0.4763168 -0.8792738 0 0.4762495 0.8793102 0 0.476317 0.8792737 0 0.4763168 0.8792738 0 0.4762514 0.8793092 0 0.4762516 -0.8793092 0 0.4763169 -0.8792737 -2.28882e-5 0 1 5.08626e-6 0 1 -7.62939e-6 0 -1 3.05176e-5 0 1 -5.08626e-6 0 1 7.62939e-6 0 -1 -3.05176e-5 0 1 2.28882e-5 0 1</float_array>
          <technique_common>
            <accessor source="#geometry_db53e1c0_764a_4eb6_a3f9_50c8215b4fcf-mesh-normals-array" count="252" stride="3">
              <param name="X" type="float"/>
              <param name="Y" type="float"/>
              <param name="Z" type="float"/>
            </accessor>
          </technique_common>
        </source>
        <vertices id="geometry_db53e1c0_764a_4eb6_a3f9_50c8215b4fcf-mesh-vertices">
          <input semantic="POSITION" source="#geometry_db53e1c0_764a_4eb6_a3f9_50c8215b4fcf-mesh-positions"/>
        </vertices>
        <triangles count="840">
          <input semantic="VERTEX" source="#geometry_db53e1c0_764a_4eb6_a3f9_50c8215b4fcf-mesh-vertices" offset="0"/>
          <input semantic="NORMAL" source="#geometry_db53e1c0_764a_4eb6_a3f9_50c8215b4fcf-mesh-normals" offset="1"/>
          <p>0 0 1 0 2 0 2 0 1 0 3 0 4 0 5 0 6 0 6 0 5 0 7 0 8 0 9 0 10 0 10 0 9 0 11 0 12 0 13 0 14 0 14 0 13 0 15 0 16 0 17 0 18 0 19 0 20 0 21 0 22 1 23 1 24 1 24 2 23 2 25 2 26 2 27 2 28 2 28 3 27 3 29 3 30 4 31 4 32 4 32 2 31 2 33 2 34 2 35 2 36 2 37 2 38 2 39 2 39 3 38 3 40 3 41 2 42 2 43 2 44 5 45 5 46 5 46 5 45 5 47 5 48 5 49 5 50 5 50 5 49 5 51 5 52 5 53 5 54 5 54 5 53 5 55 5 56 5 57 5 58 5 58 5 57 5 59 5 60 5 61 5 62 5 63 5 64 5 65 5 66 6 67 6 68 6 68 6 67 6 69 6 70 7 71 7 72 7 72 8 71 8 73 8 74 9 75 9 76 9 76 6 75 6 77 6 78 6 79 6 80 6 80 10 79 10 81 10 82 6 83 6 84 6 85 6 86 6 87 6 88 11 89 11 90 11 90 12 89 12 91 12 91 13 89 13 92 13 91 14 92 14 93 14 91 15 93 15 94 15 94 16 93 16 95 16 94 17 95 17 96 17 96 18 95 18 97 18 96 19 97 19 98 19 98 20 97 20 99 20 99 21 97 21 100 21 99 22 100 22 101 22 99 23 101 23 102 23 102 24 101 24 103 24 102 25 103 25 104 25 103 26 101 26 105 26 105 27 101 27 106 27 106 28 101 28 100 28 106 29 100 29 107 29 107 30 100 30 108 30 108 31 100 31 97 31 108 32 97 32 95 32 108 33 95 33 109 33 109 34 95 34 93 34 109 35 93 35 110 35 110 36 93 36 92 36 110 37 92 37 111 37 111 38 92 38 112 38 112 39 92 39 89 39 112 40 89 40 88 40 105 41 106 41 113 41 113 42 106 42 114 42 114 43 106 43 107 43 114 44 107 44 115 44 115 45 107 45 116 45 116 46 107 46 108 46 116 47 108 47 109 47 116 48 109 48 117 48 117 49 109 49 110 49 117 50 110 50 118 50 118 51 110 51 111 51 118 51 111 51 119 51 119 52 111 52 120 52 120 53 111 53 112 53 120 54 112 54 88 54 88 55 90 55 120 55 120 56 90 56 119 56 119 57 90 57 91 57 119 58 91 58 94 58 119 59 94 59 118 59 118 60 94 60 96 60 118 61 96 61 117 61 117 62 96 62 98 62 117 63 98 63 116 63 116 64 98 64 115 64 115 65 98 65 99 65 115 66 99 66 102 66 115 67 102 67 114 67 114 68 102 68 104 68 114 69 104 69 113 69 121 5 122 5 105 5 105 5 122 5 103 5 123 6 121 6 113 6 113 6 121 6 105 6 124 0 123 0 104 0 104 0 123 0 113 0 122 2 124 2 103 2 103 2 124 2 104 2 125 70 126 70 127 70 127 71 126 71 128 71 128 72 126 72 129 72 129 73 126 73 130 73 129 74 130 74 131 74 129 75 131 75 132 75 132 76 131 76 133 76 132 77 133 77 134 77 134 78 133 78 135 78 135 79 133 79 136 79 135 80 136 80 137 80 135 81 137 81 138 81 138 82 137 82 139 82 138 83 139 83 140 83 140 84 139 84 141 84 141 85 139 85 142 85 142 86 139 86 137 86 142 87 137 87 143 87 143 88 137 88 136 88 143 89 136 89 144 89 144 90 136 90 145 90 145 91 136 91 133 91 145 92 133 92 131 92 145 93 131 93 146 93 146 94 131 94 130 94 146 95 130 95 147 95 147 96 130 96 148 96 148 97 130 97 126 97 148 98 126 98 125 98 125 99 149 99 148 99 141 100 142 100 150 100 150 101 142 101 143 101 150 102 143 102 151 102 151 103 143 103 144 103 151 104 144 104 152 104 152 105 144 105 153 105 153 106 144 106 145 106 153 107 145 107 146 107 153 108 146 108 154 108 154 109 146 109 147 109 154 110 147 110 155 110 155 111 147 111 156 111 156 112 147 112 148 112 156 113 148 113 149 113 149 114 157 114 156 114 127 115 128 115 157 115 157 116 128 116 156 116 156 117 128 117 155 117 155 118 128 118 129 118 155 119 129 119 132 119 155 120 132 120 154 120 154 121 132 121 134 121 154 122 134 122 153 122 153 123 134 123 152 123 152 124 134 124 135 124 152 125 135 125 138 125 152 126 138 126 151 126 151 127 138 127 140 127 151 128 140 128 150 128 150 129 140 129 141 129 158 6 159 6 160 6 160 6 159 6 161 6 162 6 163 6 164 6 164 6 163 6 165 6 166 5 167 5 168 5 168 5 167 5 169 5 160 5 161 5 170 5 170 5 161 5 171 5 172 2 173 2 174 2 174 2 173 2 175 2 168 2 169 2 176 2 176 2 169 2 177 2 174 0 175 0 178 0 178 0 175 0 179 0 180 5 181 5 182 5 182 130 181 130 183 130 182 131 183 131 184 131 181 5 42 5 183 5 183 5 42 5 41 5 164 5 165 5 184 5 184 5 165 5 185 5 184 132 185 132 182 132 185 133 186 133 187 133 187 134 186 134 188 134 187 135 188 135 163 135 163 133 188 133 189 133 163 133 189 133 165 133 165 133 189 133 185 133 185 136 189 136 190 136 185 133 190 133 186 133 191 2 182 2 192 2 192 2 182 2 193 2 192 2 193 2 64 2 193 2 182 2 194 2 194 2 182 2 185 2 194 137 185 137 187 137 187 2 195 2 194 2 64 2 63 2 192 2 196 2 197 2 198 2 198 2 197 2 199 2 198 2 199 2 200 2 200 2 199 2 201 2 200 138 201 138 202 138 203 2 204 2 196 2 196 2 204 2 205 2 196 2 205 2 197 2 204 139 203 139 202 139 202 2 203 2 200 2 206 2 207 2 208 2 208 2 207 2 209 2 208 140 209 141 180 142 180 143 209 143 210 143 180 144 210 144 211 144 211 2 210 2 212 2 211 145 212 145 213 145 213 2 212 2 184 2 213 2 184 2 214 2 214 2 184 2 215 2 214 2 215 2 181 2 207 2 206 2 199 2 199 146 206 146 201 146 202 147 208 147 204 147 204 148 208 148 180 148 214 149 181 149 216 149 216 2 181 2 180 2 216 150 180 150 211 150 204 2 217 2 205 2 199 151 184 151 207 151 207 2 184 2 212 2 184 2 183 2 215 2 41 152 43 152 183 152 183 152 43 152 215 152 149 152 204 152 157 152 157 152 204 152 180 152 157 153 180 153 191 153 191 152 180 152 182 152 204 154 149 154 218 154 218 152 149 152 125 152 218 155 125 155 219 155 219 156 125 156 220 156 219 152 220 152 221 152 125 152 127 152 220 152 220 152 127 152 222 152 222 152 127 152 223 152 222 152 223 152 224 152 127 152 157 152 223 152 223 157 157 157 191 157 218 152 225 152 204 152 63 133 65 133 192 133 192 133 65 133 226 133 227 5 228 5 229 5 229 5 228 5 230 5 229 5 230 5 231 5 232 5 233 5 227 5 227 5 233 5 234 5 227 5 234 5 194 5 194 5 234 5 235 5 194 5 235 5 236 5 236 5 235 5 237 5 236 5 237 5 238 5 238 5 237 5 191 5 238 5 191 5 239 5 239 5 191 5 226 5 239 5 226 5 193 5 233 5 232 5 223 5 223 5 232 5 240 5 223 5 240 5 231 5 231 5 240 5 229 5 241 158 242 158 243 158 243 5 242 5 223 5 243 5 223 5 231 5 230 5 228 5 241 5 241 5 228 5 244 5 241 5 244 5 242 5 191 5 192 5 226 5 239 159 193 159 245 159 245 5 193 5 194 5 245 5 194 5 236 5 194 5 228 5 227 5 228 5 246 5 244 5 223 5 191 5 233 5 233 5 191 5 237 5 85 5 247 5 86 5 86 5 247 5 248 5 248 160 247 160 224 160 248 161 224 161 249 161 249 162 224 162 250 162 249 5 250 5 173 5 247 5 222 5 224 5 173 5 172 5 249 5 223 6 242 6 224 6 224 6 242 6 246 6 224 6 246 6 228 6 242 6 61 6 246 6 246 6 61 6 60 6 178 6 179 6 228 6 228 6 179 6 250 6 228 6 250 6 224 6 179 133 251 133 250 133 250 136 251 136 252 136 250 163 252 163 173 163 173 133 252 133 253 133 173 133 253 133 175 133 175 133 253 133 179 133 179 134 253 134 254 134 179 133 254 133 251 133 85 133 87 133 247 133 247 133 87 133 255 133 122 133 176 133 124 133 124 133 176 133 172 133 124 133 172 133 174 133 121 164 166 164 122 164 122 133 166 133 168 133 122 133 168 133 176 133 123 133 158 133 121 133 121 133 158 133 160 133 121 133 160 133 170 133 124 165 195 165 123 165 123 133 195 133 162 133 123 133 162 133 164 133 123 133 164 133 158 133 158 133 164 133 184 133 158 133 184 133 199 133 256 133 257 133 170 133 170 133 257 133 166 133 170 133 166 133 121 133 176 133 258 133 172 133 172 133 258 133 249 133 174 133 178 133 124 133 124 133 178 133 195 133 228 133 194 133 178 133 178 133 194 133 195 133 42 166 181 166 43 166 43 167 181 167 215 167 31 168 211 168 33 168 33 169 211 169 213 169 198 170 40 170 196 170 196 171 40 171 38 171 203 172 37 172 200 172 200 173 37 173 39 173 27 170 209 170 29 170 29 170 209 170 207 170 34 174 197 174 35 174 35 175 197 175 205 175 216 176 30 176 214 176 214 177 30 177 32 177 210 172 26 172 212 172 212 173 26 173 28 173 208 176 25 176 206 176 206 176 25 176 23 176 24 169 202 169 22 169 22 169 202 169 201 169 195 0 187 0 162 0 162 0 187 0 163 0 197 0 225 0 199 0 199 0 225 0 259 0 199 0 259 0 159 0 225 0 197 0 217 0 217 0 197 0 34 0 217 0 34 0 36 0 217 0 204 0 225 0 159 0 158 0 199 0 38 133 37 133 196 133 196 133 37 133 203 133 205 133 217 133 35 133 35 133 217 133 36 133 210 133 209 133 26 133 26 133 209 133 27 133 208 133 202 133 25 133 25 133 202 133 24 133 201 152 206 152 22 152 22 152 206 152 23 152 198 152 200 152 40 152 40 152 200 152 39 152 28 152 29 152 212 152 212 152 29 152 207 152 32 152 33 152 214 152 214 152 33 152 213 152 31 133 30 133 211 133 211 133 30 133 216 133 218 2 260 2 225 2 225 2 260 2 261 2 225 2 261 2 256 2 260 2 20 2 261 2 261 2 20 2 19 2 170 2 171 2 256 2 256 137 171 137 259 137 256 2 259 2 225 2 171 133 262 133 259 133 259 134 262 134 263 134 259 135 263 135 159 135 159 133 263 133 264 133 159 133 264 133 161 133 161 133 264 133 171 133 171 136 264 136 265 136 171 133 265 133 262 133 19 152 21 152 261 152 261 152 21 152 266 152 220 0 267 0 221 0 221 0 267 0 268 0 221 178 268 178 258 178 267 0 83 0 268 0 268 0 83 0 82 0 176 0 177 0 258 0 258 0 177 0 269 0 258 0 269 0 221 0 269 133 270 133 167 133 167 136 270 136 271 136 167 163 271 163 169 163 169 133 271 133 272 133 169 133 272 133 177 133 177 133 272 133 269 133 269 134 272 134 273 134 269 133 273 133 270 133 219 6 221 6 274 6 274 6 221 6 275 6 274 6 275 6 17 6 275 6 221 6 257 6 257 6 221 6 269 6 257 6 269 6 167 6 167 6 166 6 257 6 17 6 16 6 274 6 247 6 255 6 222 6 222 179 255 179 276 179 222 180 276 180 277 180 255 6 248 6 276 6 276 181 248 181 278 181 278 6 248 6 249 6 278 6 249 6 279 6 279 6 249 6 280 6 279 6 280 6 281 6 258 182 282 182 249 182 249 183 282 183 283 183 249 184 283 184 280 184 268 6 284 6 258 6 258 185 284 185 285 185 258 186 285 186 286 186 284 6 267 6 285 6 285 187 267 187 287 187 287 6 267 6 220 6 287 6 220 6 288 6 288 188 220 189 289 190 288 191 289 191 290 191 222 6 291 6 220 6 220 192 291 192 292 192 220 193 292 193 289 193 222 194 277 194 281 194 281 6 277 6 279 6 292 6 291 6 282 6 282 6 291 6 283 6 281 6 291 6 222 6 282 195 258 195 290 195 290 6 258 6 286 6 290 6 286 6 288 6 82 152 84 152 268 152 268 152 84 152 284 152 16 133 18 133 274 133 274 133 18 133 293 133 218 0 294 0 260 0 260 0 294 0 295 0 260 0 295 0 266 0 266 0 295 0 256 0 266 0 256 0 261 0 219 0 296 0 218 0 218 0 296 0 297 0 218 0 297 0 298 0 274 0 293 0 219 0 219 0 293 0 299 0 219 0 299 0 300 0 293 0 275 0 299 0 299 196 275 196 301 196 301 0 275 0 257 0 301 0 257 0 302 0 302 0 257 0 303 0 302 0 303 0 304 0 256 0 305 0 257 0 257 0 305 0 306 0 257 0 306 0 303 0 219 0 300 0 304 0 304 0 300 0 302 0 297 0 296 0 305 0 305 0 296 0 306 0 304 0 296 0 219 0 218 0 298 0 307 0 307 0 298 0 308 0 307 0 308 0 309 0 309 0 308 0 256 0 309 0 256 0 295 0 308 0 305 0 256 0 307 0 294 0 218 0 20 197 260 197 21 197 21 198 260 198 266 198 9 199 307 199 11 199 11 200 307 200 309 200 301 201 15 201 299 201 299 202 15 202 13 202 300 203 12 203 302 203 302 204 12 204 14 204 5 205 297 205 7 205 7 205 297 205 305 205 17 206 275 206 18 206 18 207 275 207 293 207 294 208 8 208 295 208 295 209 8 209 10 209 298 203 4 203 308 203 308 210 4 210 6 210 296 211 3 211 306 211 306 211 3 211 1 211 2 212 304 212 0 212 0 213 304 213 303 213 13 133 12 133 299 133 299 133 12 133 300 133 298 133 297 133 4 133 4 133 297 133 5 133 296 133 304 133 3 133 3 133 304 133 2 133 294 133 307 133 8 133 8 133 307 133 9 133 303 152 306 152 0 152 0 152 306 152 1 152 301 152 302 152 15 152 15 152 302 152 14 152 6 152 7 152 308 152 308 152 7 152 305 152 10 152 11 152 295 152 295 152 11 152 309 152 83 214 267 214 84 214 84 214 267 214 284 214 75 215 288 215 77 215 77 216 288 216 286 216 278 217 81 217 276 217 276 218 81 218 79 218 277 219 78 219 279 219 279 220 78 220 80 220 71 217 292 217 73 217 73 218 292 218 282 218 86 221 248 221 87 221 87 221 248 221 255 221 287 222 74 222 285 222 285 223 74 223 76 223 289 220 70 220 290 220 290 219 70 219 72 219 291 223 69 223 283 223 283 222 69 222 67 222 68 215 281 215 66 215 66 216 281 216 280 216 79 133 78 133 276 133 276 133 78 133 277 133 289 133 292 133 70 133 70 133 292 133 71 133 291 133 281 133 69 133 69 133 281 133 68 133 287 133 288 133 74 133 74 133 288 133 75 133 280 152 283 152 66 152 66 152 283 152 67 152 278 152 279 152 81 152 81 152 279 152 80 152 72 152 73 152 290 152 290 152 73 152 282 152 76 152 77 152 285 152 285 152 77 152 286 152 61 224 242 224 62 224 62 225 242 225 244 225 243 226 59 226 241 226 241 227 59 227 57 227 53 228 229 228 55 228 55 229 229 229 240 229 230 230 56 230 231 230 231 231 56 231 58 231 245 232 47 232 239 232 239 233 47 233 45 233 235 234 51 234 237 234 237 235 51 235 49 235 54 236 232 236 52 236 52 237 232 237 227 237 64 238 193 238 65 238 65 239 193 239 226 239 233 240 48 240 234 240 234 241 48 241 50 241 46 242 236 242 44 242 44 243 236 243 238 243 50 152 51 152 234 152 234 152 51 152 235 152 245 152 236 152 47 152 47 152 236 152 46 152 57 152 56 152 241 152 241 152 56 152 230 152 53 152 52 152 229 152 229 152 52 152 227 152 45 133 44 133 239 133 239 133 44 133 238 133 233 133 237 133 48 133 48 133 237 133 49 133 54 133 55 133 232 133 232 133 55 133 240 133 60 152 62 152 246 152 246 152 62 152 244 152 243 133 231 133 59 133 59 133 231 133 58 133 310 5 311 5 270 5 270 5 311 5 271 5 311 2 312 2 271 2 271 2 312 2 272 2 313 6 310 6 273 6 273 6 310 6 270 6 314 6 315 6 316 6 316 6 315 6 317 6 312 0 313 0 272 0 272 0 313 0 273 0 315 0 318 0 317 0 317 0 318 0 319 0 318 2 320 2 319 2 319 2 320 2 321 2 320 5 314 5 321 5 321 5 314 5 316 5 322 133 323 133 324 133 324 133 323 133 325 133 325 5 323 5 326 5 326 5 323 5 327 5 323 2 322 2 327 2 327 2 322 2 328 2 322 0 324 0 328 0 328 0 324 0 329 0 324 6 325 6 329 6 329 6 325 6 326 6 319 152 329 152 317 152 317 152 329 152 326 152 317 152 326 152 316 152 316 152 326 152 321 152 321 152 326 152 327 152 321 152 327 152 328 152 329 152 319 152 328 152 328 152 319 152 321 152 315 133 330 133 318 133 318 133 330 133 331 133 318 133 331 133 332 133 315 133 314 133 330 133 330 133 314 133 333 133 333 133 314 133 320 133 333 134 320 134 332 134 332 133 320 133 318 133 333 5 332 5 334 5 334 5 332 5 335 5 332 2 331 2 335 2 335 2 331 2 336 2 331 0 330 0 336 0 336 0 330 0 337 0 330 6 333 6 337 6 337 6 333 6 334 6 312 244 337 244 313 244 313 152 337 152 334 152 313 152 334 152 310 152 310 152 334 152 311 152 311 152 334 152 335 152 311 152 335 152 336 152 337 245 312 245 336 245 336 152 312 152 311 152 338 5 339 5 264 5 264 5 339 5 265 5 339 2 340 2 265 2 265 2 340 2 262 2 341 6 338 6 263 6 263 6 338 6 264 6 342 6 343 6 344 6 344 6 343 6 345 6 340 0 341 0 262 0 262 0 341 0 263 0 343 0 346 0 345 0 345 0 346 0 347 0 348 5 342 5 349 5 349 5 342 5 344 5 346 2 348 2 347 2 347 2 348 2 349 2 350 133 351 133 352 133 352 133 351 133 353 133 353 5 351 5 354 5 354 5 351 5 355 5 352 6 353 6 356 6 356 6 353 6 354 6 350 0 352 0 357 0 357 0 352 0 356 0 351 2 350 2 355 2 355 2 350 2 357 2 347 152 357 152 345 152 345 152 357 152 356 152 345 152 356 152 354 152 347 152 349 152 357 152 357 152 349 152 355 152 355 152 349 152 344 152 355 152 344 152 354 152 354 152 344 152 345 152 343 246 358 246 346 246 346 133 358 133 359 133 346 133 359 133 348 133 348 133 359 133 342 133 342 133 359 133 360 133 342 133 360 133 361 133 358 136 343 136 361 136 361 133 343 133 342 133 360 5 359 5 362 5 362 5 359 5 363 5 361 6 360 6 364 6 364 6 360 6 362 6 358 0 361 0 365 0 365 0 361 0 364 0 359 2 358 2 363 2 363 2 358 2 365 2 340 152 365 152 341 152 341 152 365 152 364 152 341 152 364 152 362 152 340 152 339 152 365 152 365 152 339 152 363 152 363 247 339 247 338 247 363 248 338 248 362 248 362 152 338 152 341 152 366 0 367 0 253 0 253 0 367 0 254 0 367 6 368 6 254 6 254 6 368 6 251 6 369 2 366 2 252 2 252 2 366 2 253 2 370 2 371 2 372 2 372 2 371 2 373 2 368 5 369 5 251 5 251 5 369 5 252 5 371 5 374 5 373 5 373 5 374 5 375 5 376 0 370 0 377 0 377 0 370 0 372 0 374 6 376 6 375 6 375 6 376 6 377 6 378 133 379 133 380 133 380 133 379 133 381 133 381 0 379 0 382 0 382 0 379 0 383 0 380 2 381 2 384 2 384 2 381 2 382 2 378 5 380 5 385 5 385 5 380 5 384 5 379 6 378 6 383 6 383 6 378 6 385 6 375 152 385 152 373 152 373 152 385 152 384 152 373 152 384 152 382 152 375 152 377 152 385 152 385 152 377 152 383 152 383 152 377 152 372 152 383 152 372 152 382 152 382 152 372 152 373 152 371 249 386 249 374 249 374 133 386 133 387 133 374 133 387 133 376 133 376 133 387 133 370 133 370 133 387 133 388 133 370 133 388 133 389 133 386 134 371 134 389 134 389 133 371 133 370 133 388 0 387 0 390 0 390 0 387 0 391 0 389 2 388 2 392 2 392 2 388 2 390 2 386 5 389 5 393 5 393 5 389 5 392 5 387 6 386 6 391 6 391 6 386 6 393 6 368 152 393 152 369 152 369 152 393 152 392 152 369 152 392 152 390 152 368 152 367 152 393 152 393 152 367 152 391 152 391 250 367 250 366 250 391 245 366 245 390 245 390 152 366 152 369 152 394 0 395 0 186 0 186 0 395 0 188 0 395 6 396 6 188 6 188 6 396 6 189 6 397 2 394 2 190 2 190 2 394 2 186 2 398 2 399 2 400 2 400 2 399 2 401 2 396 5 397 5 189 5 189 5 397 5 190 5 399 5 402 5 401 5 401 5 402 5 403 5 402 6 404 6 403 6 403 6 404 6 405 6 404 0 398 0 405 0 405 0 398 0 400 0 406 133 407 133 408 133 408 133 407 133 409 133 409 0 407 0 410 0 410 0 407 0 411 0 407 6 406 6 411 6 411 6 406 6 412 6 406 5 408 5 412 5 412 5 408 5 413 5 408 2 409 2 413 2 413 2 409 2 410 2 403 152 413 152 401 152 401 152 413 152 410 152 401 152 410 152 400 152 400 152 410 152 405 152 405 152 410 152 411 152 405 152 411 152 412 152 413 152 403 152 412 152 412 152 403 152 405 152 399 133 414 133 402 133 402 133 414 133 415 133 402 133 415 133 416 133 399 133 398 133 414 133 414 133 398 133 417 133 417 133 398 133 404 133 417 136 404 136 416 136 416 133 404 133 402 133 417 0 416 0 418 0 418 0 416 0 419 0 416 6 415 6 419 6 419 6 415 6 420 6 415 5 414 5 420 5 420 5 414 5 421 5 414 2 417 2 421 2 421 2 417 2 418 2 396 251 421 251 397 251 397 152 421 152 418 152 397 152 418 152 394 152 394 152 418 152 395 152 395 152 418 152 419 152 395 152 419 152 420 152 421 248 396 248 420 248 420 152 396 152 395 152</p>
        </triangles>
      </mesh>
    </geometry>
  </library_geometries>
  <library_visual_scenes>
    <visual_scene id="Scene" name="Scene">
      <node id="node_22772b40_d9ca_4b87_8f7e_1260249d5e80" name="node_22772b40_d9ca_4b87_8f7e_1260249d5e80" type="NODE">
        <matrix sid="transform">1 0 0 0 0 1 0 0 0 0 1 0 0 0 0 1</matrix>
        <node id="node_a2122ef6_3f9a_4961_ac7c_ea38f18c9d97" name="node_a2122ef6_3f9a_4961_ac7c_ea38f18c9d97" type="NODE">
          <matrix sid="transform">1 0 0 0 0 1 0 0 0 0 1 0 0 0 0 1</matrix>
          <node id="node_a2122ef6_3f9a_4961_ac7c_ea38f18c9d97_mesh0" name="node_a2122ef6_3f9a_4961_ac7c_ea38f18c9d97_mesh0" type="NODE">
            <matrix sid="transform">0.0254 0 0 0 0 0.0254 0 0 0 0 0.0254 0 0 0 0 1</matrix>
            <instance_geometry url="#geometry_db53e1c0_764a_4eb6_a3f9_50c8215b4fcf-mesh" name="node_a2122ef6_3f9a_4961_ac7c_ea38f18c9d97_mesh0"/>
          </node>
        </node>
      </node>
    </visual_scene>
  </library_visual_scenes>
  <scene>
    <instance_visual_scene url="#Scene"/>
  </scene>
</COLLADA>