<?xml version="1.0" encoding="utf-8"?>
<COLLADA xmlns="http://www.collada.org/2005/11/COLLADASchema" version="1.4.1" xmlns:xsi="http://www.w3.org/2001/XMLSchema-instance">
  <asset>
    <contributor>
      <author>Blender User</author>
      <authoring_tool>Blender 4.3.0 commit date:2024-11-19, commit time:08:52, hash:2b18cad88b13</authoring_tool>
    </contributor>
    <created>2025-09-26T14:53:34</created>
    <modified>2025-09-26T14:53:34</modified>
    <unit name="meter" meter="1"/>
    <up_axis>Z_UP</up_axis>
  </asset>
  <library_cameras>
    <camera id="Camera_001-camera" name="Camera.001">
      <optics>
        <technique_common>
          <perspective>
            <xfov sid="xfov">49.13434</xfov>
            <aspect_ratio>1.777778</aspect_ratio>
            <znear sid="znear">0.1</znear>
            <zfar sid="zfar">100</zfar>
          </perspective>
        </technique_common>
      </optics>
      <extra>
        <technique profile="blender">
          <shiftx sid="shiftx" type="float">0</shiftx>
          <shifty sid="shifty" type="float">0</shifty>
          <dof_distance sid="dof_distance" type="float">10</dof_distance>
        </technique>
      </extra>
    </camera>
    <camera id="Camera-camera" name="Camera">
      <optics>
        <technique_common>
          <perspective>
            <xfov sid="xfov">39.59775</xfov>
            <aspect_ratio>1.777778</aspect_ratio>
            <znear sid="znear">0.1</znear>
            <zfar sid="zfar">100</zfar>
          </perspective>
        </technique_common>
      </optics>
      <extra>
        <technique profile="blender">
          <shiftx sid="shiftx" type="float">0</shiftx>
          <shifty sid="shifty" type="float">0</shifty>
          <dof_distance sid="dof_distance" type="float">10</dof_distance>
        </technique>
      </extra>
    </camera>
  </library_cameras>
  <library_lights>
    <light id="Lamp-light" name="Lamp">
      <technique_common>
        <point>
          <color sid="color">1 1 1</color>
          <constant_attenuation>1</constant_attenuation>
          <linear_attenuation>0</linear_attenuation>
          <quadratic_attenuation>0</quadratic_attenuation>
        </point>
      </technique_common>
      <extra>
        <technique profile="blender">
          <type sid="type" type="int">0</type>
          <flag sid="flag" type="int">0</flag>
          <mode sid="mode" type="int">8192</mode>
          <red sid="red" type="float">1</red>
          <green sid="green" type="float">1</green>
          <blue sid="blue" type="float">1</blue>
          <energy sid="blender_energy" type="float">1</energy>
          <spotsize sid="spotsize" type="float">75</spotsize>
          <spotblend sid="spotblend" type="float">0.15</spotblend>
          <clipsta sid="clipsta" type="float">1.000799</clipsta>
          <clipend sid="clipend" type="float">30.002</clipend>
          <radius sid="radius" type="float">0</radius>
          <area_shape sid="area_shape" type="int">1</area_shape>
          <area_size sid="area_size" type="float">0.1</area_size>
          <area_sizey sid="area_sizey" type="float">0.1</area_sizey>
          <area_sizez sid="area_sizez" type="float">1</area_sizez>
        </technique>
      </extra>
    </light>
    <light id="Light-light" name="Light">
      <technique_common>
        <point>
          <color sid="color">1000 1000 1000</color>
          <constant_attenuation>1</constant_attenuation>
          <linear_attenuation>0</linear_attenuation>
          <quadratic_attenuation>0</quadratic_attenuation>
        </point>
      </technique_common>
      <extra>
        <technique profile="blender">
          <type sid="type" type="int">0</type>
          <flag sid="flag" type="int">0</flag>
          <mode sid="mode" type="int">2097153</mode>
          <red sid="red" type="float">1</red>
          <green sid="green" type="float">1</green>
          <blue sid="blue" type="float">1</blue>
          <energy sid="blender_energy" type="float">1000</energy>
          <spotsize sid="spotsize" type="float">75</spotsize>
          <spotblend sid="spotblend" type="float">0.15</spotblend>
          <clipsta sid="clipsta" type="float">0.04999995</clipsta>
          <clipend sid="clipend" type="float">40</clipend>
          <radius sid="radius" type="float">0.1</radius>
          <area_shape sid="area_shape" type="int">1</area_shape>
          <area_size sid="area_size" type="float">0.1</area_size>
          <area_sizey sid="area_sizey" type="float">0.1</area_sizey>
          <area_sizez sid="area_sizez" type="float">1</area_sizez>
        </technique>
      </extra>
    </light>
  </library_lights>
  <library_effects>
    <effect id="__647059_0_647059_0_647059_0_000000_0_000000-effect">
      <profile_COMMON>
        <technique sid="common">
          <lambert>
            <emission>
              <color sid="emission">0 0 0 1</color>
            </emission>
            <diffuse>
              <color sid="diffuse">0.6471 0.6471 0.6471 1</color>
            </diffuse>
            <index_of_refraction>
              <float sid="ior">1.5</float>
            </index_of_refraction>
          </lambert>
        </technique>
      </profile_COMMON>
    </effect>
  </library_effects>
  <library_images/>
  <library_materials>
    <material id="__647059_0_647059_0_647059_0_000000_0_000000-material" name="0.647059_0.647059_0.647059_0.000000_0.000000">
      <instance_effect url="#__647059_0_647059_0_647059_0_000000_0_000000-effect"/>
    </material>
  </library_materials>
  <library_geometries>
    <geometry id="mesh24-mesh" name="mesh24">
      <mesh>
        <source id="mesh24-mesh-positions">
          <float_array id="mesh24-mesh-positions-array" count="3138">0.118107 -0.105 0.01799994 0.1182 -0.103282 0.01799994 0.118479 -0.101584 0.01799994 0.128117 -0.090236 0.01799994 0.129748 -0.08968645 0.01799994 0.131429 -0.0893166 0.01799994 0.13314 -0.08913046 0.01799994 0.13486 -0.08913046 0.01799994 0.136571 -0.0893166 0.01799994 0.138252 -0.08968645 0.01799994 0.139883 -0.090236 0.01799994 0.141444 -0.09095847 0.01799994 0.142919 -0.09184569 0.01799994 0.144289 -0.0928871 0.01799994 0.145538 -0.09407049 0.01799994 0.146652 -0.09538209 0.01799994 0.1476179 -0.0968064 0.01799994 0.148424 -0.0983268 0.01799994 0.149061 -0.09992539 0.01799994 0.1495209 -0.101584 0.01799994 0.1498 -0.103282 0.01799994 0.149893 -0.105 0.01799994 0.1498 -0.106718 0.01799994 0.1495209 -0.108416 0.01799994 0.149061 -0.1100749 0.01799994 0.148424 -0.1116729 0.01799994 0.1476179 -0.113194 0.01799994 0.146652 -0.114618 0.01799994 0.145538 -0.115929 0.01799994 0.144289 -0.117113 0.01799994 0.142919 -0.118154 0.01799994 0.141444 -0.119041 0.01799994 0.139883 -0.119764 0.01799994 0.138252 -0.120314 0.01799994 0.136571 -0.120683 0.01799994 0.13486 -0.120869 0.01799994 0.13314 -0.120869 0.01799994 0.131429 -0.120683 0.01799994 0.129748 -0.120314 0.01799994 0.128117 -0.119764 0.01799994 0.126556 -0.119041 0.01799994 0.125081 -0.118154 0.01799994 0.123711 -0.117113 0.01799994 0.122462 -0.115929 0.01799994 0.121348 -0.114618 0.01799994 0.120382 -0.113194 0.01799994 0.119576 -0.1116729 0.01799994 0.118939 -0.1100749 0.01799994 0.118479 -0.108416 0.01799994 0.1182 -0.106718 0.01799994 0.126556 -0.09095847 0.01799994 0.125081 -0.09184569 0.01799994 0.123711 -0.0928871 0.01799994 0.122462 -0.09407049 0.01799994 0.121348 -0.09538209 0.01799994 0.120382 -0.0968064 0.01799994 0.119576 -0.0983268 0.01799994 0.118939 -0.09992539 0.01799994 0.134 -0.105 0.01799994 -0.004648387 0.02794075 0.002999961 -0.03080368 0.03267508 0.002999961 -0.127946 0.119306 0.002999961 -0.118711 0.129661 0.002999961 -0.125081 0.120846 0.002999961 -0.126556 0.1199589 0.002999961 -0.121348 0.124382 0.002999961 -0.122462 0.123071 0.002999961 -0.123711 0.121887 0.002999961 -0.119576 0.127327 0.002999961 -0.120382 0.125806 0.002999961 -0.118939 0.128925 0.002999961 -0.127946 0.119306 0.002999961 -0.127946 0.119306 0 -0.118711 0.129661 0.002999961 -0.118711 0.129661 0 -0.125081 0.120846 0.002999961 -0.126556 0.1199589 0.002999961 -0.121348 0.124382 0.002999961 -0.122462 0.123071 0.002999961 -0.123711 0.121887 0.002999961 -0.119576 0.127327 0.002999961 -0.120382 0.125806 0.002999961 -0.118939 0.128925 0.002999961 -0.149893 0.134 0 -0.149893 0.134 0.01799994 -0.1498 0.135718 0.01799994 -0.1498 0.135718 0 -0.1495209 0.137416 0.01799994 -0.1495209 0.137416 0 -0.149061 0.139075 0.01799994 -0.149061 0.139075 0 -0.148424 0.140673 0.01799994 -0.148424 0.140673 0 -0.1476179 0.142194 0.01799994 -0.1476179 0.142194 0 -0.146652 0.143618 0.01799994 -0.146652 0.143618 0 -0.145538 0.144929 0.01799994 -0.145538 0.144929 0 -0.144289 0.146113 0.01799994 -0.144289 0.146113 0 -0.142919 0.147154 0.01799994 -0.142919 0.147154 0 -0.141444 0.148041 0.01799994 -0.141444 0.148041 0 -0.139883 0.148764 0.01799994 -0.139883 0.148764 0 -0.138252 0.149314 0.01799994 -0.138252 0.149314 0 -0.136571 0.1496829 0.01799994 -0.136571 0.1496829 0 -0.13486 0.149869 0.01799994 -0.13486 0.149869 0 -0.13314 0.149869 0.01799994 -0.13314 0.149869 0 -0.131429 0.1496829 0.01799994 -0.131429 0.1496829 0 -0.129748 0.149314 0.01799994 -0.129748 0.149314 0 -0.128117 0.148764 0.01799994 -0.128117 0.148764 0 -0.126556 0.148041 0.01799994 -0.126556 0.148041 0 -0.125081 0.147154 0.01799994 -0.125081 0.147154 0 -0.123711 0.146113 0.01799994 -0.123711 0.146113 0 -0.122462 0.144929 0.01799994 -0.122462 0.144929 0 -0.121348 0.143618 0.01799994 -0.121348 0.143618 0 -0.120382 0.142194 0.01799994 -0.120382 0.142194 0 -0.119576 0.140673 0.01799994 -0.119576 0.140673 0 -0.118939 0.139075 0.01799994 -0.118939 0.139075 0 -0.118479 0.137416 0.01799994 -0.118479 0.137416 0 -0.1182 0.135718 0.01799994 -0.1182 0.135718 0 -0.118107 0.134 0.01799994 -0.118107 0.134 0 -0.1182 0.132282 0.01799994 -0.1182 0.132282 0 -0.118479 0.130584 0.01799994 -0.128117 0.119236 0 -0.128117 0.119236 0.01799994 -0.129748 0.118686 0.01799994 -0.129748 0.118686 0 -0.131429 0.118317 0.01799994 -0.131429 0.118317 0 -0.13314 0.118131 0.01799994 -0.13314 0.118131 0 -0.13486 0.118131 0.01799994 -0.13486 0.118131 0 -0.136571 0.118317 0.01799994 -0.136571 0.118317 0 -0.138252 0.118686 0.01799994 -0.138252 0.118686 0 -0.139883 0.119236 0.01799994 -0.139883 0.119236 0 -0.141444 0.1199589 0.01799994 -0.141444 0.1199589 0 -0.142919 0.120846 0.01799994 -0.142919 0.120846 0 -0.144289 0.121887 0.01799994 -0.144289 0.121887 0 -0.145538 0.123071 0.01799994 -0.145538 0.123071 0 -0.146652 0.124382 0.01799994 -0.146652 0.124382 0 -0.1476179 0.125806 0.01799994 -0.1476179 0.125806 0 -0.148424 0.127327 0.01799994 -0.148424 0.127327 0 -0.149061 0.128925 0.01799994 -0.149061 0.128925 0 -0.1495209 0.130584 0.01799994 -0.1495209 0.130584 0 -0.1498 0.132282 0.01799994 -0.1498 0.132282 0 -0.126556 0.1199589 0.01799994 -0.125081 0.120846 0.01799994 -0.123711 0.121887 0.01799994 -0.122462 0.123071 0.01799994 -0.121348 0.124382 0.01799994 -0.120382 0.125806 0.01799994 -0.119576 0.127327 0.01799994 -0.118939 0.128925 0.01799994 -0.118479 0.130584 0 -0.149893 0.134 0.01799994 -0.1498 0.135718 0.01799994 -0.1495209 0.137416 0.01799994 -0.149061 0.139075 0.01799994 -0.148424 0.140673 0.01799994 -0.1476179 0.142194 0.01799994 -0.146652 0.143618 0.01799994 -0.145538 0.144929 0.01799994 -0.144289 0.146113 0.01799994 -0.142919 0.147154 0.01799994 -0.141444 0.148041 0.01799994 -0.139883 0.148764 0.01799994 -0.138252 0.149314 0.01799994 -0.136571 0.1496829 0.01799994 -0.13486 0.149869 0.01799994 -0.13314 0.149869 0.01799994 -0.131429 0.1496829 0.01799994 -0.129748 0.149314 0.01799994 -0.128117 0.148764 0.01799994 -0.126556 0.148041 0.01799994 -0.125081 0.147154 0.01799994 -0.123711 0.146113 0.01799994 -0.122462 0.144929 0.01799994 -0.121348 0.143618 0.01799994 -0.120382 0.142194 0.01799994 -0.119576 0.140673 0.01799994 -0.118939 0.139075 0.01799994 -0.118479 0.137416 0.01799994 -0.1182 0.135718 0.01799994 -0.118107 0.134 0.01799994 -0.1182 0.132282 0.01799994 -0.118479 0.130584 0.01799994 -0.128117 0.119236 0.01799994 -0.129748 0.118686 0.01799994 -0.131429 0.118317 0.01799994 -0.13314 0.118131 0.01799994 -0.13486 0.118131 0.01799994 -0.136571 0.118317 0.01799994 -0.138252 0.118686 0.01799994 -0.139883 0.119236 0.01799994 -0.141444 0.1199589 0.01799994 -0.142919 0.120846 0.01799994 -0.144289 0.121887 0.01799994 -0.145538 0.123071 0.01799994 -0.146652 0.124382 0.01799994 -0.1476179 0.125806 0.01799994 -0.148424 0.127327 0.01799994 -0.149061 0.128925 0.01799994 -0.1495209 0.130584 0.01799994 -0.1498 0.132282 0.01799994 -0.126556 0.1199589 0.01799994 -0.125081 0.120846 0.01799994 -0.123711 0.121887 0.01799994 -0.122462 0.123071 0.01799994 -0.121348 0.124382 0.01799994 -0.120382 0.125806 0.01799994 -0.119576 0.127327 0.01799994 -0.118939 0.128925 0.01799994 -0.134 0.134 0.01799994 0.118107 0.105 0 0.1182 0.106718 0 0.118479 0.108416 0 0.118939 0.1100749 0 0.119576 0.1116729 0 0.120382 0.113194 0 0.121348 0.114618 0 0.122462 0.115929 0 0.123711 0.117113 0 0.125081 0.118154 0 0.126556 0.119041 0 0.128117 0.119764 0 0.129748 0.120314 0 0.131429 0.120683 0 0.13314 0.120869 0 0.13486 0.120869 0 0.136571 0.120683 0 0.138252 0.120314 0 0.139883 0.119764 0 0.141444 0.119041 0 0.142919 0.118154 0 0.144289 0.117113 0 0.145538 0.115929 0 0.146652 0.114618 0 0.1476179 0.113194 0 0.148424 0.1116729 0 0.149061 0.1100749 0 0.1495209 0.108416 0 0.1498 0.106718 0 0.149893 0.105 0 0.1498 0.103282 0 0.1495209 0.101584 0 0.149061 0.09992539 0 0.148424 0.0983268 0 0.1476179 0.0968064 0 0.146652 0.09538209 0 0.145538 0.09407049 0 0.144289 0.0928871 0 0.142919 0.09184569 0 0.141444 0.09095847 0 0.139883 0.090236 0 0.138252 0.08968645 0 0.136571 0.0893166 0 0.13486 0.08913046 0 0.13314 0.08913046 0 0.131429 0.0893166 0 0.129748 0.08968645 0 0.118479 0.101584 0 0.1182 0.103282 0 0.118711 0.100661 0 0.128117 0.090236 0 0.127946 0.0903055 0 0.05028289 0.02104645 0 0.03295367 0.02418315 0 -0.118529 0.0516029 0 -0.03509294 0.03650027 0 0.166556 0 0 -0.008937656 0.03176587 0 -0.118529 -0.0516029 0 -0.127946 0.119306 0 -0.118711 0.129661 0 -0.149893 0.134 0 -0.1498 0.135718 0 -0.1495209 0.137416 0 -0.149061 0.139075 0 -0.148424 0.140673 0 -0.1476179 0.142194 0 -0.146652 0.143618 0 -0.145538 0.144929 0 -0.144289 0.146113 0 -0.142919 0.147154 0 -0.141444 0.148041 0 -0.139883 0.148764 0 -0.138252 0.149314 0 -0.136571 0.1496829 0 -0.13486 0.149869 0 -0.13314 0.149869 0 -0.131429 0.1496829 0 -0.129748 0.149314 0 -0.128117 0.148764 0 -0.126556 0.148041 0 -0.125081 0.147154 0 -0.123711 0.146113 0 -0.122462 0.144929 0 -0.121348 0.143618 0 -0.120382 0.142194 0 -0.119576 0.140673 0 -0.118939 0.139075 0 -0.118479 0.137416 0 -0.1182 0.135718 0 -0.118107 0.134 0 -0.1182 0.132282 0 -0.128117 0.119236 0 -0.129748 0.118686 0 -0.131429 0.118317 0 -0.13314 0.118131 0 -0.13486 0.118131 0 -0.136571 0.118317 0 -0.138252 0.118686 0 -0.139883 0.119236 0 -0.141444 0.1199589 0 -0.142919 0.120846 0 -0.144289 0.121887 0 -0.145538 0.123071 0 -0.146652 0.124382 0 -0.1476179 0.125806 0 -0.148424 0.127327 0 -0.149061 0.128925 0 -0.1495209 0.130584 0 -0.1498 0.132282 0 -0.118479 0.130584 0 0.128117 -0.090236 0 0.146652 -0.09538209 0 0.1476179 -0.0968064 0 0.142919 -0.09184569 0 0.144289 -0.0928871 0 0.139883 -0.090236 0 0.141444 -0.09095847 0 0.131429 -0.0893166 0 0.136571 -0.0893166 0 0.138252 -0.08968645 0 0.13314 -0.08913046 0 -0.128117 -0.119236 0 -0.13314 -0.118131 0 -0.131429 -0.118317 0 -0.139883 -0.119236 0 -0.138252 -0.118686 0 -0.142919 -0.120846 0 -0.141444 -0.1199589 0 -0.145538 -0.123071 0 -0.144289 -0.121887 0 0.145538 -0.09407049 0 0.13486 -0.08913046 0 0.129748 -0.08968645 0 0.13486 -0.120869 0 0.13314 -0.120869 0 -0.118479 -0.130584 0 -0.118107 -0.134 0 -0.1182 -0.135718 0 -0.13486 -0.149869 0 -0.136571 -0.1496829 0 -0.13486 -0.118131 0 -0.136571 -0.118317 0 -0.148424 -0.140673 0 -0.149061 -0.139075 0 0.146652 -0.114618 0 0.145538 -0.115929 0 0.1495209 -0.108416 0 0.149061 -0.1100749 0 0.148424 -0.0983268 0 0.149061 -0.09992539 0 0.136571 -0.120683 0 0.119576 -0.1116729 0 0.118107 -0.105 0 0.1182 -0.103282 0 0.118479 -0.101584 0 0.122462 -0.115929 0 0.121348 -0.114618 0 -0.1182 -0.132282 0 -0.13314 -0.149869 0 -0.129748 -0.149314 0 -0.131429 -0.1496829 0 -0.146652 -0.124382 0 -0.1498 -0.132282 0 -0.1495209 -0.130584 0 -0.1498 -0.135718 0 -0.149893 -0.134 0 -0.1495209 -0.137416 0 0.142919 -0.118154 0 0.141444 -0.119041 0 0.144289 -0.117113 0 0.1498 -0.106718 0 0.1498 -0.103282 0 0.149893 -0.105 0 0.1495209 -0.101584 0 0.125081 -0.118154 0 0.123711 -0.117113 0 0.127946 -0.0903055 0 0.138252 -0.120314 0 0.1182 -0.106718 0 0.118939 -0.1100749 0 0.118479 -0.108416 0 0.120382 -0.113194 0 -0.120382 -0.142194 0 -0.121348 -0.143618 0 -0.118939 -0.139075 0 -0.119576 -0.140673 0 -0.118479 -0.137416 0 -0.125081 -0.147154 0 -0.126556 -0.148041 0 -0.148424 -0.127327 0 -0.1476179 -0.125806 0 -0.149061 -0.128925 0 -0.146652 -0.143618 0 -0.1476179 -0.142194 0 -0.144289 -0.146113 0 -0.145538 -0.144929 0 -0.141444 -0.148041 0 -0.142919 -0.147154 0 -0.03509294 -0.03650027 0 0.148424 -0.1116729 0 0.1476179 -0.113194 0 0.126556 -0.119041 0 0.131429 -0.120683 0 0.129748 -0.120314 0 0.139883 -0.119764 0 -0.122462 -0.144929 0 -0.118711 -0.129661 0 -0.127946 -0.119306 0 0.05028289 -0.02104645 0 0.03295367 -0.02418315 0 -0.138252 -0.149314 0 -0.128117 -0.148764 0 -0.139883 -0.148764 0 0.128117 -0.119764 0 0.118711 -0.100661 0 -0.123711 -0.146113 0 -0.008937656 -0.03176587 0 -0.129748 -0.118686 0 -0.03509294 -0.03650027 0 -0.127946 -0.119306 0 -0.127946 -0.119306 0.002999961 -0.03080368 -0.03267508 0.002999961 -0.118711 -0.129661 0 -0.008937656 -0.03176587 0 -0.118711 -0.129661 0.002999961 -0.004648387 -0.02794075 0.002999961 -0.127946 -0.119306 0.002999961 -0.03080368 -0.03267508 0.002999961 -0.118711 -0.129661 0.002999961 -0.004648387 -0.02794075 0.002999961 -0.121348 -0.124382 0.002999961 -0.126556 -0.1199589 0.002999961 -0.123711 -0.121887 0.002999961 -0.122462 -0.123071 0.002999961 -0.125081 -0.120846 0.002999961 -0.120382 -0.125806 0.002999961 -0.119576 -0.127327 0.002999961 -0.118939 -0.128925 0.002999961 -0.05801856 0 0.03999996 0.166556 0 0 -0.118529 -0.0516029 0 -0.118529 -0.01095288 0.03999996 -0.03509294 -0.03650027 0 0.05028289 -0.02104645 0 0.03295367 -0.02418315 0 -0.008937656 -0.03176587 0 -0.03080368 -0.03267508 0.002999961 -0.004648387 -0.02794075 0.002999961 0.03011184 -0.02164888 0.002999961 0.04744094 -0.01851207 0.002999961 0.03295367 -0.02418315 0 0.118711 -0.100661 0 0.03011184 -0.02164888 0.002999961 0.118711 -0.100661 0.002999961 0.127946 -0.0903055 0 0.05028289 -0.02104645 0 0.04744094 -0.01851207 0.002999961 0.127946 -0.0903055 0.002999961 0.03011184 -0.02164888 0.002999961 0.04744094 -0.01851207 0.002999961 0.118711 -0.100661 0.002999961 0.127946 -0.0903055 0.002999961 0.121348 -0.09538209 0.002999961 0.122462 -0.09407049 0.002999961 0.118939 -0.09992539 0.002999961 0.125081 -0.09184569 0.002999961 0.126556 -0.09095847 0.002999961 0.120382 -0.0968064 0.002999961 0.119576 -0.0983268 0.002999961 0.123711 -0.0928871 0.002999961 -0.128117 -0.119236 0 -0.13314 -0.118131 0 -0.131429 -0.118317 0 -0.139883 -0.119236 0 -0.138252 -0.118686 0 -0.142919 -0.120846 0 -0.141444 -0.1199589 0 -0.145538 -0.123071 0 -0.144289 -0.121887 0 -0.118479 -0.130584 0 -0.118107 -0.134 0 -0.1182 -0.135718 0 -0.13486 -0.149869 0 -0.136571 -0.1496829 0 -0.13486 -0.118131 0 -0.136571 -0.118317 0 -0.148424 -0.140673 0 -0.149061 -0.139075 0 -0.1182 -0.132282 0 -0.13314 -0.149869 0 -0.129748 -0.149314 0 -0.131429 -0.1496829 0 -0.146652 -0.124382 0 -0.1498 -0.132282 0 -0.1495209 -0.130584 0 -0.1498 -0.135718 0 -0.149893 -0.134 0 -0.1495209 -0.137416 0 -0.120382 -0.142194 0 -0.121348 -0.143618 0 -0.118939 -0.139075 0 -0.119576 -0.140673 0 -0.118479 -0.137416 0 -0.125081 -0.147154 0 -0.126556 -0.148041 0 -0.148424 -0.127327 0 -0.1476179 -0.125806 0 -0.149061 -0.128925 0 -0.146652 -0.143618 0 -0.1476179 -0.142194 0 -0.144289 -0.146113 0 -0.145538 -0.144929 0 -0.141444 -0.148041 0 -0.142919 -0.147154 0 -0.122462 -0.144929 0 -0.118711 -0.129661 0 -0.127946 -0.119306 0 -0.138252 -0.149314 0 -0.128117 -0.148764 0 -0.139883 -0.148764 0 -0.123711 -0.146113 0 -0.129748 -0.118686 0 -0.127946 -0.119306 0.002999961 -0.118711 -0.129661 0.002999961 -0.121348 -0.124382 0.002999961 -0.126556 -0.1199589 0.002999961 -0.123711 -0.121887 0.002999961 -0.122462 -0.123071 0.002999961 -0.125081 -0.120846 0.002999961 -0.120382 -0.125806 0.002999961 -0.119576 -0.127327 0.002999961 -0.118939 -0.128925 0.002999961 -0.149893 -0.134 0.01799994 -0.1498 -0.132282 0.01799994 -0.1495209 -0.130584 0.01799994 -0.149061 -0.128925 0.01799994 -0.148424 -0.127327 0.01799994 -0.1476179 -0.125806 0.01799994 -0.146652 -0.124382 0.01799994 -0.145538 -0.123071 0.01799994 -0.144289 -0.121887 0.01799994 -0.142919 -0.120846 0.01799994 -0.141444 -0.1199589 0.01799994 -0.139883 -0.119236 0.01799994 -0.138252 -0.118686 0.01799994 -0.136571 -0.118317 0.01799994 -0.13486 -0.118131 0.01799994 -0.13314 -0.118131 0.01799994 -0.131429 -0.118317 0.01799994 -0.129748 -0.118686 0.01799994 -0.128117 -0.119236 0.01799994 -0.118479 -0.130584 0.01799994 -0.1182 -0.132282 0.01799994 -0.118107 -0.134 0.01799994 -0.1182 -0.135718 0.01799994 -0.118479 -0.137416 0.01799994 -0.118939 -0.139075 0.01799994 -0.119576 -0.140673 0.01799994 -0.120382 -0.142194 0.01799994 -0.121348 -0.143618 0.01799994 -0.122462 -0.144929 0.01799994 -0.123711 -0.146113 0.01799994 -0.125081 -0.147154 0.01799994 -0.126556 -0.148041 0.01799994 -0.128117 -0.148764 0.01799994 -0.129748 -0.149314 0.01799994 -0.131429 -0.1496829 0.01799994 -0.13314 -0.149869 0.01799994 -0.13486 -0.149869 0.01799994 -0.136571 -0.1496829 0.01799994 -0.138252 -0.149314 0.01799994 -0.139883 -0.148764 0.01799994 -0.141444 -0.148041 0.01799994 -0.142919 -0.147154 0.01799994 -0.144289 -0.146113 0.01799994 -0.145538 -0.144929 0.01799994 -0.146652 -0.143618 0.01799994 -0.1476179 -0.142194 0.01799994 -0.148424 -0.140673 0.01799994 -0.149061 -0.139075 0.01799994 -0.1495209 -0.137416 0.01799994 -0.1498 -0.135718 0.01799994 -0.118939 -0.128925 0.01799994 -0.119576 -0.127327 0.01799994 -0.120382 -0.125806 0.01799994 -0.121348 -0.124382 0.01799994 -0.122462 -0.123071 0.01799994 -0.123711 -0.121887 0.01799994 -0.125081 -0.120846 0.01799994 -0.126556 -0.1199589 0.01799994 -0.149893 -0.134 0.01799994 -0.1498 -0.132282 0.01799994 -0.1495209 -0.130584 0.01799994 -0.149061 -0.128925 0.01799994 -0.148424 -0.127327 0.01799994 -0.1476179 -0.125806 0.01799994 -0.146652 -0.124382 0.01799994 -0.145538 -0.123071 0.01799994 -0.144289 -0.121887 0.01799994 -0.142919 -0.120846 0.01799994 -0.141444 -0.1199589 0.01799994 -0.139883 -0.119236 0.01799994 -0.138252 -0.118686 0.01799994 -0.136571 -0.118317 0.01799994 -0.13486 -0.118131 0.01799994 -0.13314 -0.118131 0.01799994 -0.131429 -0.118317 0.01799994 -0.129748 -0.118686 0.01799994 -0.128117 -0.119236 0.01799994 -0.118479 -0.130584 0.01799994 -0.1182 -0.132282 0.01799994 -0.118107 -0.134 0.01799994 -0.1182 -0.135718 0.01799994 -0.118479 -0.137416 0.01799994 -0.118939 -0.139075 0.01799994 -0.119576 -0.140673 0.01799994 -0.120382 -0.142194 0.01799994 -0.121348 -0.143618 0.01799994 -0.122462 -0.144929 0.01799994 -0.123711 -0.146113 0.01799994 -0.125081 -0.147154 0.01799994 -0.126556 -0.148041 0.01799994 -0.128117 -0.148764 0.01799994 -0.129748 -0.149314 0.01799994 -0.131429 -0.1496829 0.01799994 -0.13314 -0.149869 0.01799994 -0.13486 -0.149869 0.01799994 -0.136571 -0.1496829 0.01799994 -0.138252 -0.149314 0.01799994 -0.139883 -0.148764 0.01799994 -0.141444 -0.148041 0.01799994 -0.142919 -0.147154 0.01799994 -0.144289 -0.146113 0.01799994 -0.145538 -0.144929 0.01799994 -0.146652 -0.143618 0.01799994 -0.1476179 -0.142194 0.01799994 -0.148424 -0.140673 0.01799994 -0.149061 -0.139075 0.01799994 -0.1495209 -0.137416 0.01799994 -0.1498 -0.135718 0.01799994 -0.118939 -0.128925 0.01799994 -0.119576 -0.127327 0.01799994 -0.120382 -0.125806 0.01799994 -0.121348 -0.124382 0.01799994 -0.122462 -0.123071 0.01799994 -0.123711 -0.121887 0.01799994 -0.125081 -0.120846 0.01799994 -0.126556 -0.1199589 0.01799994 -0.134 -0.134 0.01799994 0.128117 -0.090236 0 0.146652 -0.09538209 0 0.1476179 -0.0968064 0 0.142919 -0.09184569 0 0.144289 -0.0928871 0 0.139883 -0.090236 0 0.141444 -0.09095847 0 0.131429 -0.0893166 0 0.136571 -0.0893166 0 0.138252 -0.08968645 0 0.13314 -0.08913046 0 0.145538 -0.09407049 0 0.13486 -0.08913046 0 0.129748 -0.08968645 0 0.13486 -0.120869 0 0.13314 -0.120869 0 0.146652 -0.114618 0 0.145538 -0.115929 0 0.1495209 -0.108416 0 0.149061 -0.1100749 0 0.148424 -0.0983268 0 0.149061 -0.09992539 0 0.136571 -0.120683 0 0.119576 -0.1116729 0 0.118107 -0.105 0 0.1182 -0.103282 0 0.118479 -0.101584 0 0.122462 -0.115929 0 0.121348 -0.114618 0 0.142919 -0.118154 0 0.141444 -0.119041 0 0.144289 -0.117113 0 0.1498 -0.106718 0 0.1498 -0.103282 0 0.149893 -0.105 0 0.1495209 -0.101584 0 0.125081 -0.118154 0 0.123711 -0.117113 0 0.127946 -0.0903055 0 0.138252 -0.120314 0 0.1182 -0.106718 0 0.118939 -0.1100749 0 0.118479 -0.108416 0 0.120382 -0.113194 0 0.148424 -0.1116729 0 0.1476179 -0.113194 0 0.126556 -0.119041 0 0.131429 -0.120683 0 0.129748 -0.120314 0 0.139883 -0.119764 0 0.128117 -0.119764 0 0.118711 -0.100661 0 0.118711 -0.100661 0.002999961 0.127946 -0.0903055 0.002999961 0.121348 -0.09538209 0.002999961 0.122462 -0.09407049 0.002999961 0.118939 -0.09992539 0.002999961 0.125081 -0.09184569 0.002999961 0.126556 -0.09095847 0.002999961 0.120382 -0.0968064 0.002999961 0.119576 -0.0983268 0.002999961 0.123711 -0.0928871 0.002999961 0.118107 -0.105 0.01799994 0.1182 -0.103282 0.01799994 0.118479 -0.101584 0.01799994 0.128117 -0.090236 0.01799994 0.129748 -0.08968645 0.01799994 0.131429 -0.0893166 0.01799994 0.13314 -0.08913046 0.01799994 0.13486 -0.08913046 0.01799994 0.136571 -0.0893166 0.01799994 0.138252 -0.08968645 0.01799994 0.139883 -0.090236 0.01799994 0.141444 -0.09095847 0.01799994 0.142919 -0.09184569 0.01799994 0.144289 -0.0928871 0.01799994 0.145538 -0.09407049 0.01799994 0.146652 -0.09538209 0.01799994 0.1476179 -0.0968064 0.01799994 0.148424 -0.0983268 0.01799994 0.149061 -0.09992539 0.01799994 0.1495209 -0.101584 0.01799994 0.1498 -0.103282 0.01799994 0.149893 -0.105 0.01799994 0.1498 -0.106718 0.01799994 0.1495209 -0.108416 0.01799994 0.149061 -0.1100749 0.01799994 0.148424 -0.1116729 0.01799994 0.1476179 -0.113194 0.01799994 0.146652 -0.114618 0.01799994 0.145538 -0.115929 0.01799994 0.144289 -0.117113 0.01799994 0.142919 -0.118154 0.01799994 0.141444 -0.119041 0.01799994 0.139883 -0.119764 0.01799994 0.138252 -0.120314 0.01799994 0.136571 -0.120683 0.01799994 0.13486 -0.120869 0.01799994 0.13314 -0.120869 0.01799994 0.131429 -0.120683 0.01799994 0.129748 -0.120314 0.01799994 0.128117 -0.119764 0.01799994 0.126556 -0.119041 0.01799994 0.125081 -0.118154 0.01799994 0.123711 -0.117113 0.01799994 0.122462 -0.115929 0.01799994 0.121348 -0.114618 0.01799994 0.120382 -0.113194 0.01799994 0.119576 -0.1116729 0.01799994 0.118939 -0.1100749 0.01799994 0.118479 -0.108416 0.01799994 0.1182 -0.106718 0.01799994 0.126556 -0.09095847 0.01799994 0.125081 -0.09184569 0.01799994 0.123711 -0.0928871 0.01799994 0.122462 -0.09407049 0.01799994 0.121348 -0.09538209 0.01799994 0.120382 -0.0968064 0.01799994 0.119576 -0.0983268 0.01799994 0.118939 -0.09992539 0.01799994 -0.05801856 0 0.03999996 -0.118529 0.01095288 0.03999996 -0.118529 -0.01095288 0.03999996 0.1498 0.106718 0.01799994 0.1495209 0.108416 0.01799994 0.149061 0.1100749 0.01799994 0.148424 0.1116729 0.01799994 0.1476179 0.113194 0.01799994 0.146652 0.114618 0.01799994 0.145538 0.115929 0.01799994 0.144289 0.117113 0.01799994 0.142919 0.118154 0.01799994 0.141444 0.119041 0.01799994 0.139883 0.119764 0.01799994 0.138252 0.120314 0.01799994 0.136571 0.120683 0.01799994 0.13486 0.120869 0.01799994 0.13314 0.120869 0.01799994 0.131429 0.120683 0.01799994 0.129748 0.120314 0.01799994 0.128117 0.119764 0.01799994 0.126556 0.119041 0.01799994 0.125081 0.118154 0.01799994 0.123711 0.117113 0.01799994 0.122462 0.115929 0.01799994 0.121348 0.114618 0.01799994 0.120382 0.113194 0.01799994 0.119576 0.1116729 0.01799994 0.118939 0.1100749 0.01799994 0.118479 0.108416 0.01799994 0.1182 0.106718 0.01799994 0.118107 0.105 0.01799994 0.1182 0.103282 0.01799994 0.118479 0.101584 0.01799994 0.118939 0.09992539 0.01799994 0.119576 0.0983268 0.01799994 0.120382 0.0968064 0.01799994 0.121348 0.09538209 0.01799994 0.122462 0.09407049 0.01799994 0.123711 0.0928871 0.01799994 0.125081 0.09184569 0.01799994 0.126556 0.09095847 0.01799994 0.128117 0.090236 0.01799994 0.129748 0.08968645 0.01799994 0.131429 0.0893166 0.01799994 0.13314 0.08913046 0.01799994 0.13486 0.08913046 0.01799994 0.136571 0.0893166 0.01799994 0.138252 0.08968645 0.01799994 0.139883 0.090236 0.01799994 0.141444 0.09095847 0.01799994 0.142919 0.09184569 0.01799994 0.144289 0.0928871 0.01799994 0.145538 0.09407049 0.01799994 0.146652 0.09538209 0.01799994 0.1476179 0.0968064 0.01799994 0.148424 0.0983268 0.01799994 0.149061 0.09992539 0.01799994 0.1495209 0.101584 0.01799994 0.1498 0.103282 0.01799994 0.149893 0.105 0.01799994 0.134 0.105 0.01799994 0.1498 0.106718 0.01799994 0.1495209 0.108416 0.01799994 0.149061 0.1100749 0.01799994 0.148424 0.1116729 0.01799994 0.1476179 0.113194 0.01799994 0.146652 0.114618 0.01799994 0.145538 0.115929 0.01799994 0.144289 0.117113 0.01799994 0.142919 0.118154 0.01799994 0.141444 0.119041 0.01799994 0.139883 0.119764 0.01799994 0.138252 0.120314 0.01799994 0.136571 0.120683 0.01799994 0.13486 0.120869 0.01799994 0.13314 0.120869 0.01799994 0.131429 0.120683 0.01799994 0.129748 0.120314 0.01799994 0.128117 0.119764 0.01799994 0.126556 0.119041 0.01799994 0.125081 0.118154 0.01799994 0.123711 0.117113 0.01799994 0.122462 0.115929 0.01799994 0.121348 0.114618 0.01799994 0.120382 0.113194 0.01799994 0.119576 0.1116729 0.01799994 0.118939 0.1100749 0.01799994 0.118479 0.108416 0.01799994 0.1182 0.106718 0.01799994 0.118107 0.105 0.01799994 0.1182 0.103282 0.01799994 0.118479 0.101584 0.01799994 0.118939 0.09992539 0.01799994 0.119576 0.0983268 0.01799994 0.120382 0.0968064 0.01799994 0.121348 0.09538209 0.01799994 0.122462 0.09407049 0.01799994 0.123711 0.0928871 0.01799994 0.125081 0.09184569 0.01799994 0.126556 0.09095847 0.01799994 0.128117 0.090236 0.01799994 0.129748 0.08968645 0.01799994 0.131429 0.0893166 0.01799994 0.13314 0.08913046 0.01799994 0.13486 0.08913046 0.01799994 0.136571 0.0893166 0.01799994 0.138252 0.08968645 0.01799994 0.139883 0.090236 0.01799994 0.141444 0.09095847 0.01799994 0.142919 0.09184569 0.01799994 0.144289 0.0928871 0.01799994 0.145538 0.09407049 0.01799994 0.146652 0.09538209 0.01799994 0.1476179 0.0968064 0.01799994 0.148424 0.0983268 0.01799994 0.149061 0.09992539 0.01799994 0.1495209 0.101584 0.01799994 0.1498 0.103282 0.01799994 0.149893 0.105 0.01799994 0.118107 0.105 0 0.1182 0.106718 0 0.118479 0.108416 0 0.118939 0.1100749 0 0.119576 0.1116729 0 0.120382 0.113194 0 0.121348 0.114618 0 0.122462 0.115929 0 0.123711 0.117113 0 0.125081 0.118154 0 0.126556 0.119041 0 0.128117 0.119764 0 0.129748 0.120314 0 0.131429 0.120683 0 0.13314 0.120869 0 0.13486 0.120869 0 0.136571 0.120683 0 0.138252 0.120314 0 0.139883 0.119764 0 0.141444 0.119041 0 0.142919 0.118154 0 0.144289 0.117113 0 0.145538 0.115929 0 0.146652 0.114618 0 0.1476179 0.113194 0 0.148424 0.1116729 0 0.149061 0.1100749 0 0.1495209 0.108416 0 0.1498 0.106718 0 0.149893 0.105 0 0.1498 0.103282 0 0.1495209 0.101584 0 0.149061 0.09992539 0 0.148424 0.0983268 0 0.1476179 0.0968064 0 0.146652 0.09538209 0 0.145538 0.09407049 0 0.144289 0.0928871 0 0.142919 0.09184569 0 0.141444 0.09095847 0 0.139883 0.090236 0 0.138252 0.08968645 0 0.136571 0.0893166 0 0.13486 0.08913046 0 0.13314 0.08913046 0 0.131429 0.0893166 0 0.129748 0.08968645 0 0.118479 0.101584 0 0.1182 0.103282 0 0.118711 0.100661 0.002999961 0.118711 0.100661 0 0.119576 0.0983268 0.002999961 0.120382 0.0968064 0.002999961 0.121348 0.09538209 0.002999961 0.122462 0.09407049 0.002999961 0.123711 0.0928871 0.002999961 0.125081 0.09184569 0.002999961 0.126556 0.09095847 0.002999961 0.128117 0.090236 0 0.127946 0.0903055 0.002999961 0.127946 0.0903055 0 0.118939 0.09992539 0.002999961 0.127946 0.0903055 0.002999961 0.127946 0.0903055 0 0.04744094 0.01851207 0.002999961 0.05028289 0.02104645 0 0.118711 0.100661 0.002999961 0.118711 0.100661 0 0.03295367 0.02418315 0 0.03011184 0.02164888 0.002999961 0.118711 0.100661 0.002999961 0.119576 0.0983268 0.002999961 0.120382 0.0968064 0.002999961 0.121348 0.09538209 0.002999961 0.122462 0.09407049 0.002999961 0.123711 0.0928871 0.002999961 0.125081 0.09184569 0.002999961 0.126556 0.09095847 0.002999961 0.127946 0.0903055 0.002999961 0.118939 0.09992539 0.002999961 0.04744094 0.01851207 0.002999961 0.03011184 0.02164888 0.002999961 0.04744094 0.01851207 0.002999961 0.05028289 0.02104645 0 0.03295367 0.02418315 0 0.03011184 0.02164888 0.002999961 -0.05801856 0 0.03999996 -0.004648387 0.02794075 0.002999961 -0.118529 0.0516029 0 -0.118529 0.01095288 0.03999996 -0.03080368 0.03267508 0.002999961 -0.03509294 0.03650027 0 0.166556 0 0 -0.008937656 0.03176587 0 -0.118529 0.0516029 0 -0.118529 0.01095288 0.03999996 -0.118529 -0.0516029 0 -0.118529 -0.01095288 0.03999996 -0.03080368 0.03267508 0.002999961 -0.03509294 0.03650027 0 -0.127946 0.119306 0.002999961 -0.127946 0.119306 0 -0.004648387 0.02794075 0.002999961 -0.008937656 0.03176587 0 -0.118711 0.129661 0.002999961 -0.118711 0.129661 0</float_array>
          <technique_common>
            <accessor source="#mesh24-mesh-positions-array" count="1046" stride="3">
              <param name="X" type="float"/>
              <param name="Y" type="float"/>
              <param name="Z" type="float"/>
            </accessor>
          </technique_common>
        </source>
        <source id="mesh24-mesh-normals">
          <float_array id="mesh24-mesh-normals-array" count="1899">0 0 1 0 0 1 1.06545e-6 0 1 0 0 1 -1.06555e-6 0 1 1.06556e-6 0 1 0 0 1 -1.06545e-6 0 1 5.32725e-7 0 1 5.32705e-7 0 1 2.66442e-7 0 1 2.66431e-7 0 1 -2.66535e-7 0 1 2.66176e-7 0 1 5.32692e-7 0 1 -5.32844e-7 0 1 0 0 1 5.33011e-7 0 1 1.06567e-6 0 1 1.06557e-6 0 1 -1.06558e-6 0 1 -1.06568e-6 0 1 5.3279e-7 0 1 5.32844e-7 0 1 -2.66346e-7 0 1 0 0 1 2.66536e-7 0 1 -1.33224e-7 0 1 -1.33207e-7 0 1 0 0 1 0 0 1 1.84898e-7 0 1 0 0 1 -1.33414e-7 0 1 0 0 1 0 0 1 0 0 1 0 0 1 -4.83859e-7 0 1 -2.09845e-7 0 1 3.16602e-7 0 1 -1 -6.71427e-6 0 -1 6.71427e-6 0 -0.9941221 0.1082651 0 -0.9941236 0.1082518 0 -0.9766173 0.2149851 0 -0.9766187 0.214979 0 -0.9476832 0.3192126 0 -0.947685 0.319207 0 -0.9075829 0.4198731 0 -0.9075853 0.4198678 0 -0.8568432 0.5155773 0 -0.8568458 0.5155728 0 -0.795966 0.6053414 0 -0.7959626 0.6053459 0 -0.7260579 0.6876336 0 -0.7260566 0.6876349 0 -0.6474483 0.7621095 0 -0.6474519 0.7621063 0 -0.5610058 0.8278119 0 -0.5610017 0.8278147 0 -0.4684892 0.8834692 0 -0.4684886 0.8834696 0 -0.3704524 0.9288516 0 -0.3704538 0.9288509 0 -0.2673696 0.9635941 0 -0.2673726 0.9635933 0 -0.1614713 0.9868775 0 -0.1618092 0.9868221 0 -0.05411374 0.9985349 0 -0.05411303 0.9985349 0 0.05411386 0.9985349 0 0.05411452 0.9985348 0 0.1614729 0.9868772 0 0.1614721 0.9868773 0 0.2673726 0.9635933 0 0.2673675 0.9635947 0 0.3704566 0.9288498 0 0.3704475 0.9288535 0 0.468491 0.8834683 0 0.4684897 0.8834691 0 0.561002 0.8278146 0 0.5610055 0.8278122 0 0.6474478 0.7621099 0 0.6474483 0.7621095 0 0.7260576 0.687634 0 0.726058 0.6876335 0 0.7959656 0.6053419 0 0.7959625 0.605346 0 0.8568493 0.5155671 0 0.8568434 0.5155769 0 0.9075821 0.4198748 0 0.9075825 0.4198738 0 0.9476808 0.3192195 0 0.9476832 0.3192126 0 0.9766187 0.214979 0 0.9766203 0.2149716 0 0.9941229 0.1082584 0 0.9941236 0.1082507 0 1 3.37257e-7 0 1 -3.37257e-7 0 0.9941236 -0.1082507 0 0.9941229 -0.1082584 0 0.9766333 -0.2149127 8.87623e-5 0.3701394 -0.9289762 0 0.3702847 -0.9289183 2.76315e-4 0.2673675 -0.9635947 0 0.2673726 -0.9635933 0 0.1614742 -0.986877 0 0.1614751 -0.9868769 0 0.05411666 -0.9985346 0 0.05411601 -0.9985347 0 -0.05411523 -0.9985348 0 -0.05411589 -0.9985347 0 -0.1614742 -0.986877 0 -0.1614734 -0.9868771 0 -0.2673726 -0.9635933 0 -0.2673696 -0.9635941 0 -0.3704519 -0.9288516 0 -0.3704505 -0.9288523 0 -0.4684901 -0.8834688 0 -0.4684907 -0.8834685 0 -0.5610019 -0.8278145 0 -0.561006 -0.8278118 0 -0.6474517 -0.7621065 0 -0.6474481 -0.7621096 0 -0.7260579 -0.6876336 0 -0.7260591 -0.6876323 0 -0.7959625 -0.605346 0 -0.7959659 -0.6053416 0 -0.8568454 -0.5155736 0 -0.8568427 -0.5155779 0 -0.9075845 -0.4198696 0 -0.907582 -0.419875 0 -0.9476854 -0.3192059 0 -0.9476836 -0.3192116 0 -0.976619 -0.2149779 0 -0.9766176 -0.2149841 0 -0.9941236 -0.1082518 0 -0.9941221 -0.1082651 0 0.4684322 -0.8834995 2.58526e-5 0.3809465 -0.9245971 1.98551e-7 0.380922 -0.9246072 0 0.5610027 -0.827814 0 0.5610048 -0.8278126 0 0.6474485 -0.7621092 0 0.6474488 -0.7621089 0 0.7260586 -0.6876328 0 0.7260612 -0.6876302 0 0.7959629 -0.6053456 0 0.795965 -0.6053427 0 0.8568437 -0.5155764 0 0.8568458 -0.5155728 0 0.90758 -0.4198793 0 0.9075833 -0.4198721 0 0.9476525 -0.3193036 0 0.9476513 -0.3193072 1.03975e-5 0.9766181 -0.2149822 0 0.9620029 -0.2730394 -1.63622e-7 0.9620048 -0.2730327 1.4471e-6 0.4684255 -0.883503 0 0 0 1 -1.33206e-7 0 1 -1.33223e-7 0 1 1.33222e-7 0 1 1.33205e-7 0 1 -2.66305e-7 0 1 -2.6629e-7 0 1 -5.32839e-7 0 1 0 0 1 5.33011e-7 0 1 1.06568e-6 0 1 1.06558e-6 0 1 -1.06557e-6 0 1 -1.06567e-6 0 1 5.32786e-7 0 1 5.32839e-7 0 1 -1.33224e-7 0 1 -1.33207e-7 0 1 0 0 -1 -0.6655738 0.7463321 -1.49854e-7 -0.6655741 0.7463318 -9.76391e-6 -0.6655741 0.7463318 -9.67545e-6 -0.6655738 0.746332 0 0.6655739 -0.746332 -1.58172e-7 0.6655739 -0.746332 0 0.6655737 -0.7463321 -1.20942e-5 0.6655737 -0.7463321 -1.21876e-5 0 0 1 0 0 1 0 0 1 1.87982e-7 0 1 0 0 1 0 0 1 -2.04121e-7 0 1 0 0 1 0 0 1 -2.78893e-7 0 1 -5.4328e-7 0 1 0.1259458 -0.6957998 0.707107 0.125946 -0.6958029 0.7071039 0.1259473 -0.6958003 0.7071063 0.1259481 -0.6957992 0.7071072 0.1259456 -0.6957999 0.707107 0.1259481 -0.6957989 0.7071076 0.1259459 -0.6957982 0.7071086 0.1259457 -0.6958 0.7071069 0.1259466 -0.6958062 0.7071007 0.1259458 -0.6957994 0.7071074 0.1259449 -0.6957931 0.7071138 0.1259468 -0.6958063 0.7071005 -0.665574 -0.7463319 0 -0.665574 -0.746332 4.08603e-7 -0.6655739 -0.746332 4.04294e-7 -0.665574 -0.7463319 0 0.6655716 0.7463341 0 0.6655715 0.7463341 0 0.6655717 0.746334 -5.68895e-6 0.6655717 0.746334 -5.75598e-6 0 0 1 0 0 1 0 0 1 0 0 1 -2.84259e-7 0 1 0 0 1 0 0 1 0 0 1 0 0 1 0 0 1 0 0 1 -0.9766176 0.2149841 0 -0.976619 0.2149779 0 -0.9476836 0.3192116 0 -0.9476854 0.3192059 0 -0.907582 0.419875 0 -0.9075845 0.4198696 0 -0.8568427 0.5155779 0 -0.8568454 0.5155736 0 -0.7959659 0.6053416 0 -0.7959625 0.605346 0 -0.7260591 0.6876323 0 -0.7260579 0.6876336 0 -0.6474481 0.7621096 0 -0.6474517 0.7621065 0 -0.561006 0.8278118 0 -0.5610019 0.8278145 0 -0.4684907 0.8834685 0 -0.4684901 0.8834688 0 -0.3704505 0.9288523 0 -0.3704519 0.9288516 0 -0.1614734 0.9868771 0 -0.1614742 0.986877 0 -0.05411589 0.9985347 0 -0.05411523 0.9985348 0 0.05411601 0.9985347 0 0.05411666 0.9985346 0 0.1614751 0.9868769 0 0.1614742 0.986877 0 0.3702885 0.9289169 2.76244e-4 0.9766258 0.2149467 0 0.9766267 0.2149426 4.30029e-5 0.9766203 -0.2149716 0 0.9766187 -0.214979 0 0.9476832 -0.3192126 0 0.9476808 -0.3192195 0 0.9075825 -0.4198738 0 0.9075821 -0.4198748 0 0.8568434 -0.5155769 0 0.8568493 -0.5155671 0 0.7959625 -0.605346 0 0.7959656 -0.6053419 0 0.726058 -0.6876335 0 0.7260576 -0.687634 0 0.6474483 -0.7621095 0 0.6474478 -0.7621099 0 0.5610055 -0.8278122 0 0.561002 -0.8278146 0 0.4684897 -0.8834691 0 0.468491 -0.8834683 0 0.3704475 -0.9288535 0 0.3704566 -0.9288498 0 0.1614721 -0.9868773 0 0.1614729 -0.9868772 0 0.05411452 -0.9985348 0 0.05411386 -0.9985349 0 -0.05411303 -0.9985349 0 -0.05411374 -0.9985349 0 -0.1618092 -0.9868221 0 -0.1614713 -0.9868775 0 -0.3704538 -0.9288509 0 -0.3704524 -0.9288516 0 -0.4684886 -0.8834696 0 -0.4684892 -0.8834692 0 -0.5610017 -0.8278147 0 -0.5610058 -0.8278119 0 -0.6474519 -0.7621063 0 -0.6474483 -0.7621095 0 -0.7260566 -0.6876349 0 -0.7260579 -0.6876336 0 -0.7959626 -0.6053459 0 -0.795966 -0.6053414 0 -0.8568458 -0.5155728 0 -0.8568432 -0.5155773 0 -0.9075853 -0.4198678 0 -0.9075829 -0.4198731 0 -0.947685 -0.319207 0 -0.9476832 -0.3192126 0 -0.9766187 -0.214979 0 -0.9766173 -0.2149851 0 0.9476653 0.3192657 -7.19533e-5 0.962014 0.2730005 3.7408e-5 0.9620048 0.2730327 1.45396e-6 0.9075834 0.4198721 0 0.90758 0.4198793 0 0.8568458 0.5155728 0 0.8568437 0.5155764 0 0.795965 0.6053427 0 0.7959629 0.6053456 0 0.7260612 0.6876302 0 0.7260587 0.6876327 0 0.6474488 0.7621089 0 0.6474485 0.7621092 0 0.5610048 0.8278126 0 0.5610027 0.8278141 0 0.4683954 0.8835191 0 0.4686484 0.8833849 2.60341e-4 0.3701246 0.9289822 0 0.3809306 0.9246037 1.93229e-7 0.380922 0.9246072 0 0.9476546 0.3192977 0 0 0 1 -1.33207e-7 0 1 1.33086e-7 0 1 2.66295e-7 0 1 0 0 1 -5.33011e-7 0 1 -5.32786e-7 0 1 1.33224e-7 0 1 1.33207e-7 0 1 -1.33222e-7 0 1 -1.33205e-7 0 1 -1 3.37257e-7 0 -1 -3.37257e-7 0 -0.9941236 0.1082511 0 -0.9941228 0.1082587 0 -0.976631 0.214923 7.78695e-5 -0.3701451 0.928974 0 -0.3700268 0.9290211 2.90082e-4 -0.2674815 0.963563 0 -0.2674866 0.9635616 0 -0.1617542 0.9868311 0 -0.161755 0.986831 0 -0.05414462 0.9985332 0 -0.05414396 0.9985332 0 0.05414313 0.9985333 0 0.05414378 0.9985332 0 0.1617543 0.9868311 0 0.1617534 0.9868313 0 0.2674866 0.9635616 0 0.2674837 0.9635624 0 0.370202 0.9289514 0 0.3702006 0.9289519 0 0.4684164 0.8835079 0 0.468417 0.8835076 0 0.5611203 0.8277343 0 0.5611244 0.8277315 0 0.6474269 0.7621276 0 0.6474233 0.7621306 0 0.7260485 0.6876436 0 0.7260497 0.6876423 0 0.7960599 0.6052179 0 0.7960633 0.6052134 0 0.8568286 0.5156015 0 0.8568258 0.5156059 0 0.9075778 0.419884 0 0.9075753 0.4198893 0 0.9476959 0.3191748 0 0.947694 0.3191803 0 0.9766122 0.2150087 0 0.9766108 0.2150149 0 0.9941236 0.1082522 0 0.994122 0.1082654 0 1 -6.71427e-6 0 1 6.71427e-6 0 0.9941221 -0.1082651 0 0.9941236 -0.1082518 0 0.9766175 -0.2149846 0 0.9766189 -0.2149785 0 0.9476833 -0.3192121 0 0.9476852 -0.3192065 0 0.9075829 -0.4198731 0 0.9075853 -0.4198678 0 0.8568432 -0.5155773 0 0.7959651 -0.6053425 0 0.7959617 -0.605347 0 0.7260591 -0.6876323 0 0.7260579 -0.6876336 0 0.6474481 -0.7621096 0 0.6474517 -0.7621065 0 0.561006 -0.8278118 0 0.5610019 -0.8278145 0 0.4684907 -0.8834685 0 0.4684901 -0.8834688 0 0.3704505 -0.9288523 0 0.3704519 -0.9288516 0 0.2673696 -0.9635941 0 0.1614734 -0.9868771 0 0.1614742 -0.986877 0 0.05411589 -0.9985347 0 0.05411523 -0.9985348 0 -0.05411601 -0.9985347 0 -0.05411666 -0.9985346 0 -0.1614751 -0.9868769 0 -0.1614742 -0.986877 0 -0.2673675 -0.9635947 0 -0.3704548 -0.9288505 0 -0.3704457 -0.9288542 0 -0.4684926 -0.8834675 0 -0.4684911 -0.8834682 0 -0.5610021 -0.8278144 0 -0.5610057 -0.827812 0 -0.6474475 -0.7621101 0 -0.7260587 -0.6876327 0 -0.7260592 -0.6876322 0 -0.7959648 -0.605343 0 -0.7959617 -0.6053472 0 -0.8568493 -0.5155671 0 -0.8568434 -0.5155769 0 -0.9075821 -0.4198748 0 -0.9075825 -0.4198738 0 -0.947681 -0.3192189 0 -0.9476833 -0.3192121 0 -0.9766189 -0.2149785 0 -0.9766204 -0.214971 0 -0.9941229 -0.1082584 0 -0.9941236 -0.1082507 0 -0.4684069 0.8835129 -1.83424e-6 -0.3809597 0.9245917 -1.31117e-6 -0.3809125 0.9246111 2.25492e-7 -0.5611211 0.8277338 0 -0.5611232 0.8277323 0 -0.6474237 0.7621303 0 -0.6474241 0.76213 0 -0.7260492 0.6876428 0 -0.7260517 0.6876401 0 -0.7960602 0.6052174 0 -0.7960624 0.6052145 0 -0.8568269 0.5156044 0 -0.8568289 0.5156008 0 -0.9075732 0.4198938 0 -0.9075767 0.4198865 0 -0.9476485 0.3193153 0 -0.9476668 0.3192614 -8.86304e-5 -0.9766282 0.2149359 0 -0.9620019 0.273043 0 -0.9620043 0.2730345 1.4471e-6 -0.4684248 0.8835034 0 0 0 1 -1.33207e-7 0 1 -1.33225e-7 0 1 -2.66177e-7 0 1 -5.32692e-7 0 1 0 0 1 -5.33011e-7 0 1 1.06558e-6 0 1 1.06567e-6 0 1 -5.32791e-7 0 1 2.66346e-7 0 1 0 0 1 1.33224e-7 0 1 1.33207e-7 0 1 -1.06545e-6 0 1 0 0 1 1.06556e-6 0 1 0 0 1 1.06545e-6 0 1 -5.32721e-7 0 1 -5.327e-7 0 1 -2.66442e-7 0 1 -2.66431e-7 0 1 -0.9941236 0.1082507 0 -0.9941229 0.1082584 0 -0.9766204 0.214971 0 -0.9766189 0.2149785 0 -0.9476833 0.3192121 0 -0.947681 0.3192189 0 -0.9075825 0.4198738 0 -0.9075821 0.4198748 0 -0.8568434 0.5155769 0 -0.8568493 0.5155671 0 -0.7959617 0.6053472 0 -0.7959648 0.605343 0 -0.7260592 0.6876322 0 -0.7260587 0.6876327 0 -0.6474475 0.7621101 0 -0.5610057 0.827812 0 -0.5610021 0.8278144 0 -0.4684911 0.8834682 0 -0.4684926 0.8834675 0 -0.3704457 0.9288542 0 -0.3704548 0.9288505 0 -0.2673675 0.9635947 0 -0.1614742 0.986877 0 -0.1614751 0.9868769 0 -0.05411666 0.9985346 0 -0.05411601 0.9985347 0 0.05411523 0.9985348 0 0.05411589 0.9985347 0 0.1614742 0.986877 0 0.1614734 0.9868771 0 0.2673696 0.9635941 0 0.3704519 0.9288516 0 0.3704505 0.9288523 0 0.4684901 0.8834688 0 0.4684907 0.8834685 0 0.5610019 0.8278145 0 0.561006 0.8278118 0 0.6474517 0.7621065 0 0.6474481 0.7621096 0 0.7260579 0.6876336 0 0.7260591 0.6876323 0 0.7959617 0.605347 0 0.7959651 0.6053425 0 0.8568432 0.5155773 0 0.9075853 0.4198678 0 0.9075829 0.4198731 0 0.9476852 0.3192065 0 0.9476833 0.3192121 0 0.9766189 0.2149785 0 0.9766175 0.2149846 0 0.9941236 0.1082518 0 0.9941221 0.1082651 0 0.994122 -0.1082654 0 0.9941236 -0.1082522 0 0.9766108 -0.2150149 0 0.9766122 -0.2150087 0 0.947694 -0.3191803 0 0.9476959 -0.3191748 0 0.9075753 -0.4198893 0 0.9075778 -0.419884 0 0.8568258 -0.5156059 0 0.8568286 -0.5156015 0 0.7960633 -0.6052134 0 0.7960599 -0.6052179 0 0.7260497 -0.6876423 0 0.7260485 -0.6876436 0 0.6474233 -0.7621306 0 0.6474269 -0.7621276 0 0.5611244 -0.8277315 0 0.5611203 -0.8277343 0 0.468417 -0.8835076 0 0.4684164 -0.8835079 0 0.3702006 -0.9289519 0 0.370202 -0.9289514 0 0.2674837 -0.9635624 0 0.2674866 -0.9635616 0 0.1617534 -0.9868313 0 0.1617543 -0.9868311 0 0.05414378 -0.9985332 0 0.05414313 -0.9985333 0 -0.05414396 -0.9985332 0 -0.05414462 -0.9985332 0 -0.161755 -0.986831 0 -0.1617542 -0.9868311 0 -0.2674866 -0.9635616 0 -0.2674815 -0.963563 0 -0.3700306 -0.9290196 2.9029e-4 -0.9766255 -0.2149479 0 -0.9766303 -0.2149266 7.30102e-5 -0.9941228 -0.1082587 0 -0.9941236 -0.1082511 0 -0.9476731 -0.3192426 -1.28417e-4 -0.9620129 -0.2730041 3.74903e-5 -0.9620043 -0.2730345 1.45396e-6 -0.9075767 -0.4198866 0 -0.9075734 -0.4198938 0 -0.856829 -0.5156009 0 -0.8568269 -0.5156044 0 -0.7960625 -0.6052146 0 -0.7960603 -0.6052174 0 -0.7260517 -0.6876401 0 -0.7260492 -0.6876428 0 -0.6474241 -0.76213 0 -0.6474237 -0.7621303 0 -0.5611232 -0.8277323 0 -0.5611211 -0.8277338 0 -0.4684379 -0.8834965 0 -0.4685822 -0.8834199 2.73579e-4 -0.3701311 -0.9289795 9.05557e-6 -0.3809437 -0.9245982 5.5293e-7 -0.3809125 -0.9246111 2.24428e-7 -0.9476504 -0.3193096 5.69738e-6 0.6655716 -0.7463341 0 0.6655717 -0.746334 -5.19387e-6 0.6655717 -0.746334 -5.13339e-6 0.6655715 -0.7463341 0 -0.665574 0.7463319 0 -0.665574 0.7463319 0 -0.6655739 0.746332 0 -0.665574 0.746332 0 0 0 1 0 0 1 -1.67695e-7 0 1 0 0 1 0 0 1 0 0 1 0 0 1 0 0 1 0 0 1 0 0 1 0 0 1 -3.49858e-7 0 1 0.1259458 0.6957998 0.707107 0.1259473 0.6958003 0.7071063 0.125946 0.695803 0.7071039 0.1259456 0.6957999 0.707107 0.1259457 0.6958 0.7071069 0.1259459 0.6957982 0.7071086 0.1259481 0.6957991 0.7071073 0.1259482 0.6957988 0.7071076 0.1259458 0.6957994 0.7071074 0.1259449 0.6957931 0.7071138 0.1259466 0.6958062 0.7071006 0.1259469 0.6958066 0.7071002 -1 0 0 -0.6655738 -0.7463321 -1.46422e-7 -0.6655738 -0.746332 0 -0.6655741 -0.7463318 -9.45388e-6 -0.6655741 -0.7463318 -9.54031e-6 0.6655739 0.746332 -1.4252e-7 0.6655737 0.7463321 -1.09816e-5 0.6655737 0.7463321 -1.08974e-5 0.6655739 0.746332 0</float_array>
          <technique_common>
            <accessor source="#mesh24-mesh-normals-array" count="633" stride="3">
              <param name="X" type="float"/>
              <param name="Y" type="float"/>
              <param name="Z" type="float"/>
            </accessor>
          </technique_common>
        </source>
        <vertices id="mesh24-mesh-vertices">
          <input semantic="POSITION" source="#mesh24-mesh-positions"/>
        </vertices>
        <triangles material="__647059_0_647059_0_647059_0_000000_0_000000-material" count="1008">
          <input semantic="VERTEX" source="#mesh24-mesh-vertices" offset="0"/>
          <input semantic="NORMAL" source="#mesh24-mesh-normals" offset="1"/>
          <p>58 0 20 1 19 1 19 1 18 1 58 0 18 1 17 1 58 0 17 1 16 1 58 0 16 1 15 1 58 0 15 1 14 1 58 0 14 1 13 1 58 0 13 1 12 1 58 0 12 1 11 1 58 0 11 1 10 1 58 0 10 1 9 2 58 0 9 2 8 3 58 0 8 3 7 4 58 0 7 4 6 5 58 0 6 5 5 6 58 0 5 6 4 7 58 0 4 7 3 1 58 0 3 1 50 8 58 0 50 8 51 9 58 0 51 9 52 1 58 0 52 1 53 1 58 0 53 1 54 1 58 0 54 1 55 10 58 0 55 10 56 11 58 0 56 11 57 1 58 0 57 1 2 1 58 0 2 1 1 1 58 0 1 1 0 1 58 0 0 1 49 1 58 0 49 1 48 1 58 0 48 1 47 12 58 0 47 12 46 13 58 0 46 13 45 14 58 0 45 14 44 1 58 0 44 1 43 15 58 0 43 15 42 16 58 0 42 16 41 17 58 0 41 17 40 1 58 0 40 1 39 18 58 0 39 18 38 19 58 0 38 19 37 1 58 0 37 1 36 1 58 0 36 1 35 1 58 0 35 1 34 1 58 0 34 1 33 20 58 0 33 20 32 21 58 0 32 21 31 1 58 0 31 1 30 1 58 0 30 1 29 22 58 0 29 22 28 23 58 0 28 23 27 1 58 0 27 1 26 24 58 0 26 24 25 25 58 0 25 25 24 26 58 0 24 26 23 27 58 0 23 27 22 28 58 0 22 28 21 1 58 0 21 1 20 1 58 0 60 29 63 30 64 31 65 32 66 33 60 29 60 29 67 34 63 30 60 29 59 35 65 32 66 33 67 34 60 29 59 35 68 36 69 37 69 37 65 32 59 35 59 35 62 38 70 39 70 39 68 36 59 35 64 31 61 40 60 29 83 41 84 42 85 43 86 44 85 43 87 45 88 46 87 45 89 47 90 48 89 47 91 49 92 50 91 49 93 51 94 52 93 51 95 53 96 54 95 53 97 55 98 56 97 55 99 57 100 58 99 57 101 59 102 60 101 59 103 61 104 62 103 61 105 63 106 64 105 63 107 65 108 66 107 65 109 67 110 68 109 67 111 69 112 70 111 69 113 71 114 72 113 71 115 73 116 74 115 73 117 75 118 76 117 75 119 77 120 78 119 77 121 79 122 80 121 79 123 81 124 82 123 81 125 83 126 84 125 83 127 85 128 86 127 85 129 87 130 88 129 87 131 89 132 90 131 89 133 91 134 92 133 91 135 93 136 94 135 93 137 95 138 96 137 95 139 97 140 98 139 97 141 99 142 100 141 99 143 101 144 102 143 101 145 103 146 104 147 105 148 106 149 107 148 106 150 108 151 109 150 108 152 110 153 111 152 110 154 112 155 113 154 112 156 114 157 115 156 114 158 116 159 117 158 116 160 118 161 119 160 118 162 120 163 121 162 120 164 122 165 123 164 122 166 124 167 125 166 124 168 126 169 127 168 126 170 128 171 129 170 128 172 130 173 131 172 130 174 132 175 133 174 132 176 134 177 135 176 134 178 136 179 137 178 136 180 138 181 139 180 138 84 42 182 140 147 105 71 141 146 104 72 142 71 141 71 141 147 105 146 104 75 143 183 144 182 140 79 145 184 146 183 144 78 147 185 148 184 146 77 149 186 150 185 148 81 151 187 152 186 150 80 153 188 154 187 152 82 155 189 156 188 154 190 157 145 103 73 158 189 156 82 155 73 158 73 158 145 103 189 156 73 158 74 159 190 157 188 154 80 153 82 155 187 152 81 151 80 153 186 150 77 149 81 151 185 148 78 147 77 149 184 146 79 145 78 147 183 144 75 143 79 145 182 140 76 160 75 143 71 141 76 160 182 140 84 42 83 41 181 139 180 138 181 139 179 137 178 136 179 137 177 135 176 134 177 135 175 133 174 132 175 133 173 131 172 130 173 131 171 129 170 128 171 129 169 127 168 126 169 127 167 125 166 124 167 125 165 123 164 122 165 123 163 121 162 120 163 121 161 119 160 118 161 119 159 117 158 116 159 117 157 115 156 114 157 115 155 113 154 112 155 113 153 111 152 110 153 111 151 109 150 108 151 109 149 107 148 106 149 107 146 104 145 103 190 157 144 102 143 101 144 102 142 100 141 99 142 100 140 98 139 97 140 98 138 96 137 95 138 96 136 94 135 93 136 94 134 92 133 91 134 92 132 90 131 89 132 90 130 88 129 87 130 88 128 86 127 85 128 86 126 84 125 83 126 84 124 82 123 81 124 82 122 80 121 79 122 80 120 78 119 77 120 78 118 76 117 75 118 76 116 74 115 73 116 74 114 72 113 71 114 72 112 70 111 69 112 70 110 68 109 67 110 68 108 66 107 65 108 66 106 64 105 63 106 64 104 62 103 61 104 62 102 60 101 59 102 60 100 58 99 57 100 58 98 56 97 55 98 56 96 54 95 53 96 54 94 52 93 51 94 52 92 50 91 49 92 50 90 48 89 47 90 48 88 46 87 45 88 46 86 44 85 43 86 44 83 41 249 161 219 162 218 163 218 163 217 1 249 161 217 1 216 1 249 161 216 1 215 1 249 161 215 1 214 1 249 161 214 1 213 1 249 161 213 1 212 1 249 161 212 1 211 1 249 161 211 1 210 1 249 161 210 1 209 1 249 161 209 1 208 1 249 161 208 1 207 1 249 161 207 1 206 1 249 161 206 1 205 1 249 161 205 1 204 1 249 161 204 1 203 1 249 161 203 1 202 1 249 161 202 1 201 1 249 161 201 1 200 1 249 161 200 1 199 1 249 161 199 1 198 1 249 161 198 1 197 1 249 161 197 1 196 1 249 161 196 1 195 1 249 161 195 1 194 1 249 161 194 1 193 164 249 161 193 164 192 165 249 161 192 165 191 1 249 161 191 1 240 1 249 161 240 1 239 166 249 161 239 166 238 167 249 161 238 167 237 1 249 161 237 1 236 1 249 161 236 1 235 1 249 161 235 1 234 168 249 161 234 168 233 169 249 161 233 169 232 170 249 161 232 170 231 1 249 161 231 1 230 171 249 161 230 171 229 172 249 161 229 172 228 1 249 161 228 1 227 1 249 161 227 1 226 1 249 161 226 1 225 1 249 161 225 1 224 173 249 161 224 173 223 174 249 161 223 174 241 1 249 161 241 1 242 1 249 161 242 1 243 175 249 161 243 175 244 176 249 161 244 176 245 1 249 161 245 1 246 1 249 161 246 1 247 1 249 161 247 1 248 1 249 161 248 1 222 177 249 161 222 177 221 178 249 161 221 178 220 1 249 161 220 1 219 162 249 161 268 179 293 179 294 179 268 179 292 179 293 179 342 179 356 179 357 179 342 179 351 179 352 179 349 179 346 179 347 179 349 179 343 179 344 179 268 179 291 179 292 179 361 179 362 179 363 179 361 179 364 179 365 179 361 179 366 179 367 179 368 179 369 179 370 179 369 179 368 179 371 179 372 179 373 179 374 179 372 179 375 179 376 179 372 179 377 179 378 179 372 179 379 179 380 179 342 179 318 179 319 179 342 179 312 179 313 179 342 179 359 179 311 179 357 179 358 179 342 179 342 179 350 179 351 179 349 179 345 179 346 179 349 179 342 179 343 179 342 179 326 179 327 179 257 179 250 179 251 179 268 179 295 179 296 179 268 179 290 179 291 179 268 179 273 179 274 179 268 179 270 179 271 179 361 179 381 179 362 179 367 179 364 179 361 179 371 179 382 179 369 179 366 179 361 179 383 179 361 179 384 179 385 179 386 179 387 179 388 179 372 179 389 179 390 179 372 179 391 179 373 179 376 179 392 179 372 179 380 179 377 179 372 179 372 179 393 179 394 179 342 179 317 179 318 179 342 179 315 179 316 179 313 179 314 179 342 179 358 179 359 179 342 179 342 179 354 179 355 179 342 179 349 179 350 179 344 179 345 179 349 179 342 179 329 179 330 179 342 179 325 179 326 179 342 179 323 179 324 179 338 179 340 179 341 179 360 179 335 179 336 179 254 179 255 179 256 179 257 179 252 179 253 179 257 179 298 179 250 179 300 179 264 179 265 179 300 179 260 179 261 179 294 179 295 179 268 179 268 179 288 179 289 179 268 179 285 179 286 179 268 179 281 179 282 179 268 179 275 179 276 179 268 179 272 179 273 179 268 179 269 179 270 179 361 179 395 179 396 179 361 179 397 179 398 179 361 179 399 179 400 179 365 179 381 179 361 179 383 179 368 179 366 179 361 179 401 179 384 179 402 179 403 179 404 179 405 179 406 179 407 179 386 179 408 179 387 179 372 179 409 179 389 179 372 179 410 179 411 179 392 179 391 179 372 179 372 179 412 179 379 179 372 179 413 179 414 179 372 179 415 179 416 179 394 179 417 179 372 179 316 179 317 179 342 179 311 179 312 179 342 179 342 179 353 179 354 179 347 179 348 179 349 179 342 179 328 179 329 179 324 179 325 179 342 179 338 179 339 179 340 179 336 179 337 179 360 179 360 179 332 179 333 179 253 179 254 179 257 179 257 179 297 179 298 179 308 179 304 179 305 179 300 179 266 179 267 179 300 179 263 179 264 179 261 179 262 179 300 179 289 179 290 179 268 179 286 179 287 179 268 179 268 179 280 179 281 179 268 179 278 179 279 179 276 179 277 179 268 179 271 179 272 179 268 179 361 179 418 179 419 179 396 179 420 179 361 179 361 179 421 179 397 179 361 179 422 179 423 179 400 179 424 179 361 179 370 179 366 179 368 179 425 179 426 179 427 179 361 179 428 179 401 179 402 179 429 179 403 179 402 179 430 179 431 179 407 179 432 179 405 179 386 179 433 179 434 179 386 179 435 179 436 179 388 179 437 179 386 179 411 179 409 179 372 179 372 179 438 179 439 179 378 179 375 179 372 179 372 179 440 179 441 179 414 179 442 179 372 179 417 179 415 179 372 179 372 179 443 179 444 179 372 179 445 179 446 179 372 179 447 179 448 179 314 179 315 179 342 179 352 179 353 179 342 179 327 179 328 179 342 179 337 179 338 179 360 179 333 179 334 179 360 179 251 179 252 179 257 179 449 179 307 179 303 179 305 179 449 179 308 179 265 179 266 179 300 179 300 179 259 179 260 179 287 179 288 179 268 179 268 179 283 179 284 179 279 179 280 179 268 179 274 179 275 179 268 179 420 179 418 179 361 179 361 179 450 179 451 179 423 179 421 179 361 179 363 179 399 179 361 179 361 179 452 179 425 179 361 179 453 179 454 179 361 179 455 179 428 179 431 179 429 179 402 179 405 179 426 179 406 179 434 179 456 179 386 179 437 179 435 179 386 179 457 179 458 179 449 179 302 179 459 179 460 179 390 179 461 179 372 179 439 179 462 179 372 179 441 179 412 179 372 179 416 179 413 179 372 179 446 179 443 179 372 179 372 179 463 179 447 179 342 179 320 179 321 179 355 179 356 179 342 179 331 179 332 179 309 179 342 179 322 179 323 179 332 179 360 179 310 179 334 179 335 179 360 179 256 179 257 179 254 179 258 179 301 179 299 179 299 179 301 179 302 179 305 179 307 179 449 179 262 179 263 179 300 179 259 179 300 179 301 179 284 179 285 179 268 179 277 179 278 179 268 179 451 179 395 179 361 179 424 179 422 179 361 179 361 179 464 179 452 179 385 179 453 179 361 179 426 179 405 179 465 179 432 179 402 179 405 179 436 179 433 179 386 179 466 179 458 179 457 179 449 179 302 179 467 179 302 179 306 179 459 179 462 179 410 179 372 179 438 179 372 179 458 179 442 179 440 179 372 179 448 179 445 179 372 179 319 179 320 179 342 179 330 179 331 179 342 179 310 179 307 179 305 179 341 179 360 179 338 179 299 179 297 179 258 179 303 179 302 179 449 179 301 179 258 179 259 179 282 179 283 179 268 179 398 179 450 179 361 179 454 179 464 179 361 179 465 179 460 179 459 179 404 179 405 179 402 179 457 179 386 179 466 179 460 179 467 179 302 179 458 179 466 179 438 179 444 179 393 179 372 179 309 179 342 179 331 179 310 179 309 179 332 179 302 179 303 179 299 179 296 179 300 179 268 179 427 179 361 179 425 179 465 179 427 179 426 179 449 179 467 179 457 179 374 179 468 179 372 179 305 179 309 179 310 179 267 179 268 179 300 179 459 179 427 179 465 179 461 179 463 179 372 179 257 179 258 179 297 179 456 179 466 179 386 179 419 179 455 179 361 179 321 179 322 179 342 179 471 180 472 181 469 182 469 182 470 183 471 180 475 184 473 185 474 186 474 186 476 187 475 184 481 188 480 189 478 190 478 190 477 191 482 192 478 190 483 193 484 194 482 192 485 1 478 190 480 189 481 188 486 195 485 1 483 193 478 190 480 189 487 196 488 197 478 190 484 194 481 188 486 195 487 196 480 189 488 197 479 198 480 189 489 199 498 200 499 201 489 199 497 202 498 200 491 203 493 204 489 199 499 201 500 205 489 199 489 199 492 206 491 203 493 204 497 202 489 199 495 207 499 201 498 200 500 205 490 208 489 199 500 205 494 209 490 208 498 200 496 210 495 207 504 211 503 212 501 213 501 213 502 214 504 211 508 215 505 216 506 217 506 217 507 218 508 215 513 219 514 220 510 221 510 221 509 222 513 219 509 222 511 223 515 224 510 221 516 225 517 226 509 222 518 227 513 219 515 224 519 228 509 222 510 221 520 229 516 225 519 228 518 227 509 222 514 220 520 229 510 221 517 226 512 1 510 221 547 41 583 42 584 43 544 44 584 43 585 230 545 231 585 230 586 232 558 233 586 232 587 234 556 235 587 234 588 236 557 237 588 236 589 238 543 239 589 238 590 240 528 241 590 240 591 242 529 243 591 242 592 244 526 245 592 244 593 246 527 247 593 246 594 248 524 249 594 248 595 65 525 66 595 65 596 250 536 251 596 250 597 252 535 253 597 252 598 254 522 255 598 254 599 256 523 257 599 256 600 75 572 76 600 75 601 258 530 259 602 260 603 97 539 98 603 97 604 99 531 100 604 99 605 101 532 102 605 101 606 261 553 262 606 261 607 263 551 264 607 263 608 265 552 266 608 265 609 267 549 268 609 267 610 269 550 270 610 269 611 271 565 272 611 271 612 273 571 274 612 273 613 275 554 276 613 275 614 277 555 278 614 277 615 279 569 280 615 279 616 106 541 107 616 106 617 281 542 282 617 281 618 283 540 284 618 283 619 285 533 286 619 285 620 287 534 288 620 287 621 116 568 117 621 116 622 289 570 290 622 289 623 291 563 292 623 291 624 293 564 294 624 293 625 295 561 296 625 295 626 297 562 298 626 297 627 299 559 300 627 299 628 301 560 302 628 301 629 303 537 304 629 303 630 305 538 306 630 305 631 307 548 308 631 307 632 138 546 139 632 138 583 42 633 309 602 260 574 310 530 259 566 311 574 310 574 310 602 260 530 259 581 312 634 313 633 309 580 314 635 315 634 313 575 316 636 317 635 315 578 318 637 319 636 317 577 320 638 321 637 319 579 322 639 323 638 321 576 324 640 325 639 323 521 326 601 258 573 327 640 325 576 324 573 327 573 327 601 258 640 325 573 327 567 328 521 326 639 323 579 322 576 324 638 321 577 320 579 322 637 319 578 318 577 320 636 317 575 316 578 318 635 315 580 314 575 316 634 313 581 312 580 314 633 309 582 329 581 312 574 310 582 329 633 309 583 42 547 41 546 139 632 138 546 139 548 308 631 307 548 308 538 306 630 305 538 306 537 304 629 303 537 304 560 302 628 301 560 302 559 300 627 299 559 300 562 298 626 297 562 298 561 296 625 295 561 296 564 294 624 293 564 294 563 292 623 291 563 292 570 290 622 289 570 290 568 117 621 116 568 117 534 288 620 287 534 288 533 286 619 285 533 286 540 284 618 283 540 284 542 282 617 281 542 282 541 107 616 106 541 107 569 280 615 279 569 280 555 278 614 277 555 278 554 276 613 275 554 276 571 274 612 273 571 274 565 272 611 271 565 272 550 270 610 269 550 270 549 268 609 267 549 268 552 266 608 265 552 266 551 264 607 263 551 264 553 262 606 261 553 262 532 102 605 101 532 102 531 100 604 99 531 100 539 98 603 97 539 98 530 259 601 258 521 326 572 76 600 75 572 76 523 257 599 256 523 257 522 255 598 254 522 255 535 253 597 252 535 253 536 251 596 250 536 251 525 66 595 65 525 66 524 249 594 248 524 249 527 247 593 246 527 247 526 245 592 244 526 245 529 243 591 242 529 243 528 241 590 240 528 241 543 239 589 238 543 239 557 237 588 236 557 237 556 235 587 234 556 235 558 233 586 232 558 233 545 231 585 230 545 231 544 44 584 43 544 44 547 41 699 330 661 331 660 332 660 332 691 333 699 330 691 333 692 1 699 330 692 1 693 1 699 330 693 1 694 1 699 330 694 1 695 176 699 330 695 176 696 334 699 330 696 334 697 335 699 330 697 335 698 1 699 330 698 1 659 174 699 330 659 174 658 173 699 330 658 173 657 1 699 330 657 1 656 1 699 330 656 1 655 1 699 330 655 1 654 1 699 330 654 1 653 172 699 330 653 172 652 171 699 330 652 171 651 1 699 330 651 1 650 1 699 330 650 1 649 336 699 330 649 336 648 168 699 330 648 168 647 1 699 330 647 1 646 1 699 330 646 1 645 1 699 330 645 1 644 1 699 330 644 1 643 337 699 330 643 337 642 338 699 330 642 338 641 1 699 330 641 1 690 1 699 330 690 1 689 1 699 330 689 1 688 1 699 330 688 1 687 1 699 330 687 1 686 1 699 330 686 1 685 1 699 330 685 1 684 1 699 330 684 1 683 1 699 330 683 1 682 1 699 330 682 1 681 1 699 330 681 1 680 1 699 330 680 1 679 1 699 330 679 1 678 1 699 330 678 1 677 1 699 330 677 1 676 1 699 330 676 1 675 1 699 330 675 1 674 1 699 330 674 1 673 1 699 330 673 1 672 1 699 330 672 1 671 1 699 330 671 1 670 1 699 330 670 1 669 1 699 330 669 1 668 1 699 330 668 1 667 1 699 330 667 1 666 1 699 330 666 1 665 1 699 330 665 1 664 339 699 330 664 339 663 340 699 330 663 340 662 1 699 330 662 1 661 331 699 330 724 341 762 342 763 343 725 344 763 343 764 345 700 346 765 347 766 348 713 349 766 348 767 350 707 351 767 350 768 352 710 353 768 352 769 354 712 355 769 354 770 356 708 357 770 356 771 358 709 359 771 358 772 360 705 361 772 360 773 362 706 363 773 362 774 364 703 365 774 364 775 366 704 367 775 366 776 368 711 369 776 368 777 370 701 371 777 370 778 372 702 373 778 372 779 374 720 375 779 374 780 376 721 377 780 376 781 378 735 379 781 378 782 380 733 381 782 380 783 382 734 383 783 382 784 384 732 385 784 384 785 386 718 387 785 386 786 388 719 389 786 388 787 390 744 391 787 390 788 392 745 152 788 392 789 393 716 394 789 393 790 395 717 396 790 395 791 397 731 398 791 397 792 399 729 400 792 399 793 401 730 402 793 401 794 403 749 404 794 403 795 405 739 107 795 405 796 406 722 407 796 406 797 408 714 409 797 408 798 410 715 411 798 410 799 412 747 413 799 412 800 116 748 414 800 116 801 415 750 416 801 415 802 417 746 418 802 417 803 419 736 420 803 419 804 421 737 125 804 421 805 422 727 423 805 422 806 424 728 425 806 424 807 426 743 427 807 426 808 428 723 429 808 428 809 430 741 431 809 430 810 432 742 433 810 432 811 434 740 435 811 434 762 342 812 436 765 347 753 437 700 346 738 438 753 437 753 437 765 347 700 346 757 439 813 440 812 436 761 441 814 442 813 440 755 443 815 444 814 442 754 445 816 446 815 444 759 447 817 448 816 446 760 449 818 450 817 448 756 451 819 452 818 450 726 453 764 345 752 454 819 452 756 451 752 454 752 454 764 345 819 452 752 454 751 455 726 453 818 450 760 449 756 451 817 448 759 447 760 449 816 446 754 445 759 447 815 444 755 443 754 445 814 442 761 441 755 443 813 440 757 439 761 441 812 436 758 456 757 439 753 437 758 456 812 436 762 342 724 341 740 435 811 434 740 435 742 433 810 432 742 433 741 431 809 430 741 431 723 429 808 428 723 429 743 427 807 426 743 427 728 425 806 424 728 425 727 423 805 422 727 423 737 125 804 421 737 125 736 420 803 419 736 420 746 418 802 417 746 418 750 416 801 415 750 416 748 414 800 116 748 414 747 413 799 412 747 413 715 411 798 410 715 411 714 409 797 408 714 409 722 407 796 406 722 407 739 107 795 405 739 107 749 404 794 403 749 404 730 402 793 401 730 402 729 400 792 399 729 400 731 398 791 397 731 398 717 396 790 395 717 396 716 394 789 393 716 394 745 152 788 392 745 152 744 391 787 390 744 391 719 389 786 388 719 389 718 387 785 386 718 387 732 385 784 384 732 385 734 383 783 382 734 383 733 381 782 380 733 381 735 379 781 378 735 379 721 377 780 376 721 377 720 375 779 374 720 375 702 373 778 372 702 373 701 371 777 370 701 371 711 369 776 368 711 369 704 367 775 366 704 367 703 365 774 364 703 365 706 363 773 362 706 363 705 361 772 360 705 361 709 359 771 358 709 359 708 357 770 356 708 357 712 355 769 354 712 355 710 353 768 352 710 353 707 351 767 350 707 351 713 349 766 348 713 349 700 346 764 345 726 453 725 344 763 343 725 344 724 341 820 1 821 1 822 1 881 457 823 458 824 459 824 459 825 26 881 457 825 26 826 460 881 457 826 460 827 461 881 457 827 461 828 1 881 457 828 1 829 23 881 457 829 23 830 462 881 457 830 462 831 463 881 457 831 463 832 1 881 457 832 1 833 21 881 457 833 21 834 20 881 457 834 20 835 1 881 457 835 1 836 1 881 457 836 1 837 1 881 457 837 1 838 1 881 457 838 1 839 464 881 457 839 464 840 465 881 457 840 465 841 1 881 457 841 1 842 1 881 457 842 1 843 466 881 457 843 466 844 15 881 457 844 15 845 1 881 457 845 1 846 467 881 457 846 467 847 468 881 457 847 468 848 12 881 457 848 12 849 469 881 457 849 469 850 470 881 457 850 470 851 1 881 457 851 1 852 1 881 457 852 1 853 1 881 457 853 1 854 1 881 457 854 1 855 1 881 457 855 1 856 1 881 457 856 1 857 1 881 457 857 1 858 1 881 457 858 1 859 1 881 457 859 1 860 1 881 457 860 1 861 1 881 457 861 1 862 1 881 457 862 1 863 471 881 457 863 471 864 472 881 457 864 472 865 473 881 457 865 473 866 4 881 457 866 4 867 474 881 457 867 474 868 475 881 457 868 475 869 1 881 457 869 1 870 476 881 457 870 476 871 477 881 457 871 477 872 1 881 457 872 1 873 1 881 457 873 1 874 1 881 457 874 1 875 478 881 457 875 478 876 479 881 457 876 479 877 1 881 457 877 1 878 1 881 457 878 1 879 1 881 457 879 1 880 1 881 457 880 1 823 458 881 457 940 341 910 342 909 480 941 481 909 480 908 482 942 483 908 482 907 484 943 485 907 484 906 486 944 487 906 486 905 488 945 489 905 488 904 490 946 491 904 490 903 492 947 493 903 492 902 242 948 494 902 242 901 495 949 496 901 495 900 497 950 498 900 497 899 499 951 500 899 499 898 501 952 66 898 501 897 502 953 503 897 502 896 504 954 505 896 504 895 506 955 507 895 506 894 508 956 509 894 508 893 75 957 510 893 75 892 511 958 512 892 511 891 513 959 514 891 513 890 515 960 516 890 515 889 517 961 518 889 517 888 519 962 520 888 519 887 521 963 522 887 521 886 314 964 523 886 314 885 524 965 525 885 524 884 526 966 527 884 526 883 528 967 529 883 528 882 530 968 531 882 530 939 382 969 383 939 382 938 532 970 533 938 532 937 534 971 535 937 534 936 536 972 537 936 536 935 538 973 539 935 538 934 540 974 541 934 540 933 542 975 543 933 542 932 544 976 545 932 544 931 546 977 547 931 546 930 548 978 549 930 548 929 550 979 551 929 550 928 552 980 553 928 552 927 554 981 555 927 554 926 556 982 557 926 556 925 558 983 559 925 558 924 560 984 561 924 560 923 562 985 563 923 562 922 564 986 565 922 564 921 566 987 567 912 568 911 569 988 570 911 569 910 342 913 571 912 568 989 572 987 567 990 573 989 572 989 572 912 568 987 567 991 574 914 575 913 571 992 576 915 577 914 575 993 578 916 579 915 577 994 580 917 581 916 579 995 582 918 583 917 581 996 584 919 585 918 583 997 586 920 587 919 585 998 588 921 566 999 589 920 587 997 586 999 589 999 589 921 566 920 587 999 589 1000 590 998 588 919 585 996 584 997 586 918 583 995 582 996 584 917 581 994 580 995 582 916 579 993 578 994 580 915 577 992 576 993 578 914 575 991 574 992 576 913 571 1001 591 991 574 989 572 1001 591 913 571 910 342 940 341 988 570 911 569 988 570 987 567 921 566 998 588 986 565 922 564 986 565 985 563 923 562 985 563 984 561 924 560 984 561 983 559 925 558 983 559 982 557 926 556 982 557 981 555 927 554 981 555 980 553 928 552 980 553 979 551 929 550 979 551 978 549 930 548 978 549 977 547 931 546 977 547 976 545 932 544 976 545 975 543 933 542 975 543 974 541 934 540 974 541 973 539 935 538 973 539 972 537 936 536 972 537 971 535 937 534 971 535 970 533 938 532 970 533 969 383 939 382 969 383 968 531 882 530 968 531 967 529 883 528 967 529 966 527 884 526 966 527 965 525 885 524 965 525 964 523 886 314 964 523 963 522 887 521 963 522 962 520 888 519 962 520 961 518 889 517 961 518 960 516 890 515 960 516 959 514 891 513 959 514 958 512 892 511 958 512 957 510 893 75 957 510 956 509 894 508 956 509 955 507 895 506 955 507 954 505 896 504 954 505 953 503 897 502 953 503 952 66 898 501 952 66 951 500 899 499 951 500 950 498 900 497 950 498 949 496 901 495 949 496 948 494 902 242 948 494 947 493 903 492 947 493 946 491 904 490 946 491 945 489 905 488 945 489 944 487 906 486 944 487 943 485 907 484 943 485 942 483 908 482 942 483 941 481 909 480 941 481 940 341 1002 592 1004 593 1005 594 1005 594 1003 595 1002 592 1006 596 1007 597 1008 598 1008 598 1009 599 1006 596 1021 600 1011 601 1019 602 1013 603 1021 600 1020 604 1021 600 1012 605 1011 601 1020 604 1015 606 1014 607 1021 600 1013 603 1012 605 1020 604 1016 608 1015 606 1020 604 1014 607 1013 603 1020 604 1018 609 1017 610 1017 610 1016 608 1020 604 1019 602 1010 611 1021 600 1026 612 1025 613 1027 614 1028 615 1029 616 1026 612 1026 612 1022 617 1025 613 1026 612 1030 618 1031 619 1026 612 1032 620 1022 617 1027 614 1030 618 1026 612 1032 620 1023 621 1022 617 1024 622 1033 623 1027 614 1027 614 1025 613 1024 622 1026 612 1031 619 1028 615 1034 624 1036 624 1037 624 1037 624 1035 624 1034 624 1040 625 1041 626 1039 627 1039 627 1038 628 1040 625 1044 629 1042 630 1043 631 1043 631 1045 632 1044 629</p>
        </triangles>
      </mesh>
    </geometry>
  </library_geometries>
  <library_visual_scenes>
    <visual_scene id="Scene" name="Scene">
      <node id="Lamp" name="Lamp" type="NODE">
        <matrix sid="transform">-0.2908646 -0.7711008 0.5663933 4.076245 0.9551712 -0.1998833 0.2183913 1.005454 -0.05518912 0.6045247 0.7946723 5.903862 0 0 0 1</matrix>
        <instance_light url="#Lamp-light"/>
      </node>
      <node id="Camera_001" name="Camera.001" type="NODE">
        <matrix sid="transform">0.6858805 -0.3173701 0.6548619 7.481132 0.7276338 0.3124686 -0.6106656 -6.50764 -0.01081678 0.8953432 0.4452454 5.343665 0 0 0 1</matrix>
        <instance_camera url="#Camera_001-camera"/>
      </node>
      <node id="mesh24" name="mesh24" type="NODE">
        <matrix sid="transform">1 0 0 0 0 1 0 0 0 0 1 0 0 0 0 1</matrix>
        <instance_geometry url="#mesh24-mesh" name="mesh24">
          <bind_material>
            <technique_common>
              <instance_material symbol="__647059_0_647059_0_647059_0_000000_0_000000-material" target="#__647059_0_647059_0_647059_0_000000_0_000000-material"/>
            </technique_common>
          </bind_material>
        </instance_geometry>
      </node>
      <node id="Camera" name="Camera" type="NODE">
        <matrix sid="transform">0.6859207 -0.3240135 0.6515582 7.358891 0.7276763 0.3054208 -0.6141704 -6.925791 0 0.8953956 0.4452714 4.958309 0 0 0 1</matrix>
        <instance_camera url="#Camera-camera"/>
      </node>
      <node id="Light" name="Light" type="NODE">
        <matrix sid="transform">-0.2908646 -0.7711008 0.5663932 4.076245 0.9551712 -0.1998834 0.2183912 1.005454 -0.05518906 0.6045247 0.7946723 5.903862 0 0 0 1</matrix>
        <instance_light url="#Light-light"/>
      </node>
    </visual_scene>
  </library_visual_scenes>
  <scene>
    <instance_visual_scene url="#Scene"/>
  </scene>
</COLLADA>