<?xml version="1.0" encoding="utf-8"?>
<COLLADA xmlns="http://www.collada.org/2005/11/COLLADASchema" version="1.4.1" xmlns:xsi="http://www.w3.org/2001/XMLSchema-instance">
  <asset>
    <contributor>
      <author>Blender User</author>
      <authoring_tool>Blender 4.3.0 commit date:2024-11-19, commit time:08:52, hash:2b18cad88b13</authoring_tool>
    </contributor>
    <created>2025-09-26T15:26:07</created>
    <modified>2025-09-26T15:26:07</modified>
    <unit name="meter" meter="1"/>
    <up_axis>Z_UP</up_axis>
  </asset>
  <library_cameras>
    <camera id="Camera_001-camera" name="Camera.001">
      <optics>
        <technique_common>
          <perspective>
            <xfov sid="xfov">49.13434</xfov>
            <aspect_ratio>1.777778</aspect_ratio>
            <znear sid="znear">0.1</znear>
            <zfar sid="zfar">100</zfar>
          </perspective>
        </technique_common>
      </optics>
      <extra>
        <technique profile="blender">
          <shiftx sid="shiftx" type="float">0</shiftx>
          <shifty sid="shifty" type="float">0</shifty>
          <dof_distance sid="dof_distance" type="float">10</dof_distance>
        </technique>
      </extra>
    </camera>
    <camera id="Camera-camera" name="Camera">
      <optics>
        <technique_common>
          <perspective>
            <xfov sid="xfov">39.59775</xfov>
            <aspect_ratio>1.777778</aspect_ratio>
            <znear sid="znear">0.1</znear>
            <zfar sid="zfar">100</zfar>
          </perspective>
        </technique_common>
      </optics>
      <extra>
        <technique profile="blender">
          <shiftx sid="shiftx" type="float">0</shiftx>
          <shifty sid="shifty" type="float">0</shifty>
          <dof_distance sid="dof_distance" type="float">10</dof_distance>
        </technique>
      </extra>
    </camera>
  </library_cameras>
  <library_lights>
    <light id="Lamp-light" name="Lamp">
      <technique_common>
        <point>
          <color sid="color">1 1 1</color>
          <constant_attenuation>1</constant_attenuation>
          <linear_attenuation>0</linear_attenuation>
          <quadratic_attenuation>0</quadratic_attenuation>
        </point>
      </technique_common>
      <extra>
        <technique profile="blender">
          <type sid="type" type="int">0</type>
          <flag sid="flag" type="int">0</flag>
          <mode sid="mode" type="int">8192</mode>
          <red sid="red" type="float">1</red>
          <green sid="green" type="float">1</green>
          <blue sid="blue" type="float">1</blue>
          <energy sid="blender_energy" type="float">1</energy>
          <spotsize sid="spotsize" type="float">75</spotsize>
          <spotblend sid="spotblend" type="float">0.15</spotblend>
          <clipsta sid="clipsta" type="float">1.000799</clipsta>
          <clipend sid="clipend" type="float">30.002</clipend>
          <radius sid="radius" type="float">0</radius>
          <area_shape sid="area_shape" type="int">1</area_shape>
          <area_size sid="area_size" type="float">0.1</area_size>
          <area_sizey sid="area_sizey" type="float">0.1</area_sizey>
          <area_sizez sid="area_sizez" type="float">1</area_sizez>
        </technique>
      </extra>
    </light>
    <light id="Light-light" name="Light">
      <technique_common>
        <point>
          <color sid="color">1000 1000 1000</color>
          <constant_attenuation>1</constant_attenuation>
          <linear_attenuation>0</linear_attenuation>
          <quadratic_attenuation>0</quadratic_attenuation>
        </point>
      </technique_common>
      <extra>
        <technique profile="blender">
          <type sid="type" type="int">0</type>
          <flag sid="flag" type="int">0</flag>
          <mode sid="mode" type="int">2097153</mode>
          <red sid="red" type="float">1</red>
          <green sid="green" type="float">1</green>
          <blue sid="blue" type="float">1</blue>
          <energy sid="blender_energy" type="float">1000</energy>
          <spotsize sid="spotsize" type="float">75</spotsize>
          <spotblend sid="spotblend" type="float">0.15</spotblend>
          <clipsta sid="clipsta" type="float">0.04999995</clipsta>
          <clipend sid="clipend" type="float">40</clipend>
          <radius sid="radius" type="float">0.1</radius>
          <area_shape sid="area_shape" type="int">1</area_shape>
          <area_size sid="area_size" type="float">0.1</area_size>
          <area_sizey sid="area_sizey" type="float">0.1</area_sizey>
          <area_sizez sid="area_sizez" type="float">1</area_sizez>
        </technique>
      </extra>
    </light>
  </library_lights>
  <library_effects>
    <effect id="__000000_0_000000_0_000000_0_000000_0_000000-effect">
      <profile_COMMON>
        <technique sid="common">
          <lambert>
            <emission>
              <color sid="emission">0 0 0 1</color>
            </emission>
            <diffuse>
              <color sid="diffuse">0 0 0 1</color>
            </diffuse>
            <index_of_refraction>
              <float sid="ior">1.5</float>
            </index_of_refraction>
          </lambert>
        </technique>
      </profile_COMMON>
    </effect>
  </library_effects>
  <library_images/>
  <library_materials>
    <material id="__000000_0_000000_0_000000_0_000000_0_000000-material" name="0.000000_0.000000_0.000000_0.000000_0.000000">
      <instance_effect url="#__000000_0_000000_0_000000_0_000000_0_000000-effect"/>
    </material>
  </library_materials>
  <library_geometries>
    <geometry id="mesh0-mesh" name="mesh0">
      <mesh>
        <source id="mesh0-mesh-positions">
          <float_array id="mesh0-mesh-positions-array" count="162">-0.004387915 0.06349998 0.002999961 -0.004387915 0.06349998 0 -0.004387915 0.002533316 0 -0.004387915 0.002533316 0.002999961 -0.004387915 0.002533316 0 -0.004387915 0.002533316 0.002999961 -0.0571866 -0.02794986 0 -0.0571866 -0.02794986 0.002999961 -0.004387915 0.06349998 0.002999961 -0.004387915 0.06349998 0 0.004387915 0.06349998 0.002999961 0.004387915 0.06349998 0 -0.0571866 -0.02794986 0 -0.0571866 -0.02794986 0.002999961 -0.05279856 -0.03555005 0 -0.05279856 -0.03555005 0.002999961 -0.05279856 -0.03555005 0 -0.05279856 -0.03555005 0.002999961 0 -0.005066692 0 0 -0.005066692 0.002999961 0 -0.005066692 0 0 -0.005066692 0.002999961 0.05279856 -0.03555005 0 0.05279856 -0.03555005 0.002999961 0.05279856 -0.03555005 0 0.05279856 -0.03555005 0.002999961 0.0571866 -0.02794986 0 0.0571866 -0.02794986 0.002999961 -0.004387915 0.06349998 0.002999961 -0.004387915 0.002533316 0.002999961 -0.0571866 -0.02794986 0.002999961 -0.05279856 -0.03555005 0.002999961 0 -0.005066692 0.002999961 0.05279856 -0.03555005 0.002999961 0.0571866 -0.02794986 0.002999961 0.004387915 0.06349998 0.002999961 0.004387915 0.002533316 0.002999961 -0.004387915 0.06349998 0 -0.004387915 0.002533316 0 -0.0571866 -0.02794986 0 -0.05279856 -0.03555005 0 0 -0.005066692 0 0.05279856 -0.03555005 0 0.0571866 -0.02794986 0 0.004387915 0.06349998 0 0.004387915 0.002533316 0 0.0571866 -0.02794986 0 0.0571866 -0.02794986 0.002999961 0.004387915 0.002533316 0.002999961 0.004387915 0.002533316 0 0.004387915 0.06349998 0.002999961 0.004387915 0.002533316 0.002999961 0.004387915 0.06349998 0 0.004387915 0.002533316 0</float_array>
          <technique_common>
            <accessor source="#mesh0-mesh-positions-array" count="54" stride="3">
              <param name="X" type="float"/>
              <param name="Y" type="float"/>
              <param name="Z" type="float"/>
            </accessor>
          </technique_common>
        </source>
        <source id="mesh0-mesh-normals">
          <float_array id="mesh0-mesh-normals-array" count="75">-1 0 0 -0.4999992 0.8660259 0 -0.4999993 0.8660259 0 -0.4999993 0.8660258 0 -0.4999993 0.8660259 0 0 1 0 -0.8660241 -0.5000023 0 0.500001 -0.866025 0 0.500001 -0.8660249 0 -0.500001 -0.866025 0 -0.500001 -0.8660249 0 0.8660241 -0.5000023 0 0 0 1 0 0 1 0 0 1 0 0 1 0 0 1 0 0 1 0 0 1 0 0 -1 0.4999993 0.8660258 0 0.4999993 0.8660259 0 0.4999992 0.8660259 0 0.4999993 0.8660259 0 1 0 0</float_array>
          <technique_common>
            <accessor source="#mesh0-mesh-normals-array" count="25" stride="3">
              <param name="X" type="float"/>
              <param name="Y" type="float"/>
              <param name="Z" type="float"/>
            </accessor>
          </technique_common>
        </source>
        <vertices id="mesh0-mesh-vertices">
          <input semantic="POSITION" source="#mesh0-mesh-positions"/>
        </vertices>
        <triangles material="__000000_0_000000_0_000000_0_000000_0_000000-material" count="32">
          <input semantic="VERTEX" source="#mesh0-mesh-vertices" offset="0"/>
          <input semantic="NORMAL" source="#mesh0-mesh-normals" offset="1"/>
          <p>0 0 1 0 2 0 2 0 3 0 0 0 5 1 4 2 6 3 6 3 7 4 5 1 10 5 11 5 9 5 9 5 8 5 10 5 13 6 12 6 14 6 14 6 15 6 13 6 17 7 16 8 18 7 18 7 19 8 17 7 21 9 20 10 22 9 22 9 23 10 21 9 25 11 24 11 26 11 26 11 27 11 25 11 34 12 29 13 32 14 30 15 31 16 32 14 35 17 28 17 29 13 32 14 29 13 30 15 29 13 34 12 36 17 29 13 36 17 35 17 32 14 33 18 34 12 44 19 41 19 38 19 39 19 38 19 41 19 41 19 45 19 43 19 41 19 40 19 39 19 41 19 44 19 45 19 43 19 42 19 41 19 38 19 37 19 44 19 47 20 46 21 49 22 49 22 48 23 47 20 51 24 53 24 52 24 52 24 50 24 51 24</p>
        </triangles>
      </mesh>
    </geometry>
  </library_geometries>
  <library_visual_scenes>
    <visual_scene id="Scene" name="Scene">
      <node id="Lamp" name="Lamp" type="NODE">
        <matrix sid="transform">-0.2908646 -0.7711008 0.5663933 4.076245 0.9551712 -0.1998833 0.2183913 1.005454 -0.05518912 0.6045247 0.7946723 5.903862 0 0 0 1</matrix>
        <instance_light url="#Lamp-light"/>
      </node>
      <node id="Camera_001" name="Camera.001" type="NODE">
        <matrix sid="transform">0.6858805 -0.3173701 0.6548619 7.481132 0.7276338 0.3124686 -0.6106656 -6.50764 -0.01081678 0.8953432 0.4452454 5.343665 0 0 0 1</matrix>
        <instance_camera url="#Camera_001-camera"/>
      </node>
      <node id="mesh0" name="mesh0" type="NODE">
        <matrix sid="transform">1 0 0 0 0 1 0 0 0 0 1 0 0 0 0 1</matrix>
        <instance_geometry url="#mesh0-mesh" name="mesh0">
          <bind_material>
            <technique_common>
              <instance_material symbol="__000000_0_000000_0_000000_0_000000_0_000000-material" target="#__000000_0_000000_0_000000_0_000000_0_000000-material"/>
            </technique_common>
          </bind_material>
        </instance_geometry>
      </node>
      <node id="Camera" name="Camera" type="NODE">
        <matrix sid="transform">0.6859207 -0.3240135 0.6515582 7.358891 0.7276763 0.3054208 -0.6141704 -6.925791 0 0.8953956 0.4452714 4.958309 0 0 0 1</matrix>
        <instance_camera url="#Camera-camera"/>
      </node>
      <node id="Light" name="Light" type="NODE">
        <matrix sid="transform">-0.2908646 -0.7711008 0.5663932 4.076245 0.9551712 -0.1998834 0.2183912 1.005454 -0.05518906 0.6045247 0.7946723 5.903862 0 0 0 1</matrix>
        <instance_light url="#Light-light"/>
      </node>
    </visual_scene>
  </library_visual_scenes>
  <scene>
    <instance_visual_scene url="#Scene"/>
  </scene>
</COLLADA>